<svg width="37" height="58" viewBox="0 0 37 58" xmlns="http://www.w3.org/2000/svg">
<g clip-path="url(#clip0_21_71)">
<path fill-rule="evenodd" clip-rule="evenodd" d="M35.6298 17.4929C36.3911 18.2705 36.3911 19.514 35.6298 20.2915L30.4896 25.5407C29.7053 26.3417 28.416 26.3417 27.6317 25.5407L19.929 17.6747C19.1447 16.8738 17.8553 16.8738 17.071 17.6747L9.36839 25.5407C8.58409 26.3417 7.29474 26.3417 6.51044 25.5407L1.37025 20.2915C0.608875 19.514 0.608875 18.2705 1.37025 17.4929L17.071 1.45927C17.8553 0.658335 19.1447 0.658337 19.929 1.45927L35.6298 17.4929Z" fill="currentColor"/>
<path fill-rule="evenodd" clip-rule="evenodd" d="M35.6298 44.4929C36.3911 45.2705 36.3911 46.514 35.6298 47.2915L30.4896 52.5407C29.7053 53.3417 28.416 53.3417 27.6317 52.5407L19.929 44.6747C19.1447 43.8738 17.8553 43.8738 17.071 44.6747L9.36839 52.5407C8.58409 53.3417 7.29474 53.3417 6.51044 52.5407L1.37025 47.2915C0.608875 46.514 0.608875 45.2705 1.37025 44.4929L17.071 28.4593C17.8553 27.6583 19.1447 27.6583 19.929 28.4593L35.6298 44.4929Z" fill="currentColor"/>
</g>
<defs>
<clipPath id="clip0_21_71">
<rect width="37" height="58" fill="white" transform="matrix(-1 0 0 -1 37 58)"/>
</clipPath>
</defs>
</svg>
