<svg width="1440" height="352" viewBox="0 0 1440 352" fill="none" xmlns="http://www.w3.org/2000/svg">
<path d="M467.284 201.757V130.204L500.094 130.162C500.934 119.938 501.642 109.53 502.202 98.9404C503.452 75.3182 503.652 1.0002 503.652 1.0002H648.169" fill="transparent" stroke="#11559B" stroke-width="1.33333" stroke-miterlimit="10"/>
<path d="M485.704 288.708H503.57V283.047H485.704V288.708Z" fill="transparent" stroke="#11559B" stroke-width="1.33333" stroke-miterlimit="10"/>
<path d="M503.57 266.064H485.704V271.725H503.57V266.064Z" fill="transparent" stroke="#11559B" stroke-width="1.33333" stroke-miterlimit="10"/>
<path d="M707.138 340.817V333.995H679.765H610.905V249.281H442.203" fill="transparent" stroke="#11559B" stroke-width="1.33333" stroke-miterlimit="10"/>
<path d="M707.138 340.817V350.976H0" fill="transparent" stroke="#11559B" stroke-width="1.33333" stroke-miterlimit="10"/>
<path d="M496.947 237.94C504.021 198.062 509.525 154.06 512.046 106.424C513.297 82.8003 513.719 32.8962 513.497 11.2022H650.532C650.751 49.0118 653.175 91.0489 659.283 136.407C669.686 213.655 688.03 280.128 707.138 333.995" fill="transparent" stroke="#11559B" stroke-width="1.33333" stroke-miterlimit="10"/>
<path d="M485.704 305.69H503.57V300.029H485.704V305.69Z" fill="transparent" stroke="#11559B" stroke-width="1.33333" stroke-miterlimit="10"/>
<path d="M404.978 164.169H0" fill="transparent" stroke="#11559B" stroke-width="1.33333" stroke-miterlimit="10"/>
<path d="M440.787 249.282V237.949H405.43V249.282H381.404V237.949H345.593V350.824" fill="transparent" stroke="#11559B" stroke-width="1.33333" stroke-miterlimit="10"/>
<path d="M478.385 208.297V138.584H489.706V220.026" fill="transparent" stroke="#11559B" stroke-width="1.33333" stroke-miterlimit="10"/>
<path d="M245.991 69.3794H204.765" fill="transparent" stroke="#11559B" stroke-width="1.33333" stroke-miterlimit="10"/>
<path d="M269.07 163.861C265.358 144.397 262.205 134.737 259.61 134.885C258.411 134.953 257.333 137.11 256.373 141.357C254.872 132.8 253.206 128.485 251.375 128.415C248.328 128.296 244.826 139.924 240.866 163.304" fill="transparent" stroke="#11559B" stroke-width="1.33333" stroke-miterlimit="10"/>
<path d="M212.533 85.094C213.009 80.259 216.494 78.8207 220.164 77.4072C225.634 75.3 234.024 79.4386 236.512 88.4906C237.36 88.3351 241.301 87.6924 243.439 89.8754C246.065 92.56 245.55 99.0894 240.141 104.17" fill="transparent" stroke="#11559B" stroke-width="1.33333" stroke-miterlimit="10"/>
<path d="M228.578 78.2793C228.725 77.9096 230.008 74.8043 232.99 74.0714C236.09 73.3111 239.825 75.4105 241.223 79.3466C248.476 77.3348 255.608 80.4819 258.125 85.9962C260.603 91.4242 257.623 96.9803 257.239 97.6714" fill="transparent" stroke="#11559B" stroke-width="1.33333" stroke-miterlimit="10"/>
<path d="M308.34 95.4181H288.7V147.593" fill="transparent" stroke="#11559B" stroke-width="1.33333" stroke-miterlimit="10"/>
<path d="M308.34 95.4186H321.141V162.783" fill="transparent" stroke="#11559B" stroke-width="1.33333" stroke-miterlimit="10"/>
<path d="M263.07 139.03L287.77 138.955" fill="transparent" stroke="#11559B" stroke-width="1.33333" stroke-miterlimit="10"/>
<path d="M263.545 121.587L287.77 121.544" fill="transparent" stroke="#11559B" stroke-width="1.33333" stroke-miterlimit="10"/>
<path d="M257.407 121.598L249.166 121.613" fill="transparent" stroke="#11559B" stroke-width="1.33333" stroke-miterlimit="10"/>
<path d="M263.546 121.587L257.407 121.598" fill="transparent" stroke="#11559B" stroke-width="1.33333" stroke-miterlimit="10"/>
<path d="M334.122 129.26V133.863H330.663" fill="transparent" stroke="#11559B" stroke-width="1.33333" stroke-miterlimit="10"/>
<path d="M334.122 129.259V101.403H340.352V112.867H346.415V115.721" fill="transparent" stroke="#11559B" stroke-width="1.33333" stroke-miterlimit="10"/>
<path d="M346.415 115.721V138.99H352.405V133.876H359.999V144.463L372.718 144.388" fill="transparent" stroke="#11559B" stroke-width="1.33333" stroke-miterlimit="10"/>
<path d="M378.412 162.784V138.99H366.121V128.253H352.405" fill="transparent" stroke="#11559B" stroke-width="1.33333" stroke-miterlimit="10"/>
<path d="M279.462 90.6376H287.15V52.0062H295.464V80.0153H299.827V68.5504H308.34V95.4189" fill="transparent" stroke="#11559B" stroke-width="1.33333" stroke-miterlimit="10"/>
<path d="M340.351 151.623V143.417H327.259V164.17" fill="transparent" stroke="#11559B" stroke-width="1.33333" stroke-miterlimit="10"/>
<path d="M250.465 128.738L249.165 121.613" fill="transparent" stroke="#11559B" stroke-width="1.33333" stroke-miterlimit="10"/>
<path d="M249.166 121.613L240.157 104.201" fill="transparent" stroke="#11559B" stroke-width="1.33333" stroke-miterlimit="10"/>
<path d="M240.158 104.201L240.142 104.169" fill="transparent" stroke="#11559B" stroke-width="1.33333" stroke-miterlimit="10"/>
<path d="M265.377 144.462C272.118 141.968 276.816 144.304 280.392 147.053C280.963 146.995 281.542 146.965 282.129 146.965C291.459 146.965 299.024 154.529 299.024 163.861" fill="transparent" stroke="#11559B" stroke-width="1.33333" stroke-miterlimit="10"/>
<path d="M246.284 78.7123V43.0791H278.724V104.17H263.071" fill="transparent" stroke="#11559B" stroke-width="1.33333" stroke-miterlimit="10"/>
<path d="M263.07 104.169V104.201" fill="transparent" stroke="#11559B" stroke-width="1.33333" stroke-miterlimit="10"/>
<path d="M251.628 104.201V104.169" fill="transparent" stroke="#11559B" stroke-width="1.33333" stroke-miterlimit="10"/>
<path d="M263.07 104.17V100.115C263.07 98.802 261.996 97.7268 260.682 97.7268H254.016C252.701 97.7268 251.628 98.802 251.628 100.115V104.17" fill="transparent" stroke="#11559B" stroke-width="1.33333" stroke-miterlimit="10"/>
<path d="M263.545 113.213H261.528C260.735 113.213 260.085 112.564 260.085 111.769V109.618H254.015C252.702 109.618 251.629 108.544 251.629 107.23V104.201" fill="transparent" stroke="#11559B" stroke-width="1.33333" stroke-miterlimit="10"/>
<path d="M263.545 113.213H265.561C266.354 113.213 267.005 112.564 267.005 111.769V107.467C267.005 106.673 266.354 106.024 265.561 106.024H263.07V104.201" fill="transparent" stroke="#11559B" stroke-width="1.33333" stroke-miterlimit="10"/>
<path d="M263.545 121.586V121.733" fill="transparent" stroke="#11559B" stroke-width="1.33333" stroke-miterlimit="10"/>
<path d="M263.545 113.213V121.587" fill="transparent" stroke="#11559B" stroke-width="1.33333" stroke-miterlimit="10"/>
<path d="M257.407 121.599V109.717" fill="transparent" stroke="#11559B" stroke-width="1.33333" stroke-miterlimit="10"/>
<path d="M257.407 121.597V121.733" fill="transparent" stroke="#11559B" stroke-width="1.33333" stroke-miterlimit="10"/>
<path d="M243.718 147.594L204.764 69.3806" fill="transparent" stroke="#11559B" stroke-width="1.33333" stroke-miterlimit="10"/>
<path d="M222.467 68.5499V18.0553H230.792V25.2535H243.094V17.9024H264.499V30.9951H287.358V43.0805H299.827V61.549H314.79V91.0538H327.883V133.864H330.663" fill="transparent" stroke="#11559B" stroke-width="1.33333" stroke-miterlimit="10"/>
<path d="M192.595 85.7948L230 163.861" fill="transparent" stroke="#11559B" stroke-width="1.33333" stroke-miterlimit="10"/>
<path d="M185.373 150.192L0 150.106" fill="transparent" stroke="#11559B" stroke-width="1.33333" stroke-miterlimit="10"/>
<path d="M190.335 118.247L212.533 165.095" fill="transparent" stroke="#11559B" stroke-width="1.33333" stroke-miterlimit="10"/>
<path d="M171.447 118.656L192.866 163.861" fill="transparent" stroke="#11559B" stroke-width="1.33333" stroke-miterlimit="10"/>
<path d="M192.594 85.7939H0.000953674" fill="transparent" stroke="#11559B" stroke-width="1.33333" stroke-miterlimit="10"/>
<path d="M200.076 102.226H0" fill="transparent" stroke="#11559B" stroke-width="1.33333" stroke-miterlimit="10"/>
<path d="M207.558 118.656H0" fill="transparent" stroke="#11559B" stroke-width="1.33333" stroke-miterlimit="10"/>
<path d="M250.987 300.029H270.904" fill="transparent" stroke="#11559B" stroke-width="1.33333" stroke-miterlimit="10"/>
<path d="M310.738 300.029H290.821" fill="transparent" stroke="#11559B" stroke-width="1.33333" stroke-miterlimit="10"/>
<path d="M345.14 300.029H310.739" fill="transparent" stroke="#11559B" stroke-width="1.33333" stroke-miterlimit="10"/>
<path d="M440.787 249.302V350.976" fill="transparent" stroke="#11559B" stroke-width="1.33333" stroke-miterlimit="10"/>
<path d="M0.000476837 300.029H250.987" fill="transparent" stroke="#11559B" stroke-width="1.33333" stroke-miterlimit="10"/>
<path d="M290.821 300.029H270.903" fill="transparent" stroke="#11559B" stroke-width="1.33333" stroke-miterlimit="10"/>
<path d="M344.686 266.063H295.574" fill="transparent" stroke="#11559B" stroke-width="1.33333" stroke-miterlimit="10"/>
<path d="M295.575 266.063H275.657" fill="transparent" stroke="#11559B" stroke-width="1.33333" stroke-miterlimit="10"/>
<path d="M275.658 266.063H255.741" fill="transparent" stroke="#11559B" stroke-width="1.33333" stroke-miterlimit="10"/>
<path d="M0.000476837 266.063H235.824" fill="transparent" stroke="#11559B" stroke-width="1.33333" stroke-miterlimit="10"/>
<path d="M235.823 266.063H255.74" fill="transparent" stroke="#11559B" stroke-width="1.33333" stroke-miterlimit="10"/>
<path d="M0.000476837 333.995H266.149" fill="transparent" stroke="#11559B" stroke-width="1.33333" stroke-miterlimit="10"/>
<path d="M345.14 317.013H318.32" fill="transparent" stroke="#11559B" stroke-width="1.33333" stroke-miterlimit="10"/>
<path d="M514.224 333.995H537.316V272.388H542.975V333.995H582.601V272.388H588.261V333.995H593.922V266.726C593.922 266.726 593.922 261.065 576.941 261.065C559.96 261.065 559.96 266.726 559.96 266.726V322.894H548.639V266.726C548.639 266.726 548.639 261.065 531.655 261.065C514.672 261.065 514.672 266.726 514.672 266.726L514.224 333.995Z" fill="transparent" stroke="#11559B" stroke-width="1.33333" stroke-miterlimit="10"/>
<path d="M325.901 333.995H345.14" fill="transparent" stroke="#11559B" stroke-width="1.33333" stroke-miterlimit="10"/>
<path d="M258.568 317.013H0" fill="transparent" stroke="#11559B" stroke-width="1.33333" stroke-miterlimit="10"/>
<path d="M390.372 198.134H455.741V181.151H390.372V198.134Z" fill="transparent" stroke="#11559B" stroke-width="1.33333" stroke-miterlimit="10"/>
<path d="M0.000476837 198.135H205.498" fill="transparent" stroke="#11559B" stroke-width="1.33333" stroke-miterlimit="10"/>
<path d="M197.917 181.152H0.000953674" fill="transparent" stroke="#11559B" stroke-width="1.33333" stroke-miterlimit="10"/>
<path d="M217.834 181.152H197.917" fill="transparent" stroke="#11559B" stroke-width="1.33333" stroke-miterlimit="10"/>
<path d="M237.751 181.152H217.834" fill="transparent" stroke="#11559B" stroke-width="1.33333" stroke-miterlimit="10"/>
<path d="M331.369 232.101H260.495" fill="transparent" stroke="#11559B" stroke-width="1.33333" stroke-miterlimit="10"/>
<path d="M213.079 215.118H0.000476837" fill="transparent" stroke="#11559B" stroke-width="1.33333" stroke-miterlimit="10"/>
<path d="M0.000476837 232.101H220.662" fill="transparent" stroke="#11559B" stroke-width="1.33333" stroke-miterlimit="10"/>
<path d="M260.496 232.101H240.579" fill="transparent" stroke="#11559B" stroke-width="1.33333" stroke-miterlimit="10"/>
<path d="M220.662 232.101H240.579" fill="transparent" stroke="#11559B" stroke-width="1.33333" stroke-miterlimit="10"/>
<path d="M324.028 215.118H272.831" fill="transparent" stroke="#11559B" stroke-width="1.33333" stroke-miterlimit="10"/>
<path d="M213.08 215.118H232.997" fill="transparent" stroke="#11559B" stroke-width="1.33333" stroke-miterlimit="10"/>
<path d="M345.14 283.046H0.000476837" fill="transparent" stroke="#11559B" stroke-width="1.33333" stroke-miterlimit="10"/>
<path d="M345.114 249.081H268.076" fill="transparent" stroke="#11559B" stroke-width="1.33333" stroke-miterlimit="10"/>
<path d="M228.241 249.081H0.000476837" fill="transparent" stroke="#11559B" stroke-width="1.33333" stroke-miterlimit="10"/>
<path d="M228.242 249.081H248.159" fill="transparent" stroke="#11559B" stroke-width="1.33333" stroke-miterlimit="10"/>
<path d="M268.076 249.081H248.159" fill="transparent" stroke="#11559B" stroke-width="1.33333" stroke-miterlimit="10"/>
<path d="M235.824 266.063L228.241 249.08" fill="transparent" stroke="#11559B" stroke-width="1.33333" stroke-miterlimit="10"/>
<path d="M266.149 333.995L258.568 317.012" fill="transparent" stroke="#11559B" stroke-width="1.33333" stroke-miterlimit="10"/>
<path d="M197.9 181.114L197.917 181.152" fill="transparent" stroke="#11559B" stroke-width="1.33333" stroke-miterlimit="10"/>
<path d="M274.37 352.411L266.149 333.996" fill="transparent" stroke="#11559B" stroke-width="1.33333" stroke-miterlimit="10"/>
<path d="M205.498 198.135L213.079 215.118" fill="transparent" stroke="#11559B" stroke-width="1.33333" stroke-miterlimit="10"/>
<path d="M197.916 181.152L205.499 198.135" fill="transparent" stroke="#11559B" stroke-width="1.33333" stroke-miterlimit="10"/>
<path d="M250.987 300.03L258.568 317.013" fill="transparent" stroke="#11559B" stroke-width="1.33333" stroke-miterlimit="10"/>
<path d="M225.415 198.135L232.998 215.118" fill="transparent" stroke="#11559B" stroke-width="1.33333" stroke-miterlimit="10"/>
<path d="M248.159 249.08L255.74 266.063" fill="transparent" stroke="#11559B" stroke-width="1.33333" stroke-miterlimit="10"/>
<path d="M217.834 181.152L225.415 198.135" fill="transparent" stroke="#11559B" stroke-width="1.33333" stroke-miterlimit="10"/>
<path d="M294.287 352.411L286.066 333.996" fill="transparent" stroke="#11559B" stroke-width="1.33333" stroke-miterlimit="10"/>
<path d="M232.997 215.118L240.578 232.101" fill="transparent" stroke="#11559B" stroke-width="1.33333" stroke-miterlimit="10"/>
<path d="M217.817 181.114L217.834 181.152" fill="transparent" stroke="#11559B" stroke-width="1.33333" stroke-miterlimit="10"/>
<path d="M270.903 300.03L278.486 317.013" fill="transparent" stroke="#11559B" stroke-width="1.33333" stroke-miterlimit="10"/>
<path d="M286.066 333.995L278.485 317.012" fill="transparent" stroke="#11559B" stroke-width="1.33333" stroke-miterlimit="10"/>
<path d="M298.402 317.013L290.821 300.03" fill="transparent" stroke="#11559B" stroke-width="1.33333" stroke-miterlimit="10"/>
<path d="M275.658 266.063L268.076 249.08" fill="transparent" stroke="#11559B" stroke-width="1.33333" stroke-miterlimit="10"/>
<path d="M260.496 232.101L252.914 215.118" fill="transparent" stroke="#11559B" stroke-width="1.33333" stroke-miterlimit="10"/>
<path d="M237.751 181.152L245.333 198.135" fill="transparent" stroke="#11559B" stroke-width="1.33333" stroke-miterlimit="10"/>
<path d="M305.984 333.995L298.402 317.012" fill="transparent" stroke="#11559B" stroke-width="1.33333" stroke-miterlimit="10"/>
<path d="M252.914 215.118L245.333 198.135" fill="transparent" stroke="#11559B" stroke-width="1.33333" stroke-miterlimit="10"/>
<path d="M314.204 352.411L305.983 333.996" fill="transparent" stroke="#11559B" stroke-width="1.33333" stroke-miterlimit="10"/>
<path d="M318.32 317.012L325.901 333.995" fill="transparent" stroke="#11559B" stroke-width="1.33333" stroke-miterlimit="10"/>
<path d="M257.669 181.152L265.25 198.135" fill="transparent" stroke="#11559B" stroke-width="1.33333" stroke-miterlimit="10"/>
<path d="M287.993 249.08L295.574 266.063" fill="transparent" stroke="#11559B" stroke-width="1.33333" stroke-miterlimit="10"/>
<path d="M272.831 215.118L280.414 232.101" fill="transparent" stroke="#11559B" stroke-width="1.33333" stroke-miterlimit="10"/>
<path d="M272.831 215.118L265.249 198.135" fill="transparent" stroke="#11559B" stroke-width="1.33333" stroke-miterlimit="10"/>
<path d="M334.122 352.411L325.901 333.996" fill="transparent" stroke="#11559B" stroke-width="1.33333" stroke-miterlimit="10"/>
<path d="M318.32 317.013L310.739 300.03" fill="transparent" stroke="#11559B" stroke-width="1.33333" stroke-miterlimit="10"/>
<path d="M558.788 11.1582V51.1416H543.678V11.1582" fill="transparent" stroke="#11559B" stroke-width="1.33333" stroke-miterlimit="10"/>
<path d="M589.159 11.1582V51.1416H574.049V11.1582" fill="transparent" stroke="#11559B" stroke-width="1.33333" stroke-miterlimit="10"/>
<path d="M619.531 11.1582V51.1416H604.421V11.1582" fill="transparent" stroke="#11559B" stroke-width="1.33333" stroke-miterlimit="10"/>
<path d="M528.416 11.1582V51.1416H513.306" fill="transparent" stroke="#11559B" stroke-width="1.33333" stroke-miterlimit="10"/>
<path d="M650.91 51.1416H634.792V11.1582" fill="transparent" stroke="#11559B" stroke-width="1.33333" stroke-miterlimit="10"/>
<path d="M560.912 194.479H544.698V181.816H560.912V194.479Z" fill="transparent" stroke="#11559B" stroke-width="1.33333" stroke-miterlimit="10"/>
<path d="M593.5 194.479H577.286V181.816H593.5V194.479Z" fill="transparent" stroke="#11559B" stroke-width="1.33333" stroke-miterlimit="10"/>
<path d="M626.089 194.479H609.876V181.816H626.089V194.479Z" fill="transparent" stroke="#11559B" stroke-width="1.33333" stroke-miterlimit="10"/>
<path d="M529.612 194.479H512.109V181.816H529.612V194.479Z" fill="transparent" stroke="#11559B" stroke-width="1.33333" stroke-miterlimit="10"/>
<path d="M658.679 194.479H642.465V181.816H658.679V194.479Z" fill="transparent" stroke="#11559B" stroke-width="1.33333" stroke-miterlimit="10"/>
<path d="M577.231 207.14H561.018V194.477H577.231V207.14Z" fill="transparent" stroke="#11559B" stroke-width="1.33333" stroke-miterlimit="10"/>
<path d="M609.821 207.14H593.607V194.477H609.821V207.14Z" fill="transparent" stroke="#11559B" stroke-width="1.33333" stroke-miterlimit="10"/>
<path d="M642.41 207.14H626.196V194.477H642.41V207.14Z" fill="transparent" stroke="#11559B" stroke-width="1.33333" stroke-miterlimit="10"/>
<path d="M544.698 207.14H529.612V194.477H535.341H544.698V207.14Z" fill="transparent" stroke="#11559B" stroke-width="1.33333" stroke-miterlimit="10"/>
<path d="M503.751 194.477H512.109V207.14H501.956" fill="transparent" stroke="#11559B" stroke-width="1.33333" stroke-miterlimit="10"/>
<path d="M672.379 207.14H658.786V194.477H669.588" fill="transparent" stroke="#11559B" stroke-width="1.33333" stroke-miterlimit="10"/>
<path d="M397.477 198.423V214.359" fill="transparent" stroke="#11559B" stroke-width="1.33333" stroke-miterlimit="10"/>
<path d="M448.247 198.423V214.359" fill="transparent" stroke="#11559B" stroke-width="1.33333" stroke-miterlimit="10"/>
<path d="M381.158 249.717V351.412" fill="transparent" stroke="#11559B" stroke-width="1.33333" stroke-miterlimit="10"/>
<path d="M405.182 249.717V351.412" fill="transparent" stroke="#11559B" stroke-width="1.33333" stroke-miterlimit="10"/>
<path d="M345.346 238.385C346.677 233.326 349.817 224.254 357.585 215.719C369.804 202.296 385.176 199.32 390.125 198.571" fill="transparent" stroke="#11559B" stroke-width="1.33333" stroke-miterlimit="10"/>
<path d="M496.752 234.758C495.144 229.992 490.693 218.936 479.526 209.825C470.085 202.124 460.407 199.535 455.494 198.571" fill="transparent" stroke="#11559B" stroke-width="1.33333" stroke-miterlimit="10"/>
<path d="M508.084 249.717H467.286V238.384H508.084V249.717Z" fill="transparent" stroke="#11559B" stroke-width="1.33333" stroke-miterlimit="10"/>
<path d="M467.286 247.45V351.411" fill="transparent" stroke="#11559B" stroke-width="1.33333" stroke-miterlimit="10"/>
<path d="M478.62 237.931C477.142 234.735 474.758 230.607 470.913 226.598C462.589 217.917 452.658 215.25 448.247 214.358H429.017" fill="transparent" stroke="#11559B" stroke-width="1.33333" stroke-miterlimit="10"/>
<path d="M413.081 214.359H397.478C393.564 214.769 382.718 216.439 373.452 225.239C368.127 230.294 365.352 235.779 363.932 239.292" fill="transparent" stroke="#11559B" stroke-width="1.33333" stroke-miterlimit="10"/>
<path d="M429.017 214.358V206.391C429.017 201.989 425.449 198.422 421.049 198.422C416.648 198.422 413.082 201.989 413.082 206.391V214.358" fill="transparent" stroke="#11559B" stroke-width="1.33333" stroke-miterlimit="10"/>
<path d="M413.081 214.359V238.385" fill="transparent" stroke="#11559B" stroke-width="1.33333" stroke-miterlimit="10"/>
<path d="M429.017 238.385V214.359" fill="transparent" stroke="#11559B" stroke-width="1.33333" stroke-miterlimit="10"/>
<path d="M403.143 199.173V214.358" fill="transparent" stroke="#11559B" stroke-width="1.33333" stroke-miterlimit="10"/>
<path d="M443.261 199.173V214.358" fill="transparent" stroke="#11559B" stroke-width="1.33333" stroke-miterlimit="10"/>
<path d="M359.852 238.158C361.314 234.492 365.259 226.03 374.358 219.232C383.862 212.132 393.559 210.904 397.477 210.619" fill="transparent" stroke="#11559B" stroke-width="1.33333" stroke-miterlimit="10"/>
<path d="M448.247 210.732C452.306 211.307 460.906 213.084 469.44 219.571C478.349 226.345 482.372 234.594 483.946 238.385" fill="transparent" stroke="#11559B" stroke-width="1.33333" stroke-miterlimit="10"/>
<path d="M359.852 238.157V351.411" fill="transparent" stroke="#11559B" stroke-width="1.33333" stroke-miterlimit="10"/>
<path d="M429.017 238.725V350.846" fill="transparent" stroke="#11559B" stroke-width="1.33333" stroke-miterlimit="10"/>
<path d="M338.547 249.717L309.102 181.588H237.504" fill="transparent" stroke="#11559B" stroke-width="1.33333" stroke-miterlimit="10"/>
<path d="M320.171 163.845L348.531 229.465" fill="transparent" stroke="#11559B" stroke-width="1.33333" stroke-miterlimit="10"/>
<path d="M339.23 164.592L360.181 213.068" fill="transparent" stroke="#11559B" stroke-width="1.33333" stroke-miterlimit="10"/>
<path d="M358.006 164.68L374.67 203.24" fill="transparent" stroke="#11559B" stroke-width="1.33333" stroke-miterlimit="10"/>
<path d="M373.615 164.605L380.441 180.116" fill="transparent" stroke="#11559B" stroke-width="1.33333" stroke-miterlimit="10"/>
<path d="M804.284 351.511V288.656H883.581V351.511" fill="transparent" stroke="#11559B" stroke-width="1.33333" stroke-miterlimit="10"/>
<path d="M882.815 325.26H930.724" fill="transparent" stroke="#11559B" stroke-width="1.33333" stroke-miterlimit="10"/>
<path d="M1081.53 166.488C1082 153.925 1088.39 146.173 1093.31 146.392C1097.03 146.557 1100.5 151.286 1102.48 156.842C1103.98 148.285 1105.64 143.97 1107.47 143.899C1110.52 143.781 1114.02 155.41 1117.98 178.791" fill="transparent" stroke="#11559B" stroke-width="1.33333" stroke-miterlimit="10"/>
<path d="M1140.76 111.711C1135.88 107.421 1129.49 106.948 1125.73 109.9C1122.95 112.083 1122.39 115.524 1122.26 116.7C1114.21 113.366 1105.44 115.241 1100.72 120.952C1096.45 126.124 1097.08 132.528 1097.26 133.989" fill="transparent" stroke="#11559B" stroke-width="1.33333" stroke-miterlimit="10"/>
<path d="M1143.48 106.123C1140.19 99.2005 1133.26 94.8934 1125.99 95.2056C1116.85 95.5988 1111.85 103.075 1111.37 103.819C1107.95 101.683 1103.62 101.683 1100.26 103.819C1097.1 105.832 1095.28 109.444 1095.5 113.225C1094.36 113.232 1089.2 113.389 1085.43 117.369C1081.49 121.529 1080.68 128.18 1083.51 133.99" fill="transparent" stroke="#11559B" stroke-width="1.33333" stroke-miterlimit="10"/>
<path d="M843.549 288.202V242.363V240.794H844.502H848.428V233.312H856.896L856.897 238.3H862.52V233.312H863.859H875.99V240.581H1102.39" fill="transparent" stroke="#11559B" stroke-width="1.33333" stroke-miterlimit="10"/>
<path d="M882.815 304.181H898.199" fill="transparent" stroke="#11559B" stroke-width="1.33333" stroke-miterlimit="10"/>
<path d="M909.694 167.108H882.815V240.581" fill="transparent" stroke="#11559B" stroke-width="1.33333" stroke-miterlimit="10"/>
<path d="M915.256 240.581V167.108H909.694" fill="transparent" stroke="#11559B" stroke-width="1.33333" stroke-miterlimit="10"/>
<path d="M1013.88 167.109H987.002V179.786V218.053" fill="transparent" stroke="#11559B" stroke-width="1.33333" stroke-miterlimit="10"/>
<path d="M1028.63 206.682L1019.44 206.745V167.109H1013.88" fill="transparent" stroke="#11559B" stroke-width="1.33333" stroke-miterlimit="10"/>
<path d="M1055.51 167.109H1028.63V207.532" fill="transparent" stroke="#11559B" stroke-width="1.33333" stroke-miterlimit="10"/>
<path d="M1095.6 167.108H1068.72V206.833L1061.07 206.744V167.108H1055.51" fill="transparent" stroke="#11559B" stroke-width="1.33333" stroke-miterlimit="10"/>
<path d="M1116.73 206.682L1101.16 206.745V167.109H1095.6" fill="transparent" stroke="#11559B" stroke-width="1.33333" stroke-miterlimit="10"/>
<path d="M1038.65 118.632V123.711V166.942" fill="transparent" stroke="#11559B" stroke-width="1.33333" stroke-miterlimit="10"/>
<path d="M1009.4 118.633V123.712V167.648" fill="transparent" stroke="#11559B" stroke-width="1.33333" stroke-miterlimit="10"/>
<path d="M980.153 118.632V123.711V165.732" fill="transparent" stroke="#11559B" stroke-width="1.33333" stroke-miterlimit="10"/>
<path d="M820.815 299.142V341.163" fill="transparent" stroke="#11559B" stroke-width="1.33333" stroke-miterlimit="10"/>
<path d="M844.822 299.142V341.163" fill="transparent" stroke="#11559B" stroke-width="1.33333" stroke-miterlimit="10"/>
<path d="M869.301 299.142V341.163" fill="transparent" stroke="#11559B" stroke-width="1.33333" stroke-miterlimit="10"/>
<path d="M950.903 118.632V123.711V167.647V172.728" fill="transparent" stroke="#11559B" stroke-width="1.33333" stroke-miterlimit="10"/>
<path d="M941.706 110.905H1070.15L1069.89 155.913" fill="transparent" stroke="#11559B" stroke-width="1.33333" stroke-miterlimit="10"/>
<path d="M937.543 119.646H929.075" fill="transparent" stroke="#11559B" stroke-width="1.33333" stroke-miterlimit="10"/>
<path d="M937.543 126.899H929.075" fill="transparent" stroke="#11559B" stroke-width="1.33333" stroke-miterlimit="10"/>
<path d="M937.543 134.151H929.075" fill="transparent" stroke="#11559B" stroke-width="1.33333" stroke-miterlimit="10"/>
<path d="M937.543 141.405H929.075" fill="transparent" stroke="#11559B" stroke-width="1.33333" stroke-miterlimit="10"/>
<path d="M937.543 148.658H929.075" fill="transparent" stroke="#11559B" stroke-width="1.33333" stroke-miterlimit="10"/>
<path d="M937.543 155.911H929.075" fill="transparent" stroke="#11559B" stroke-width="1.33333" stroke-miterlimit="10"/>
<path d="M962.628 119.646H955.217" fill="transparent" stroke="#11559B" stroke-width="1.33333" stroke-miterlimit="10"/>
<path d="M962.628 126.9H955.217" fill="transparent" stroke="#11559B" stroke-width="1.33333" stroke-miterlimit="10"/>
<path d="M962.628 134.152H955.217" fill="transparent" stroke="#11559B" stroke-width="1.33333" stroke-miterlimit="10"/>
<path d="M962.628 141.405H955.217" fill="transparent" stroke="#11559B" stroke-width="1.33333" stroke-miterlimit="10"/>
<path d="M962.628 148.659H955.217" fill="transparent" stroke="#11559B" stroke-width="1.33333" stroke-miterlimit="10"/>
<path d="M962.628 155.912H955.217" fill="transparent" stroke="#11559B" stroke-width="1.33333" stroke-miterlimit="10"/>
<path d="M992.395 119.646H984.984" fill="transparent" stroke="#11559B" stroke-width="1.33333" stroke-miterlimit="10"/>
<path d="M992.395 126.9H984.984" fill="transparent" stroke="#11559B" stroke-width="1.33333" stroke-miterlimit="10"/>
<path d="M992.395 134.152H984.984" fill="transparent" stroke="#11559B" stroke-width="1.33333" stroke-miterlimit="10"/>
<path d="M992.395 141.405H984.984" fill="transparent" stroke="#11559B" stroke-width="1.33333" stroke-miterlimit="10"/>
<path d="M992.395 148.659H984.984" fill="transparent" stroke="#11559B" stroke-width="1.33333" stroke-miterlimit="10"/>
<path d="M992.395 155.912H984.984" fill="transparent" stroke="#11559B" stroke-width="1.33333" stroke-miterlimit="10"/>
<path d="M1022.16 119.646H1014.75" fill="transparent" stroke="#11559B" stroke-width="1.33333" stroke-miterlimit="10"/>
<path d="M1022.16 126.9H1014.75" fill="transparent" stroke="#11559B" stroke-width="1.33333" stroke-miterlimit="10"/>
<path d="M1022.16 134.152H1014.75" fill="transparent" stroke="#11559B" stroke-width="1.33333" stroke-miterlimit="10"/>
<path d="M1022.16 141.405H1014.75" fill="transparent" stroke="#11559B" stroke-width="1.33333" stroke-miterlimit="10"/>
<path d="M1022.16 148.659H1014.75" fill="transparent" stroke="#11559B" stroke-width="1.33333" stroke-miterlimit="10"/>
<path d="M1022.16 155.912H1014.75" fill="transparent" stroke="#11559B" stroke-width="1.33333" stroke-miterlimit="10"/>
<path d="M1051.93 119.646H1044.52" fill="transparent" stroke="#11559B" stroke-width="1.33333" stroke-miterlimit="10"/>
<path d="M1051.93 126.9H1044.52" fill="transparent" stroke="#11559B" stroke-width="1.33333" stroke-miterlimit="10"/>
<path d="M1051.93 134.152H1044.52" fill="transparent" stroke="#11559B" stroke-width="1.33333" stroke-miterlimit="10"/>
<path d="M1051.93 141.405H1044.52" fill="transparent" stroke="#11559B" stroke-width="1.33333" stroke-miterlimit="10"/>
<path d="M1051.93 148.659H1044.52" fill="transparent" stroke="#11559B" stroke-width="1.33333" stroke-miterlimit="10"/>
<path d="M1051.93 155.912H1044.52" fill="transparent" stroke="#11559B" stroke-width="1.33333" stroke-miterlimit="10"/>
<path d="M1028.34 179.346H1018.82" fill="transparent" stroke="#11559B" stroke-width="1.33333" stroke-miterlimit="10"/>
<path d="M1129.27 179.346H1101.02" fill="transparent" stroke="#11559B" stroke-width="1.33333" stroke-miterlimit="10"/>
<path d="M915.256 179.346H986.935" fill="transparent" stroke="#11559B" stroke-width="1.33333" stroke-miterlimit="10"/>
<path d="M941.706 110.904H928.905V159.84" fill="transparent" stroke="#11559B" stroke-width="1.33333" stroke-miterlimit="10"/>
<path d="M984.67 82.6987V104.82V79.5738V66.3348" fill="transparent" stroke="#11559B" stroke-width="1.33333" stroke-miterlimit="10"/>
<path d="M1015.15 82.6987V104.82V79.5738V66.3348" fill="transparent" stroke="#11559B" stroke-width="1.33333" stroke-miterlimit="10"/>
<path d="M1045.64 82.6987V104.82V79.5738V66.3348" fill="transparent" stroke="#11559B" stroke-width="1.33333" stroke-miterlimit="10"/>
<path d="M1076.13 82.6987V104.82V79.5738V66.3348" fill="transparent" stroke="#11559B" stroke-width="1.33333" stroke-miterlimit="10"/>
<path d="M1057.24 321.151C1049.29 321.151 1042.48 320.36 1036.61 314.063C1028.86 305.749 1028.6 285.599 1039.85 275.916C1047.23 269.567 1054.51 268.59 1059.74 267.841" fill="transparent" stroke="#11559B" stroke-width="1.33333" stroke-miterlimit="10"/>
<path d="M1049.54 314.906C1035.66 313.074 1032.34 291.174 1041.53 281.868C1045.35 278.008 1048.89 276.315 1053.46 275.131" fill="transparent" stroke="#11559B" stroke-width="1.33333" stroke-miterlimit="10"/>
<path d="M990.627 269.482C984.889 270.682 978.983 275.426 976.251 279.842C973.351 284.529 972.623 288.851 973.176 294.272C974.163 303.946 980.38 313.185 990.662 314.231" fill="transparent" stroke="#11559B" stroke-width="1.33333" stroke-miterlimit="10"/>
<path d="M993.615 320.887C981.48 320.887 972.501 312.832 969.184 301.823C966.527 292.991 968.074 281.021 973.656 273.676C980.703 264.403 989.091 261.742 999.022 262.57" fill="transparent" stroke="#11559B" stroke-width="1.33333" stroke-miterlimit="10"/>
<path d="M1199.77 350.759V304.462H1196.02V326.964H1193.84C1190.43 326.964 1187.16 325.609 1184.75 323.198C1182.36 320.806 1181 317.565 1180.98 314.18L1180.9 298.579C1180.88 295.144 1182.23 291.846 1184.66 289.418L1188.35 285.727C1190.76 283.316 1194.04 281.962 1197.44 281.962H1198.04C1201.46 281.962 1204.72 283.316 1207.14 285.727L1214.62 293.212L1283.85 292.969L1276.83 284.002L1214.05 283.877L1205.57 277.108C1204.09 275.934 1202.27 275.295 1200.38 275.295H1195.49C1193.46 275.295 1191.51 276.033 1189.99 277.374L1181 285.294L1173.31 278.509C1170.96 276.437 1167.93 275.295 1164.8 275.295H1159.92C1156.79 275.295 1153.76 276.438 1151.41 278.509L1144.29 284.789C1141.52 287.23 1139.94 290.743 1139.94 294.434V310.386C1139.94 313.797 1141.29 317.068 1143.7 319.48L1147.33 323.106C1149.74 325.517 1153.01 326.871 1156.42 326.871H1160.02V300.712H1163.77V345.714" fill="transparent" stroke="#11559B" stroke-width="1.33333" stroke-miterlimit="10"/>
<path d="M1107.9 322.2C1105.3 322.478 1102.62 322.072 1100.22 321.032C1089.59 316.427 1091.62 302.601 1091.68 293.449C1091.71 287.545 1094.87 282.094 1099.71 278.783C1105.41 274.888 1110.72 275.295 1117.32 275.295" fill="transparent" stroke="#11559B" stroke-width="1.33333" stroke-miterlimit="10"/>
<path d="M914.574 305.541C909.391 301.841 907.519 295.17 907.679 286.382C907.891 274.724 910.557 263.304 924.18 261.362" fill="transparent" stroke="#11559B" stroke-width="1.33333" stroke-miterlimit="10"/>
<path d="M925.477 315.153C923.014 315.199 915.803 315.281 910.146 310.714" fill="transparent" stroke="#11559B" stroke-width="1.33333" stroke-miterlimit="10"/>
<path d="M917.938 307.391C916.667 306.906 915.58 306.259 914.574 305.541" fill="transparent" stroke="#11559B" stroke-width="1.33333" stroke-miterlimit="10"/>
<path d="M933.328 345.484V286.122H929.926V321.826H926.947C917.164 321.661 910.381 319.155 905.712 315.375" fill="transparent" stroke="#11559B" stroke-width="1.33333" stroke-miterlimit="10"/>
<path d="M929.14 254.981C921.583 254.881 914.113 256.071 907.668 263.743C902.172 270.286 902.796 281.559 902.699 290.854C902.587 301.348 905.937 307.315 910.145 310.713" fill="transparent" stroke="#11559B" stroke-width="1.33333" stroke-miterlimit="10"/>
<path d="M941.087 248.88C936.383 248.315 932.272 248.391 929.14 248.626C923.237 248.626 914.89 250.345 909.948 253.57C901.347 259.185 896.163 267.541 896.163 283.766V291.355C896.163 299.768 898.151 309.251 905.714 315.375" fill="transparent" stroke="#11559B" stroke-width="1.33333" stroke-miterlimit="10"/>
<path d="M915.256 206.744H987.003" fill="transparent" stroke="#11559B" stroke-width="1.33333" stroke-miterlimit="10"/>
<path d="M915.924 144.745V149.349H919.384" fill="transparent" stroke="#11559B" stroke-width="1.33333" stroke-miterlimit="10"/>
<path d="M839.036 267.975V275.303L825.71 275.28V288.655" fill="transparent" stroke="#11559B" stroke-width="1.33333" stroke-miterlimit="10"/>
<path d="M839.036 248.12V221.436H868.339V203.643L877.328 203.57V192.698" fill="transparent" stroke="#11559B" stroke-width="1.33333" stroke-miterlimit="10"/>
<path d="M915.925 144.746V116.889H909.695V128.354H903.632V131.207" fill="transparent" stroke="#11559B" stroke-width="1.33333" stroke-miterlimit="10"/>
<path d="M922.163 106.539V149.35H919.383" fill="transparent" stroke="#11559B" stroke-width="1.33333" stroke-miterlimit="10"/>
<path d="M1109.18 41.6999H1095.41V46.48H1088.55V38.8272H985.547V46.48H962.688V58.5654" fill="transparent" stroke="#11559B" stroke-width="1.33333" stroke-miterlimit="10"/>
<path d="M903.631 131.206V154.476H897.641V149.361H890.047V159.948L877.328 159.874V192.697" fill="transparent" stroke="#11559B" stroke-width="1.33333" stroke-miterlimit="10"/>
<path d="M839.036 248.12V267.975" fill="transparent" stroke="#11559B" stroke-width="1.33333" stroke-miterlimit="10"/>
<path d="M834.257 224.283V252.173" fill="transparent" stroke="#11559B" stroke-width="1.33333" stroke-miterlimit="10"/>
<path d="M846.665 212.568H834.257V224.284" fill="transparent" stroke="#11559B" stroke-width="1.33333" stroke-miterlimit="10"/>
<path d="M871.636 183.331V154.475H883.926V143.738H897.642V125.813" fill="transparent" stroke="#11559B" stroke-width="1.33333" stroke-miterlimit="10"/>
<path d="M962.896 106.122V67.4911H954.583V95.5001H950.219V84.0353H941.706V110.904" fill="transparent" stroke="#11559B" stroke-width="1.33333" stroke-miterlimit="10"/>
<path d="M909.694 167.108C910.145 161.77 913.356 157.165 918.032 155.231C923.201 153.092 927.951 155.134 928.836 155.534" fill="transparent" stroke="#11559B" stroke-width="1.33333" stroke-miterlimit="10"/>
<path d="M1083.94 153.795C1082.64 151.82 1081.14 151.158 1080.47 150.924C1077.11 149.753 1072.7 151.67 1069.89 155.91C1068.67 155.869 1065.65 155.933 1062.64 157.875C1058.12 160.788 1057.2 165.634 1057.05 166.488" fill="transparent" stroke="#11559B" stroke-width="1.33333" stroke-miterlimit="10"/>
<path d="M1148.55 58.2023H971.323V110.731" fill="transparent" stroke="#11559B" stroke-width="1.33333" stroke-miterlimit="10"/>
<path d="M1115.33 162.684L1167.31 58.4994" fill="transparent" stroke="#11559B" stroke-width="1.33333" stroke-miterlimit="10"/>
<path d="M919.873 206.744C919.88 206.754 919.883 206.764 919.889 206.775" fill="transparent" stroke="#11559B" stroke-width="1.33333" stroke-miterlimit="10"/>
<path d="M940.018 195.613C938.924 193.084 936.8 191.346 934.805 191.42C932.006 191.524 928.939 195.215 929.819 200.033C928.226 198.644 926.129 198.17 924.606 198.9C922.417 199.949 921.309 203.529 923.246 206.606" fill="transparent" stroke="#11559B" stroke-width="1.33333" stroke-miterlimit="10"/>
<path d="M954.324 189.313C954.126 186.204 952.259 184.004 950.67 183.941C948.881 183.869 946.427 186.472 946.696 190.365C946.031 187.373 945.27 185.849 944.41 185.792C943.274 185.717 941.967 188.217 940.491 193.256" fill="transparent" stroke="#11559B" stroke-width="1.33333" stroke-miterlimit="10"/>
<path d="M940.047 194.869C939.197 197.981 938.299 201.842 937.345 206.575" fill="transparent" stroke="#11559B" stroke-width="1.33333" stroke-miterlimit="10"/>
<path d="M940.491 193.256C940.346 193.752 940.195 194.323 940.047 194.869" fill="transparent" stroke="#11559B" stroke-width="1.33333" stroke-miterlimit="10"/>
<path d="M954.324 189.314C953.114 190.903 952.355 193.065 952.504 195.485C950.168 195.364 949.238 196.238 948.972 196.524C947.303 198.323 947.995 202.697 951.675 206.745" fill="transparent" stroke="#11559B" stroke-width="1.33333" stroke-miterlimit="10"/>
<path d="M987.002 206.744C986.695 206.129 984.674 202.231 980.144 201.095C977.262 200.373 974.861 201.145 973.91 201.511C975.388 199.577 975.189 196.87 973.562 195.274C971.774 193.518 968.705 193.542 966.843 195.484C966.799 189.726 961.897 186.035 958.115 186.756C956.686 187.028 955.347 187.967 954.323 189.313" fill="transparent" stroke="#11559B" stroke-width="1.33333" stroke-miterlimit="10"/>
<path d="M943.343 219.619C941.232 219.72 939.326 220.445 937.798 221.572" fill="transparent" stroke="#11559B" stroke-width="1.33333" stroke-miterlimit="10"/>
<path d="M957.201 223.291C955.721 222.465 954.073 222.426 953.182 222.5C953.413 218.611 950.548 215.811 947.95 215.936C946.151 216.022 944.434 217.511 943.623 219.591C943.527 219.593 943.439 219.614 943.343 219.62" fill="transparent" stroke="#11559B" stroke-width="1.33333" stroke-miterlimit="10"/>
<path d="M958.47 224.284C958.304 224.101 958.151 223.904 957.961 223.748C957.721 223.549 957.456 223.435 957.201 223.291" fill="transparent" stroke="#11559B" stroke-width="1.33333" stroke-miterlimit="10"/>
<path d="M958.47 224.283C960.592 226.608 960.87 231.019 958.401 235.091" fill="transparent" stroke="#11559B" stroke-width="1.33333" stroke-miterlimit="10"/>
<path d="M920.526 235.548C923.354 218.128 925.868 209.457 928.062 209.536C929.348 209.583 930.525 212.631 931.594 218.681C932.256 215.692 933.017 214.169 933.881 214.109C935.804 213.977 938.227 221.119 941.151 235.537" fill="transparent" stroke="#11559B" stroke-width="1.33333" stroke-miterlimit="10"/>
<path d="M957.963 223.748C960.214 219.025 965.147 216.542 969.558 217.562C974.381 218.676 976.334 223.459 976.51 223.907C982.289 217.693 991.277 216.198 997.966 219.979C1003.19 222.934 1006.39 228.756 1006.43 235.09" fill="transparent" stroke="#11559B" stroke-width="1.33333" stroke-miterlimit="10"/>
<path d="M912.593 167.395C912.303 164.845 914.26 162.637 916.597 162.56C918.714 162.489 920.678 164.184 920.904 166.488C922.901 160.838 928.595 158.415 932.16 159.84C935.994 161.372 938.492 167.806 935.107 173.438C935.627 172.821 937.954 170.197 941.831 169.813C947.408 169.26 950.936 173.865 951.125 174.119C952.588 171.665 954.232 170.823 955.129 170.492C959.632 168.83 966.279 172.321 970.663 179.791" fill="transparent" stroke="#11559B" stroke-width="1.33333" stroke-miterlimit="10"/>
<path d="M871.636 197.959V183.33" fill="transparent" stroke="#11559B" stroke-width="1.33333" stroke-miterlimit="10"/>
<path d="M862.521 209.614V198.563H871.636V197.959" fill="transparent" stroke="#11559B" stroke-width="1.33333" stroke-miterlimit="10"/>
<path d="M860.881 212.568H862.522V209.615" fill="transparent" stroke="#11559B" stroke-width="1.33333" stroke-miterlimit="10"/>
<path d="M846.665 212.568H860.88" fill="transparent" stroke="#11559B" stroke-width="1.33333" stroke-miterlimit="10"/>
<path d="M834.258 252.173V266.558H816.802V288.655" fill="transparent" stroke="#11559B" stroke-width="1.33333" stroke-miterlimit="10"/>
<path d="M1130.52 95.7721L1149.15 58.2107H1186.56C1186.56 58.2107 1119.04 202.267 1104.01 234.868V235.454L915.257 235.551" fill="transparent" stroke="#11559B" stroke-width="1.33333" stroke-miterlimit="10"/>
<path d="M1254.56 153.802L1272.52 156.364L1300.07 149.943" fill="transparent" stroke="#11559B" stroke-width="1.33333" stroke-miterlimit="10"/>
<path d="M1286.47 181.221L1243.7 172.928L1237.19 176.067" fill="transparent" stroke="#11559B" stroke-width="1.33333" stroke-miterlimit="10"/>
<path d="M1134.27 168.91H1168.89L1181.4 159.606L1187.91 159.142L1193.07 154.955L1206.26 160.071L1215.13 156.326" fill="transparent" stroke="#11559B" stroke-width="1.33333" stroke-miterlimit="10"/>
<path d="M1250.7 161.952L1267.93 164.58L1292.69 164.221" fill="transparent" stroke="#11559B" stroke-width="1.33333" stroke-miterlimit="10"/>
<path d="M1130.19 179.209H1168.89L1174.13 176.067L1183.73 170.28L1190.46 169.872L1196.08 166.209L1209.88 170.686L1217.98 167.837L1227.61 170.34" fill="transparent" stroke="#11559B" stroke-width="1.33333" stroke-miterlimit="10"/>
<path d="M1237.19 176.066L1228.51 180.256L1221.99 178.861L1213.51 181.302L1199.08 177.464L1193.01 180.605L1186.05 180.954L1171.56 187.932L1168.89 189.508H1125.2" fill="transparent" stroke="#11559B" stroke-width="1.33333" stroke-miterlimit="10"/>
<path d="M1300.07 149.942H1440" fill="transparent" stroke="#11559B" stroke-width="1.33333" stroke-miterlimit="10"/>
<path d="M1292.69 164.222H1440" fill="transparent" stroke="#11559B" stroke-width="1.33333" stroke-miterlimit="10"/>
<path d="M1286.47 181.221H1440" fill="transparent" stroke="#11559B" stroke-width="1.33333" stroke-miterlimit="10"/>
<path d="M1440 215.22H1300.52H1300.07L1289.18 209.134L1275.04 217.683L1268.77 216.054L1260.67 218.904L1246.87 214.427L1241.25 218.09L1234.52 218.497L1217.8 228.58" fill="transparent" stroke="#11559B" stroke-width="1.33333" stroke-miterlimit="10"/>
<path d="M1440 232.218H1300.07L1267.92 240.133L1252.88 236.937L1246.35 239.553L1239.17 239.843L1223.68 245.659L1211.75 246.531L1202.97 248.626H1193.25L1181.55 253.628L1169.85 248.626H1156.86L1141.25 255.294L1125.64 248.626H1106.13L1090.53 255.294L1078.68 250.238C1076.19 249.175 1073.51 248.626 1070.8 248.626H1056.24C1053.53 248.626 1050.86 249.174 1048.36 250.234C1043.1 252.476 1037.84 254.719 1032.58 256.961C1026.15 253.652 1006.7 244.741 984.163 250.833C977.017 252.765 971.215 255.758 966.793 258.628C964.037 256.711 960.689 254.743 956.731 253.05C951.175 250.675 945.83 249.452 941.086 248.881" fill="transparent" stroke="#11559B" stroke-width="1.33333" stroke-miterlimit="10"/>
<path d="M1440 249.217H1299.71L1280.8 249.122L1271.55 250.751L1255.88 248.19L1248.91 250.285L1241.49 250.518L1225.01 255.169L1212.33 255.868L1203.05 255.293H1193.03L1181.42 261.544L1169.8 255.293H1156.41L1140.93 263.628L1127.52 256.418C1126.15 255.681 1124.62 255.293 1123.06 255.293H1107.7C1106.14 255.293 1104.61 255.681 1103.23 256.419L1089.84 263.628L1080.84 258.791C1076.58 256.495 1071.81 255.293 1066.96 255.293H1058.25C1053.41 255.293 1048.65 256.493 1044.38 258.783L1031.48 265.71L1019.3 259.175C1014.55 256.627 1009.25 255.293 1003.87 255.293H997.146C991.546 255.293 986.038 256.736 981.155 259.48L980.467 259.866C970.305 265.579 963.962 276.277 963.829 287.933L963.761 293.9C963.704 298.898 964.81 303.891 966.976 308.398C969.704 314.077 972.028 317.988 977.255 321.646C982.852 325.564 989.662 326.901 996.391 326.901H997.452V289H1000.59V345.71" fill="transparent" stroke="#11559B" stroke-width="1.33333" stroke-miterlimit="10"/>
<path d="M1440 266.216H1300.07L1275.17 261.366L1258.88 259.447L1251.46 261.016L1243.82 261.191L1226.35 264.68L1212.9 265.203L1203.13 261.96H1192.8L1181.28 269.461L1171.44 263.06C1170.34 262.344 1169.05 261.96 1167.74 261.96H1157.97C1156.66 261.96 1155.37 262.344 1154.27 263.06L1140.6 271.962L1129.09 264.476C1126.57 262.835 1123.62 261.96 1120.61 261.96H1109.13C1106.12 261.96 1103.17 262.835 1100.65 264.479L1089.16 271.962L1080.8 266.529C1076.22 263.547 1070.87 261.96 1065.4 261.96H1058.55C1052.74 261.96 1047.07 263.755 1042.31 267.099L1039.87 268.816C1026.03 278.545 1022.65 298.924 1030.57 313.658C1035.58 322.982 1043.56 327.207 1054.25 327.207L1060.99 327.112V293.212H1064.74V345.713" fill="transparent" stroke="#11559B" stroke-width="1.33333" stroke-miterlimit="10"/>
<path d="M1440 283.215H1300.07L1261.88 270.701L1254.01 271.748L1246.14 271.864L1227.68 274.191L1213.47 274.539L1205.65 270.031C1204.05 269.111 1202.24 268.628 1200.4 268.628H1196.13C1193.82 268.628 1191.58 269.388 1189.75 270.791L1181.14 277.378L1173.11 271.234C1170.9 269.544 1168.2 268.628 1165.41 268.628H1159.8C1157.02 268.628 1154.31 269.544 1152.1 271.237L1140.27 280.294L1130.04 272.47C1126.78 269.977 1122.79 268.628 1118.69 268.628H1110.32C1106.04 268.628 1101.9 270.096 1098.57 272.786L1094.16 276.358C1089.79 279.902 1087.24 285.233 1087.24 290.865V307.982C1087.24 312.93 1089.21 317.679 1092.71 321.179L1093.03 321.496C1096.53 324.996 1101.28 326.964 1106.23 326.964H1113.5V296.961H1117.25V345.713" fill="transparent" stroke="#11559B" stroke-width="1.33333" stroke-miterlimit="10"/>
<path d="M1440 317.138H1205.51" fill="transparent" stroke="#11559B" stroke-width="1.33333" stroke-miterlimit="10"/>
<path d="M1440 334.062H1205.51" fill="transparent" stroke="#11559B" stroke-width="1.33333" stroke-miterlimit="10"/>
<path d="M1440 350.985H708.601" fill="transparent" stroke="#11559B" stroke-width="1.33333" stroke-miterlimit="10"/>
<path d="M1168.28 134.142L1151.71 169.118" fill="transparent" stroke="#11559B" stroke-width="1.33333" stroke-miterlimit="10"/>
<path d="M1187.4 134.142L1172.35 165.907" fill="transparent" stroke="#11559B" stroke-width="1.33333" stroke-miterlimit="10"/>
<path d="M1206.52 134.141L1196.15 156.034" fill="transparent" stroke="#11559B" stroke-width="1.33333" stroke-miterlimit="10"/>
<path d="M1322.22 102.345H1440" fill="transparent" stroke="#11559B" stroke-width="1.33333" stroke-miterlimit="10"/>
<path d="M1165.8 102.345H1297.01" fill="transparent" stroke="#11559B" stroke-width="1.33333" stroke-miterlimit="10"/>
<path d="M1223.42 179.168L1252.5 117.71H1290.48L1271.64 156.793" fill="transparent" stroke="#11559B" stroke-width="1.33333" stroke-miterlimit="10"/>
<path d="M1330.36 84.8488L1300.07 149.942" fill="transparent" stroke="#11559B" stroke-width="1.33333" stroke-miterlimit="10"/>
<path d="M1174.09 85.7988H1330.36" fill="transparent" stroke="#11559B" stroke-width="1.33333" stroke-miterlimit="10"/>
<path d="M1440 85.7988H1330.59" fill="transparent" stroke="#11559B" stroke-width="1.33333" stroke-miterlimit="10"/>
<path d="M1440 118.664H1314.85" fill="transparent" stroke="#11559B" stroke-width="1.33333" stroke-miterlimit="10"/>
<path d="M1158.77 117.71H1233.52L1208.47 170.368" fill="transparent" stroke="#11559B" stroke-width="1.33333" stroke-miterlimit="10"/>
<path d="M1245.3 173.341L1263.88 134.141H1282.27" fill="transparent" stroke="#11559B" stroke-width="1.33333" stroke-miterlimit="10"/>
<path d="M1440 134.142H1307.43" fill="transparent" stroke="#11559B" stroke-width="1.33333" stroke-miterlimit="10"/>
<path d="M1150.89 134.142H1225.64" fill="transparent" stroke="#11559B" stroke-width="1.33333" stroke-miterlimit="10"/>
<path d="M805.214 334.05H708.536" fill="transparent" stroke="#11559B" stroke-width="1.33333" stroke-miterlimit="10"/>
<path d="M804.284 317.127H699.888" fill="transparent" stroke="#11559B" stroke-width="1.33333" stroke-miterlimit="10"/>
<path d="M866.765 248.041V288.202" fill="transparent" stroke="#11559B" stroke-width="1.33333" stroke-miterlimit="10"/>
<path d="M849.993 248.041V288.202" fill="transparent" stroke="#11559B" stroke-width="1.33333" stroke-miterlimit="10"/>
<path d="M883.567 248.041V255.842V285.775V290.854" fill="transparent" stroke="#11559B" stroke-width="1.33333" stroke-miterlimit="10"/>
<path d="M989.377 67.4917H1003.53" fill="transparent" stroke="#11559B" stroke-width="1.33333" stroke-miterlimit="10"/>
<path d="M989.377 75.6514H1003.53" fill="transparent" stroke="#11559B" stroke-width="1.33333" stroke-miterlimit="10"/>
<path d="M989.377 83.8115H1003.53" fill="transparent" stroke="#11559B" stroke-width="1.33333" stroke-miterlimit="10"/>
<path d="M989.377 91.9707H1003.53" fill="transparent" stroke="#11559B" stroke-width="1.33333" stroke-miterlimit="10"/>
<path d="M989.377 100.13H1003.53" fill="transparent" stroke="#11559B" stroke-width="1.33333" stroke-miterlimit="10"/>
<path d="M1019.41 67.4917H1033.56" fill="transparent" stroke="#11559B" stroke-width="1.33333" stroke-miterlimit="10"/>
<path d="M1019.41 75.6514H1033.56" fill="transparent" stroke="#11559B" stroke-width="1.33333" stroke-miterlimit="10"/>
<path d="M1019.41 83.8115H1033.56" fill="transparent" stroke="#11559B" stroke-width="1.33333" stroke-miterlimit="10"/>
<path d="M1019.41 91.9707H1033.56" fill="transparent" stroke="#11559B" stroke-width="1.33333" stroke-miterlimit="10"/>
<path d="M1019.41 100.13H1033.56" fill="transparent" stroke="#11559B" stroke-width="1.33333" stroke-miterlimit="10"/>
<path d="M1049.44 67.4917H1063.6" fill="transparent" stroke="#11559B" stroke-width="1.33333" stroke-miterlimit="10"/>
<path d="M1049.44 75.6514H1063.6" fill="transparent" stroke="#11559B" stroke-width="1.33333" stroke-miterlimit="10"/>
<path d="M1049.44 83.8115H1063.6" fill="transparent" stroke="#11559B" stroke-width="1.33333" stroke-miterlimit="10"/>
<path d="M1049.44 91.9707H1063.6" fill="transparent" stroke="#11559B" stroke-width="1.33333" stroke-miterlimit="10"/>
<path d="M1049.44 100.13H1063.6" fill="transparent" stroke="#11559B" stroke-width="1.33333" stroke-miterlimit="10"/>
<path d="M1079.47 67.4917H1093.63" fill="transparent" stroke="#11559B" stroke-width="1.33333" stroke-miterlimit="10"/>
<path d="M1079.47 75.6514H1093.63" fill="transparent" stroke="#11559B" stroke-width="1.33333" stroke-miterlimit="10"/>
<path d="M1079.47 83.8115H1093.63" fill="transparent" stroke="#11559B" stroke-width="1.33333" stroke-miterlimit="10"/>
<path d="M1079.47 91.9707H1093.63" fill="transparent" stroke="#11559B" stroke-width="1.33333" stroke-miterlimit="10"/>
<path d="M1079.47 100.13H1093.63" fill="transparent" stroke="#11559B" stroke-width="1.33333" stroke-miterlimit="10"/>
<path d="M1108.12 102.648V66.3342" fill="transparent" stroke="#11559B" stroke-width="1.33333" stroke-miterlimit="10"/>
<path d="M1111.47 67.4917H1136.5" fill="transparent" stroke="#11559B" stroke-width="1.33333" stroke-miterlimit="10"/>
<path d="M1111.47 75.6514H1131.06" fill="transparent" stroke="#11559B" stroke-width="1.33333" stroke-miterlimit="10"/>
<path d="M1111.47 83.8115H1128.34" fill="transparent" stroke="#11559B" stroke-width="1.33333" stroke-miterlimit="10"/>
<path d="M1111.47 91.9707H1125.62" fill="transparent" stroke="#11559B" stroke-width="1.33333" stroke-miterlimit="10"/>
<path d="M1440 198.221H1300.29L1265.91 188.429L1249.02 184.941L1232.77 191.046L1226 189.883L1217.13 191.918L1202.08 188.72L1195.56 191.338L1188.37 191.627L1172.89 197.443L1168.89 199.809H1120.28" fill="transparent" stroke="#11559B" stroke-width="1.33333" stroke-miterlimit="10"/>
<path d="M1138.62 199.608L1116.5 248.288" fill="transparent" stroke="#11559B" stroke-width="1.33333" stroke-miterlimit="10"/>
<path d="M1157.75 199.168L1134.04 251.332" fill="transparent" stroke="#11559B" stroke-width="1.33333" stroke-miterlimit="10"/>
<path d="M1177.88 195.649L1153.22 249.896" fill="transparent" stroke="#11559B" stroke-width="1.33333" stroke-miterlimit="10"/>
<path d="M1199.02 189.888L1172.27 248.735" fill="transparent" stroke="#11559B" stroke-width="1.33333" stroke-miterlimit="10"/>
<path d="M1217.13 190.788L1190.22 249.999" fill="transparent" stroke="#11559B" stroke-width="1.33333" stroke-miterlimit="10"/>
<path d="M1236.17 189.66L1210.25 246.673" fill="transparent" stroke="#11559B" stroke-width="1.33333" stroke-miterlimit="10"/>
<path d="M897.64 125.528V122.257H903.63V110.62H915.923V102.22H928.48V72.2863H945.125V53.2039V46.4041H957.285V35.3899H966.793V39.735H979.482V35.3899V27.4928H1109.18V34.7655H1114.74V49.7589H1208.2L1190.97 86.2595" fill="transparent" stroke="#11559B" stroke-width="1.33333" stroke-miterlimit="10"/>
<path d="M817.172 60.4479C835.797 69.8383 854.735 66.9877 854.735 66.9877C856.666 66.9877 858.229 65.4227 858.229 63.4931C858.229 61.5623 856.666 59.9985 854.735 59.9985H847.29V22.1367C847.29 22.1367 826.562 32.2756 832.823 60.4479H829.779C829.779 60.4479 817.032 60.3774 817.172 60.4479Z" fill="transparent" stroke="#11559B" stroke-width="1.33333" stroke-miterlimit="10"/>
<path d="M858.181 63.5776H863.127" fill="transparent" stroke="#11559B" stroke-width="1.33333" stroke-miterlimit="10"/>
<path d="M851.605 22.8843V57.3169" fill="transparent" stroke="#11559B" stroke-width="1.33333" stroke-miterlimit="10"/>
<path d="M825.776 30.2109H748.532" fill="transparent" stroke="#11559B" stroke-width="1.33333" stroke-miterlimit="10"/>
<path d="M817.442 44.7651H761.958" fill="transparent" stroke="#11559B" stroke-width="1.33333" stroke-miterlimit="10"/>
<path d="M1069.01 133.99H1129.29" fill="transparent" stroke="#11559B" stroke-width="1.33333" stroke-miterlimit="10"/>
<path d="M1069.76 117.368H1085.43" fill="transparent" stroke="#11559B" stroke-width="1.33333" stroke-miterlimit="10"/>
</svg>
