<svg width="1355" height="878" viewBox="0 0 1355 878" fill="none" xmlns="http://www.w3.org/2000/svg">
<mask id="mask0_202_5" style="mask-type:luminance" maskUnits="userSpaceOnUse" x="-1" y="0" width="1356" height="878">
<path d="M1355 878H-0.129639V0H1355V878Z" fill="white"/>
</mask>
<g mask="url(#mask0_202_5)">
<path d="M162.65 393.804C163.736 427.315 164.823 460.826 165.909 494.336C166.248 504.835 166.589 515.333 166.929 525.832" fill="transparent" stroke="#11559B" stroke-width="1.33333" stroke-miterlimit="10"/>
<path d="M137.409 495.647L143.803 371.895" fill="transparent" stroke="#11559B" stroke-width="1.33333" stroke-miterlimit="10"/>
<path d="M164.177 357.716C165.597 355.71 170.788 348.102 176.302 339.92C183.617 329.098 191.484 317.302 191.961 316.173C192.608 314.663 193.288 313.085 193.99 311.415C198.181 301.572 203.186 289.202 208.099 276.829C213.122 264.157 218.048 251.498 221.873 241.618C226.246 230.32 229.171 222.617 229.171 222.617C229.807 220.989 229.092 219.827 227.744 219.118L227.599 219.026C225.657 217.974 224.411 219.023 223.9 219.972L216.792 232.98L200.189 263.357L183.593 293.716L166.993 324.092L152.21 351.122" fill="transparent" stroke="#11559B" stroke-width="1.33333" stroke-miterlimit="10"/>
<path d="M163.985 364.113L238.903 492.502C239.443 493.447 239.708 495.071 237.843 496.274L237.71 496.355C236.438 497.205 235.091 497.267 234.019 495.881C234.019 495.881 233.332 494.993 232.066 493.403C223.624 482.606 189.781 439.199 173.332 416.116C172.453 414.872 163.49 395.728 157.391 382.523C157.382 382.483 157.353 382.455 157.344 382.415C156.349 380.239 155.422 378.254 154.639 376.515C153.372 373.769 152.429 371.685 151.995 370.689" fill="transparent" stroke="#11559B" stroke-width="1.33333" stroke-miterlimit="10"/>
<path d="M147.087 367.135L147.257 367.313L140.751 367.395L123.673 367.621L89.4845 368.046L55.2916 368.49L21.117 368.938L1.19923 369.194C0.144839 369.216 -1.36625 368.64 -1.43955 366.37L-1.45647 366.212C-1.51286 364.659 -0.881357 363.433 0.808764 363.19C0.808764 363.19 6.92929 362.222 16.33 360.798C24.8708 359.502 36.1505 357.823 48.0039 356.099C58.669 354.553 69.8021 353.011 79.8681 351.699C86.6822 350.811 92.9958 350.046 98.3678 349.466C99.1572 349.377 105.609 349.841 113.596 350.463C123.049 351.227 134.661 352.209 141.668 352.853C144.366 353.095 146.912 353.413 147.879 353.524" fill="transparent" stroke="#11559B" stroke-width="1.33333" stroke-miterlimit="10"/>
<path d="M154.64 376.516C149.165 376.512 144.175 373.496 141.474 368.828C141.213 368.357 140.97 367.892 140.751 367.395M140.751 367.395C140.775 367.457 140.706 367.345 140.751 367.395Z" fill="transparent" stroke="#11559B" stroke-width="1.33333" stroke-miterlimit="10"/>
<path d="M151.806 362.677C152.685 364.169 154.496 364.743 156.03 364.056C156.189 364.021 156.338 363.942 156.493 363.845C158.102 362.851 158.604 360.689 157.634 359.038C156.644 357.383 154.555 356.872 152.945 357.869C152.814 357.95 152.678 358.05 152.576 358.16C151.264 359.25 150.897 361.158 151.806 362.677ZM147.771 353.824C148.22 353.362 148.718 352.929 149.279 352.551C149.392 352.466 149.507 352.379 149.64 352.296C150.459 351.773 151.337 351.401 152.218 351.162C156.29 350.06 160.753 351.77 163.045 355.64C163.463 356.324 163.777 357.038 163.995 357.767C164.672 359.863 164.624 362.083 163.95 364.103C163.244 366.252 161.832 368.144 159.8 369.418C159.647 369.514 159.492 369.609 159.328 369.663C157.009 370.962 154.406 371.185 152.042 370.49C150.201 369.964 148.529 368.885 147.258 367.314C146.935 366.943 146.642 366.523 146.377 366.071C143.987 362.06 144.677 357.02 147.771 353.824Z" fill="transparent" stroke="#11559B" stroke-width="1.33333" stroke-miterlimit="10"/>
<path d="M155.225 345.288C154.496 345.275 153.171 345.191 152.434 345.291C150.218 345.614 148.146 346.436 146.38 347.622C144.484 348.873 142.885 350.526 141.707 352.458" fill="transparent" stroke="#11559B" stroke-width="1.33333" stroke-miterlimit="10"/>
<path d="M167.459 369.237C169.171 366.261 170.307 362.234 169.777 358.547C169.498 356.594 168.879 354.778 167.993 353.152" fill="transparent" stroke="#11559B" stroke-width="1.33333" stroke-miterlimit="10"/>
<path d="M479.846 817H572.173L607.65 795.436V752.297L572.173 730.733L367.819 730.787" fill="transparent" stroke="#11559B" stroke-width="1.33333" stroke-miterlimit="10"/>
<path d="M372.973 736.697L565.892 736.689" fill="transparent" stroke="#11559B" stroke-width="1.33333" stroke-miterlimit="10"/>
<path d="M446.513 812.042H565.945" fill="transparent" stroke="#11559B" stroke-width="1.33333" stroke-miterlimit="10"/>
<path d="M377.735 741.663L557.571 741.655" fill="transparent" stroke="#11559B" stroke-width="1.33333" stroke-miterlimit="10"/>
<path d="M441.715 807.032H557.509" fill="transparent" stroke="#11559B" stroke-width="1.33333" stroke-miterlimit="10"/>
<path d="M382.701 746.628H549.038" fill="transparent" stroke="#11559B" stroke-width="1.33333" stroke-miterlimit="10"/>
<path d="M436.819 802.022H549.02" fill="transparent" stroke="#11559B" stroke-width="1.33333" stroke-miterlimit="10"/>
<path d="M389.816 754.09H535.045" fill="transparent" stroke="#11559B" stroke-width="1.33333" stroke-miterlimit="10"/>
<path d="M429.289 794.506H535.045" fill="transparent" stroke="#11559B" stroke-width="1.33333" stroke-miterlimit="10"/>
<path d="M570.108 814.541L604.089 794.462V754.302L570.108 734.223" fill="transparent" stroke="#11559B" stroke-width="1.33333" stroke-miterlimit="10"/>
<path d="M565.935 812.021L570.106 814.478" fill="transparent" stroke="#11559B" stroke-width="1.33333" stroke-miterlimit="10"/>
<path d="M557.504 807.03L561.72 809.525" fill="transparent" stroke="#11559B" stroke-width="1.33333" stroke-miterlimit="10"/>
<path d="M549.011 802.012L553.245 804.514" fill="transparent" stroke="#11559B" stroke-width="1.33333" stroke-miterlimit="10"/>
<path d="M535.045 754.09V794.28" fill="transparent" stroke="#11559B" stroke-width="1.33333" stroke-miterlimit="10"/>
<path d="M421.597 786.534H482.159V761.455H397.208" fill="transparent" stroke="#11559B" stroke-width="1.33333" stroke-miterlimit="10"/>
<path d="M489.88 786.533H528.706V761.452H489.88V786.533Z" fill="transparent" stroke="#11559B" stroke-width="1.33333" stroke-miterlimit="10"/>
<path d="M555.582 753.471C557.323 753.47 558.735 754.912 558.738 756.696C558.739 758.477 557.33 759.924 555.588 759.927C553.848 759.928 552.434 758.484 552.431 756.702C552.43 754.919 553.841 753.473 555.582 753.471Z" fill="transparent" stroke="#11559B" stroke-width="1.33333" stroke-miterlimit="10"/>
<path d="M562.763 749.23C564.505 749.228 565.916 750.67 565.919 752.454C565.92 754.236 564.511 755.682 562.768 755.685C561.029 755.686 559.615 754.243 559.612 752.46C559.611 750.678 561.022 749.231 562.763 749.23Z" fill="transparent" stroke="#11559B" stroke-width="1.33333" stroke-miterlimit="10"/>
<path d="M577.196 783.863C578.937 783.861 580.349 785.303 580.352 787.088C580.354 788.869 578.944 790.315 577.202 790.318C575.462 790.319 574.048 788.876 574.046 787.093C574.044 785.311 575.455 783.864 577.196 783.863Z" fill="transparent" stroke="#11559B" stroke-width="1.33333" stroke-miterlimit="10"/>
<path d="M584.376 770.767C586.117 770.765 587.53 772.207 587.532 773.991C587.534 775.773 586.124 777.219 584.382 777.222C582.642 777.223 581.229 775.78 581.226 773.997C581.224 772.214 582.634 770.768 584.376 770.767Z" fill="transparent" stroke="#11559B" stroke-width="1.33333" stroke-miterlimit="10"/>
<path d="M560.036 785.475C560.908 783.932 562.835 783.405 564.343 784.295C565.85 785.187 566.368 787.161 565.497 788.705C564.625 790.247 562.697 790.776 561.187 789.884C559.68 788.992 559.163 787.018 560.036 785.475Z" fill="transparent" stroke="#11559B" stroke-width="1.33333" stroke-miterlimit="10"/>
<path d="M560.036 759.837C560.908 758.294 562.835 757.767 564.343 758.657C565.85 759.549 566.368 761.523 565.497 763.067C564.625 764.609 562.697 765.138 561.187 764.246C559.68 763.354 559.163 761.38 560.036 759.837Z" fill="transparent" stroke="#11559B" stroke-width="1.33333" stroke-miterlimit="10"/>
<path d="M574.469 759.837C575.342 758.294 577.269 757.767 578.777 758.657C580.284 759.549 580.801 761.523 579.93 763.067C579.059 764.609 577.131 765.138 575.622 764.246C574.114 763.354 573.597 761.38 574.469 759.837Z" fill="transparent" stroke="#11559B" stroke-width="1.33333" stroke-miterlimit="10"/>
<path d="M552.855 772.379C553.728 770.836 555.655 770.309 557.163 771.199C558.67 772.091 559.187 774.065 558.316 775.61C557.445 777.151 555.516 777.68 554.007 776.788C552.5 775.896 551.982 773.922 552.855 772.379Z" fill="transparent" stroke="#11559B" stroke-width="1.33333" stroke-miterlimit="10"/>
<path d="M582.378 756.612C583.251 755.069 585.178 754.541 586.686 755.432C588.193 756.324 588.71 758.298 587.839 759.842C586.968 761.384 585.04 761.913 583.531 761.021C582.023 760.129 581.506 758.155 582.378 756.612Z" fill="transparent" stroke="#11559B" stroke-width="1.33333" stroke-miterlimit="10"/>
<path d="M588.94 768.475C589.813 766.932 591.74 766.404 593.248 767.295C594.755 768.187 595.272 770.16 594.401 771.705C593.53 773.247 591.602 773.776 590.093 772.884C588.585 771.992 588.068 770.018 588.94 768.475Z" fill="transparent" stroke="#11559B" stroke-width="1.33333" stroke-miterlimit="10"/>
<path d="M588.94 776.941C589.813 775.398 591.74 774.871 593.248 775.761C594.755 776.653 595.272 778.627 594.401 780.172C593.53 781.713 591.602 782.242 590.093 781.35C588.585 780.458 588.068 778.485 588.94 776.941Z" fill="transparent" stroke="#11559B" stroke-width="1.33333" stroke-miterlimit="10"/>
<path d="M581.649 789.742C582.521 788.198 584.448 787.671 585.957 788.562C587.463 789.454 587.981 791.427 587.11 792.972C586.239 794.514 584.31 795.042 582.801 794.15C581.294 793.258 580.776 791.285 581.649 789.742Z" fill="transparent" stroke="#11559B" stroke-width="1.33333" stroke-miterlimit="10"/>
<path d="M574.469 794.162C575.342 792.619 577.269 792.092 578.777 792.984C580.284 793.874 580.801 795.848 579.93 797.393C579.059 798.934 577.131 799.463 575.622 798.571C574.114 797.679 573.597 795.705 574.469 794.162Z" fill="transparent" stroke="#11559B" stroke-width="1.33333" stroke-miterlimit="10"/>
<path d="M581.48 798.386C582.353 796.843 584.28 796.316 585.788 797.206C587.295 798.098 587.812 800.072 586.941 801.616C586.07 803.158 584.142 803.687 582.632 802.795C581.125 801.903 580.608 799.929 581.48 798.386Z" fill="transparent" stroke="#11559B" stroke-width="1.33333" stroke-miterlimit="10"/>
<path d="M588.94 794.162C589.813 792.619 591.74 792.092 593.248 792.984C594.755 793.874 595.272 795.848 594.401 797.393C593.53 798.934 591.602 799.463 590.093 798.571C588.585 797.679 588.068 795.705 588.94 794.162Z" fill="transparent" stroke="#11559B" stroke-width="1.33333" stroke-miterlimit="10"/>
<path d="M560.036 802.19C560.908 800.646 562.835 800.119 564.343 801.01C565.85 801.902 566.368 803.875 565.497 805.42C564.625 806.962 562.697 807.49 561.187 806.598C559.68 805.706 559.163 803.733 560.036 802.19Z" fill="transparent" stroke="#11559B" stroke-width="1.33333" stroke-miterlimit="10"/>
<path d="M552.855 797.888C553.728 796.345 555.655 795.818 557.163 796.708C558.67 797.6 559.187 799.574 558.316 801.119C557.445 802.66 555.516 803.189 554.007 802.297C552.5 801.405 551.982 799.432 552.855 797.888Z" fill="transparent" stroke="#11559B" stroke-width="1.33333" stroke-miterlimit="10"/>
<path d="M545.75 793.42C546.623 791.876 548.55 791.349 550.058 792.24C551.565 793.132 552.082 795.105 551.211 796.65C550.34 798.192 548.412 798.72 546.903 797.828C545.395 796.936 544.878 794.963 545.75 793.42Z" fill="transparent" stroke="#11559B" stroke-width="1.33333" stroke-miterlimit="10"/>
<path d="M596.158 781.075C597.03 779.532 598.957 779.004 600.465 779.895C601.972 780.787 602.489 782.761 601.618 784.305C600.747 785.847 598.819 786.376 597.309 785.484C595.802 784.592 595.285 782.618 596.158 781.075Z" fill="transparent" stroke="#11559B" stroke-width="1.33333" stroke-miterlimit="10"/>
<path d="M596.158 772.379C597.03 770.836 598.957 770.309 600.465 771.199C601.972 772.091 602.489 774.065 601.618 775.61C600.747 777.151 598.819 777.68 597.309 776.788C595.802 775.896 595.285 773.922 596.158 772.379Z" fill="transparent" stroke="#11559B" stroke-width="1.33333" stroke-miterlimit="10"/>
<path d="M596.158 764.141C597.03 762.598 598.957 762.071 600.465 762.961C601.972 763.853 602.489 765.827 601.618 767.372C600.747 768.913 598.819 769.442 597.309 768.55C595.802 767.658 595.285 765.684 596.158 764.141Z" fill="transparent" stroke="#11559B" stroke-width="1.33333" stroke-miterlimit="10"/>
<path d="M574.398 802.607C575.27 801.064 577.197 800.537 578.706 801.427C580.212 802.319 580.73 804.293 579.859 805.838C578.987 807.379 577.059 807.908 575.551 807.016C574.043 806.124 573.525 804.151 574.398 802.607Z" fill="transparent" stroke="#11559B" stroke-width="1.33333" stroke-miterlimit="10"/>
<path d="M560.036 793.42C560.908 791.876 562.835 791.349 564.343 792.24C565.85 793.132 566.368 795.105 565.497 796.65C564.625 798.192 562.697 798.72 561.187 797.828C559.68 796.936 559.163 794.963 560.036 793.42Z" fill="transparent" stroke="#11559B" stroke-width="1.33333" stroke-miterlimit="10"/>
<path d="M552.93 789.352C553.802 787.809 555.729 787.281 557.238 788.172C558.745 789.064 559.262 791.038 558.391 792.582C557.52 794.124 555.591 794.653 554.082 793.761C552.575 792.869 552.057 790.895 552.93 789.352Z" fill="transparent" stroke="#11559B" stroke-width="1.33333" stroke-miterlimit="10"/>
<path d="M545.638 776.642C546.51 775.099 548.437 774.572 549.945 775.462C551.452 776.354 551.97 778.328 551.098 779.872C550.227 781.414 548.299 781.943 546.791 781.051C545.282 780.159 544.765 778.185 545.638 776.642Z" fill="transparent" stroke="#11559B" stroke-width="1.33333" stroke-miterlimit="10"/>
<path d="M545.638 768.408C546.51 766.864 548.437 766.337 549.945 767.228C551.452 768.12 551.97 770.093 551.098 771.638C550.227 773.18 548.299 773.708 546.791 772.816C545.282 771.924 544.765 769.951 545.638 768.408Z" fill="transparent" stroke="#11559B" stroke-width="1.33333" stroke-miterlimit="10"/>
<path d="M538.421 772.525C539.293 770.982 541.22 770.455 542.728 771.345C544.235 772.237 544.753 774.211 543.881 775.755C543.01 777.297 541.082 777.826 539.572 776.934C538.065 776.042 537.548 774.068 538.421 772.525Z" fill="transparent" stroke="#11559B" stroke-width="1.33333" stroke-miterlimit="10"/>
<path d="M538.421 780.759C539.293 779.216 541.22 778.689 542.728 779.58C544.235 780.472 544.753 782.445 543.881 783.99C543.01 785.532 541.082 786.06 539.572 785.168C538.065 784.276 537.548 782.303 538.421 780.759Z" fill="transparent" stroke="#11559B" stroke-width="1.33333" stroke-miterlimit="10"/>
<path d="M538.421 764.29C539.293 762.747 541.22 762.22 542.728 763.111C544.235 764.003 544.753 765.976 543.881 767.521C543.01 769.063 541.082 769.591 539.572 768.699C538.065 767.807 537.548 765.834 538.421 764.29Z" fill="transparent" stroke="#11559B" stroke-width="1.33333" stroke-miterlimit="10"/>
<path d="M574.834 751.857C575.706 750.314 577.633 749.786 579.142 750.677C580.648 751.569 581.166 753.543 580.295 755.087C579.424 756.629 577.495 757.158 575.987 756.266C574.479 755.374 573.961 753.4 574.834 751.857Z" fill="transparent" stroke="#11559B" stroke-width="1.33333" stroke-miterlimit="10"/>
<path d="M572.742 738.672C573.62 740.211 573.115 742.186 571.611 743.087C570.108 743.986 568.177 743.469 567.296 741.93C566.418 740.392 566.924 738.416 568.428 737.515C569.932 736.616 571.863 737.133 572.742 738.672Z" fill="transparent" stroke="#11559B" stroke-width="1.33333" stroke-miterlimit="10"/>
<path d="M572.742 747.169C573.62 748.708 573.115 750.683 571.611 751.584C570.108 752.483 568.177 751.966 567.296 750.427C566.418 748.889 566.924 746.913 568.428 746.012C569.932 745.113 571.863 745.63 572.742 747.169Z" fill="transparent" stroke="#11559B" stroke-width="1.33333" stroke-miterlimit="10"/>
<path d="M589.025 752.329C589.897 750.786 591.824 750.258 593.332 751.149C594.839 752.041 595.357 754.014 594.486 755.559C593.614 757.101 591.686 757.63 590.178 756.738C588.669 755.846 588.152 753.872 589.025 752.329Z" fill="transparent" stroke="#11559B" stroke-width="1.33333" stroke-miterlimit="10"/>
<path d="M581.48 747.573C582.353 746.03 584.28 745.503 585.788 746.393C587.295 747.286 587.812 749.259 586.941 750.804C586.07 752.346 584.141 752.874 582.633 751.982C581.125 751.09 580.608 749.117 581.48 747.573Z" fill="transparent" stroke="#11559B" stroke-width="1.33333" stroke-miterlimit="10"/>
<path d="M579.388 742.887C580.266 744.426 579.762 746.401 578.258 747.301C576.755 748.2 574.824 747.683 573.943 746.144C573.065 744.607 573.571 742.63 575.075 741.73C576.579 740.831 578.51 741.348 579.388 742.887Z" fill="transparent" stroke="#11559B" stroke-width="1.33333" stroke-miterlimit="10"/>
<path d="M548.44 748.545C550.181 748.544 551.593 749.986 551.596 751.77C551.597 753.551 550.188 754.997 548.445 755C546.706 755.001 545.292 753.558 545.289 751.775C545.288 749.993 546.698 748.546 548.44 748.545Z" fill="transparent" stroke="#11559B" stroke-width="1.33333" stroke-miterlimit="10"/>
<path d="M555.62 744.303C557.361 744.302 558.774 745.744 558.777 747.528C558.778 749.309 557.368 750.755 555.626 750.758C553.887 750.759 552.473 749.316 552.47 747.533C552.469 745.751 553.88 744.304 555.62 744.303Z" fill="transparent" stroke="#11559B" stroke-width="1.33333" stroke-miterlimit="10"/>
<path d="M565.599 742.243C566.477 743.781 565.972 745.756 564.468 746.657C562.966 747.556 561.035 747.039 560.154 745.5C559.275 743.962 559.781 741.986 561.285 741.085C562.789 740.186 564.721 740.704 565.599 742.243Z" fill="transparent" stroke="#11559B" stroke-width="1.33333" stroke-miterlimit="10"/>
<path d="M572.742 806.649C573.62 808.188 573.115 810.163 571.611 811.063C570.108 811.963 568.177 811.445 567.296 809.906C566.418 808.369 566.924 806.393 568.428 805.492C569.932 804.593 571.863 805.11 572.742 806.649Z" fill="transparent" stroke="#11559B" stroke-width="1.33333" stroke-miterlimit="10"/>
<path d="M572.742 798.152C573.62 799.691 573.115 801.666 571.611 802.566C570.108 803.466 568.177 802.948 567.296 801.409C566.418 799.872 566.924 797.895 568.428 796.995C569.932 796.096 571.863 796.613 572.742 798.152Z" fill="transparent" stroke="#11559B" stroke-width="1.33333" stroke-miterlimit="10"/>
<path d="M570.017 754.068C571.757 754.068 573.17 755.509 573.173 757.293C573.174 759.074 571.765 760.52 570.022 760.523C568.283 760.525 566.869 759.081 566.866 757.299C566.865 755.516 568.276 754.07 570.017 754.068Z" fill="transparent" stroke="#11559B" stroke-width="1.33333" stroke-miterlimit="10"/>
<path d="M572.742 764.164C573.62 765.703 573.115 767.678 571.611 768.578C570.108 769.478 568.177 768.96 567.296 767.421C566.418 765.884 566.924 763.907 568.428 763.007C569.932 762.108 571.863 762.625 572.742 764.164Z" fill="transparent" stroke="#11559B" stroke-width="1.33333" stroke-miterlimit="10"/>
<path d="M572.742 772.66C573.62 774.199 573.115 776.174 571.611 777.075C570.108 777.974 568.177 777.457 567.296 775.918C566.418 774.38 566.924 772.404 568.428 771.503C569.932 770.604 571.863 771.122 572.742 772.66Z" fill="transparent" stroke="#11559B" stroke-width="1.33333" stroke-miterlimit="10"/>
<path d="M570.017 779.559C571.757 779.558 573.17 781 573.173 782.784C573.174 784.565 571.765 786.011 570.022 786.014C568.283 786.016 566.869 784.572 566.866 782.789C566.865 781.007 568.276 779.561 570.017 779.559Z" fill="transparent" stroke="#11559B" stroke-width="1.33333" stroke-miterlimit="10"/>
<path d="M567.289 789.669C568.162 788.125 570.089 787.598 571.597 788.489C573.104 789.381 573.621 791.354 572.75 792.899C571.879 794.441 569.951 794.969 568.442 794.077C566.934 793.185 566.417 791.212 567.289 789.669Z" fill="transparent" stroke="#11559B" stroke-width="1.33333" stroke-miterlimit="10"/>
<path d="M598.747 794.584C597.006 794.588 595.591 793.149 595.586 791.366C595.58 789.585 596.987 788.136 598.729 788.129C600.468 788.125 601.885 789.564 601.891 791.348C601.896 793.129 600.488 794.58 598.747 794.584Z" fill="transparent" stroke="#11559B" stroke-width="1.33333" stroke-miterlimit="10"/>
<path d="M591.567 790.317C589.827 790.322 588.411 788.882 588.404 787.1C588.4 785.319 589.807 783.869 591.549 783.862C593.289 783.858 594.705 785.297 594.711 787.081C594.716 788.862 593.308 790.313 591.567 790.317Z" fill="transparent" stroke="#11559B" stroke-width="1.33333" stroke-miterlimit="10"/>
<path d="M541.31 760.45C539.569 760.454 538.154 759.015 538.148 757.232C538.142 755.451 539.549 754.002 541.291 753.995C543.031 753.99 544.447 755.43 544.454 757.214C544.459 758.995 543.05 760.445 541.31 760.45Z" fill="transparent" stroke="#11559B" stroke-width="1.33333" stroke-miterlimit="10"/>
<path d="M548.489 764.716C546.748 764.72 545.333 763.281 545.327 761.499C545.322 759.717 546.728 758.268 548.471 758.261C550.21 758.257 551.627 759.696 551.634 761.48C551.638 763.261 550.231 764.712 548.489 764.716Z" fill="transparent" stroke="#11559B" stroke-width="1.33333" stroke-miterlimit="10"/>
<path d="M587.107 784.441C586.233 785.983 584.306 786.509 582.798 785.615C581.292 784.722 580.778 782.748 581.65 781.205C582.523 779.663 584.451 779.137 585.96 780.031C587.466 780.924 587.981 782.899 587.107 784.441Z" fill="transparent" stroke="#11559B" stroke-width="1.33333" stroke-miterlimit="10"/>
<path d="M577.208 781.784C575.466 781.788 574.052 780.349 574.045 778.566C574.041 776.785 575.447 775.336 577.19 775.329C578.929 775.324 580.346 776.764 580.351 778.548C580.357 780.329 578.949 781.779 577.208 781.784Z" fill="transparent" stroke="#11559B" stroke-width="1.33333" stroke-miterlimit="10"/>
<path d="M565.568 771.641C564.694 773.182 562.767 773.708 561.259 772.815C559.753 771.923 559.239 769.948 560.111 768.404C560.984 766.864 562.912 766.337 564.421 767.23C565.927 768.124 566.442 770.099 565.568 771.641Z" fill="transparent" stroke="#11559B" stroke-width="1.33333" stroke-miterlimit="10"/>
<path d="M558.395 764.151C559.261 765.697 558.739 767.668 557.228 768.555C555.718 769.442 553.791 768.909 552.924 767.361C552.059 765.817 552.58 763.844 554.092 762.957C555.603 762.07 557.53 762.605 558.395 764.151Z" fill="transparent" stroke="#11559B" stroke-width="1.33333" stroke-miterlimit="10"/>
<path d="M538.422 789.473C539.294 787.931 541.222 787.404 542.731 788.297C544.236 789.189 544.752 791.163 543.88 792.707C543.008 794.248 541.079 794.775 539.57 793.883C538.064 792.989 537.549 791.014 538.422 789.473Z" fill="transparent" stroke="#11559B" stroke-width="1.33333" stroke-miterlimit="10"/>
<path d="M545.639 785.272C546.511 783.731 548.439 783.203 549.948 784.097C551.453 784.989 551.969 786.962 551.097 788.507C550.225 790.047 548.296 790.575 546.787 789.683C545.281 788.789 544.766 786.814 545.639 785.272Z" fill="transparent" stroke="#11559B" stroke-width="1.33333" stroke-miterlimit="10"/>
<path d="M596.159 755.872C597.033 754.331 598.96 753.803 600.468 754.697C601.973 755.589 602.489 757.562 601.617 759.107C600.746 760.647 598.816 761.175 597.308 760.283C595.801 759.389 595.286 757.414 596.159 755.872Z" fill="transparent" stroke="#11559B" stroke-width="1.33333" stroke-miterlimit="10"/>
<path d="M588.942 760.072C589.814 758.53 591.743 758.003 593.251 758.896C594.756 759.788 595.272 761.762 594.4 763.307C593.529 764.847 591.599 765.374 590.091 764.482C588.584 763.589 588.069 761.614 588.942 760.072Z" fill="transparent" stroke="#11559B" stroke-width="1.33333" stroke-miterlimit="10"/>
<path d="M552.845 784.287C551.984 782.738 552.511 780.769 554.024 779.886C555.536 779.004 557.462 779.542 558.324 781.093C559.187 782.639 558.66 784.611 557.146 785.494C555.632 786.375 553.706 785.836 552.845 784.287Z" fill="transparent" stroke="#11559B" stroke-width="1.33333" stroke-miterlimit="10"/>
<path d="M560.073 776.873C560.947 775.331 562.874 774.804 564.382 775.697C565.888 776.589 566.404 778.563 565.531 780.107C564.66 781.648 562.73 782.175 561.222 781.283C559.715 780.389 559.2 778.414 560.073 776.873Z" fill="transparent" stroke="#11559B" stroke-width="1.33333" stroke-miterlimit="10"/>
<path d="M574.496 771.687C573.635 770.138 574.161 768.169 575.675 767.286C577.187 766.404 579.113 766.944 579.976 768.493C580.838 770.039 580.311 772.011 578.797 772.894C577.283 773.775 575.358 773.236 574.496 771.687Z" fill="transparent" stroke="#11559B" stroke-width="1.33333" stroke-miterlimit="10"/>
<path d="M584.431 769.116C582.69 769.103 581.289 767.65 581.3 765.866C581.312 764.086 582.733 762.649 584.475 762.661C586.216 762.674 587.618 764.129 587.607 765.911C587.594 767.694 586.172 769.129 584.431 769.116Z" fill="transparent" stroke="#11559B" stroke-width="1.33333" stroke-miterlimit="10"/>
<path d="M168.41 680.502H168.487C182.619 680.502 195.301 677.054 203.936 671.593C204.17 671.449 204.396 671.305 204.621 671.154C205.79 670.371 206.878 669.573 207.866 668.733C208.396 668.287 208.894 667.831 209.376 667.362C213.359 663.529 215.64 659.089 215.64 654.348C215.64 652.09 215.117 649.894 214.144 647.802C213.64 646.709 213.003 645.639 212.254 644.6C212.263 644.721 212.263 644.848 212.263 644.968C212.263 646.756 211.958 648.513 211.375 650.196C210.255 653.519 208.069 656.615 205.05 659.354C204.132 660.194 203.12 660.992 202.039 661.765C201.992 661.797 201.953 661.828 201.906 661.852C199.393 663.626 196.498 665.198 193.285 666.523H193.277C186.236 669.422 177.693 671.121 168.487 671.121H168.41" fill="transparent" stroke="#11559B" stroke-width="1.33333" stroke-miterlimit="10"/>
<path d="M168.449 666.547C174.743 666.531 180.587 665.725 185.466 664.336C190.047 663.043 193.775 661.238 196.201 659.115C198.195 657.382 199.308 655.425 199.308 653.366V641.526C199.308 642.74 199.035 643.93 198.513 645.063C198.055 646.078 197.408 647.044 196.583 647.969C193.798 651.116 189.021 653.718 183.06 655.346C178.712 656.553 173.739 657.238 168.449 657.254" fill="transparent" stroke="#11559B" stroke-width="1.33333" stroke-miterlimit="10"/>
<path d="M180.548 795.334H180.502" fill="transparent" stroke="#11559B" stroke-width="1.33333" stroke-miterlimit="10"/>
<path d="M180.502 795.334L177.168 800.662" fill="transparent" stroke="#11559B" stroke-width="1.33333" stroke-miterlimit="10"/>
<path d="M196.348 633.129C198.339 633.927 199.883 634.806 201.627 635.755C206.185 638.254 209.826 641.257 212.255 644.601C212.261 644.719 212.261 644.848 212.261 644.969" fill="transparent" stroke="#11559B" stroke-width="1.33333" stroke-miterlimit="10"/>
<path d="M199.307 641.527C199.307 640.738 199.191 639.954 198.966 639.196C198.474 637.528 197.796 635.94 196.348 634.485" fill="transparent" stroke="#11559B" stroke-width="1.33333" stroke-miterlimit="10"/>
<path d="M215.639 654.349V684.318" fill="transparent" stroke="#11559B" stroke-width="1.33333" stroke-miterlimit="10"/>
<path d="M174.751 766.722V772.717" fill="transparent" stroke="#11559B" stroke-width="1.33333" stroke-miterlimit="10"/>
<path d="M215.639 684.318V700.182" fill="transparent" stroke="#11559B" stroke-width="1.33333" stroke-miterlimit="10"/>
<path d="M200.303 768.845C197.361 770.362 194.063 771.664 190.484 772.726" fill="transparent" stroke="#11559B" stroke-width="1.33333" stroke-miterlimit="10"/>
<path d="M284.981 793.985C277.837 806.965 264.378 810.142 260.418 810.807C259.935 810.893 259.437 810.935 258.947 810.94L218.657 811.587C218.604 811.596 218.549 811.596 218.494 811.596C212.985 811.596 208.473 807.053 208.387 801.378C208.294 795.646 212.752 790.928 218.339 790.84L257.757 790.202C259.071 789.93 264.299 788.684 267.365 783.782C270.844 778.202 268.985 771.999 268.291 769.7C266.945 765.214 264.392 762.276 262.93 760.831C255.018 752.352 247.103 743.881 239.184 735.412C234.71 730.622 230.236 725.824 225.753 721.033C224.82 719.581 223.405 718.726 221.973 718.527C221.062 718.4 220.151 718.534 219.356 718.958C217.91 719.732 217.008 721.392 216.939 723.222C216.936 723.513 216.933 723.803 216.931 724.095C216.763 743.315 216.594 762.535 216.424 781.762C215.14 785.163 212.129 787.477 208.815 787.614C204.754 787.789 200.917 784.676 200.031 780.157L200.289 769.38C200.294 769.205 200.294 769.021 200.303 768.846C200.365 765.97 200.435 763.106 200.506 760.231C200.731 750.644 200.957 741.055 201.189 731.468C201.306 726.294 201.432 721.113 201.556 715.94C201.804 714.367 203.338 705.8 210.394 701.875C212.176 700.883 213.951 700.388 215.639 700.18C217.989 699.877 220.175 700.142 221.98 700.373H221.988C225.925 700.883 229.482 702.121 232.608 703.701C235.006 704.923 237.16 706.343 239.035 707.804C242.553 710.535 245.135 713.377 246.683 715.236C247.89 716.61 249.096 717.991 250.31 719.364V719.373C259.071 729.352 267.832 739.338 276.594 749.317C289.136 761.325 292.676 780.006 284.981 793.985Z" fill="transparent" stroke="#11559B" stroke-width="1.33333" stroke-miterlimit="10"/>
<path d="M221.988 700.372C222.354 696.595 224.05 688.055 231.723 681.891C232.064 681.613 232.413 681.348 232.764 681.1C238.383 677.053 244.841 676.023 250.194 676.503C252.155 676.67 253.975 677.046 255.539 677.547C259.733 678.833 263.918 680.119 268.113 681.405C277.605 684.319 287.098 687.224 296.589 690.138C302.401 692.217 307.134 692.454 308.201 690.556C308.732 689.611 308.349 688.155 307.943 686.609C307.32 684.249 306.183 682.585 305.452 681.668C302.806 678.1 300.148 674.428 297.48 670.648C294.584 666.543 291.802 662.484 289.128 658.484C280.685 648.719 272.243 638.957 263.801 629.193C262.923 628.211 257.951 622.879 249.795 622.63C241.799 622.375 236.593 627.188 235.612 628.123C230.735 632.771 222.119 637.968 214.145 647.802" fill="transparent" stroke="#11559B" stroke-width="1.33333" stroke-miterlimit="10"/>
<path d="M201.626 635.755L206.262 631.772L231.543 610.025C231.784 609.817 232.033 609.624 232.298 609.443C237.698 605.754 244.195 603.79 250.644 603.909C260.635 604.101 267.646 608.987 270.929 611.886C271.077 612.012 271.218 612.149 271.356 612.283C285.947 627.004 302.441 647.442 302.441 647.442C305.273 651.099 308.447 655.307 311.88 660.032C315.754 665.373 319.411 670.626 322.865 675.776C324.571 678.314 327.091 682.897 327.721 689.061C328.04 692.213 328.608 697.77 325.34 702.544C324.64 703.574 323.915 704.325 323.395 704.818C323.395 704.818 321.178 706.966 317.809 708.316C317.545 708.42 317.252 708.519 316.932 708.607C315.104 709.12 312.389 709.369 309.024 709.186C305.249 708.986 300.668 708.237 295.61 706.719C291.346 705.545 287.082 704.379 282.81 703.207C272.12 700.277 261.429 697.337 250.738 694.409C250.644 694.385 250.575 694.36 250.473 694.329C250.451 694.322 250.372 694.296 250.239 694.265C249.252 694.001 245.369 693.228 242.28 695.71C239.542 697.913 239.082 701.307 239.006 702.192L239.035 707.805" fill="transparent" stroke="#11559B" stroke-width="1.33333" stroke-miterlimit="10"/>
<path d="M239.184 735.411L239.316 760.423C239.346 765.27 235.534 769.228 230.803 769.252H230.757C226.059 769.252 222.23 765.349 222.198 760.519L222.03 729.218L221.972 718.527" fill="transparent" stroke="#11559B" stroke-width="1.33333" stroke-miterlimit="10"/>
<path d="M250.24 694.265C250.262 702.633 250.286 710.998 250.309 719.366" fill="transparent" stroke="#11559B" stroke-width="1.33333" stroke-miterlimit="10"/>
<path d="M282.81 703.206C285.48 707.165 288.156 711.135 290.824 715.093C291.945 716.762 292.831 718.646 293.416 720.649C293.991 722.637 294.272 724.69 294.231 726.758V726.996L294.575 789.266C294.605 794.536 298.776 798.791 303.911 798.791H303.966C309.125 798.759 313.279 794.447 313.25 789.154L312.906 726.996C312.969 722.98 312.424 718.997 311.303 715.142C310.704 713.09 309.941 711.102 309.024 709.185" fill="transparent" stroke="#11559B" stroke-width="1.33333" stroke-miterlimit="10"/>
<path d="M268.107 681.398C265.122 676.955 262.119 672.513 259.132 668.07C256.13 663.629 253.127 659.186 250.142 654.744M250.142 654.744C249.345 653.723 248.25 652.514 246.774 651.373C245.944 650.727 245.149 650.233 244.419 649.824M250.142 654.744C250.142 658.369 250.159 661.994 250.159 665.62C250.174 669.245 250.191 672.871 250.191 676.496M232.757 681.109C232.837 671.42 232.908 661.732 232.984 652.044C233.002 649.835 233.02 647.625 233.039 645.417C233.071 644.088 233.353 641.552 235.095 639.39C235.593 638.743 236.157 638.233 236.904 637.672C242.228 633.807 247.885 633.621 247.885 633.621C248.367 633.621 248.831 633.638 249.279 633.672C249.627 633.689 249.975 633.723 250.307 633.775C250.806 633.842 251.286 633.927 251.75 634.03C252.098 634.098 252.448 634.182 252.779 634.285C253.11 634.37 253.443 634.489 253.774 634.591C254.189 634.744 254.62 634.898 255.019 635.067C255.416 635.238 255.815 635.425 256.18 635.613C256.462 635.748 256.744 635.902 257.009 636.055C257.274 636.191 257.539 636.344 257.789 636.498C257.955 636.616 258.12 636.719 258.269 636.821C258.436 636.922 258.585 637.025 258.752 637.128C259.049 637.348 259.348 637.552 259.614 637.757C259.896 637.978 260.161 638.182 260.394 638.387C260.642 638.591 260.874 638.795 261.09 638.983C261.206 639.084 261.306 639.17 261.406 639.272C261.504 639.356 261.605 639.442 261.688 639.527C261.786 639.63 261.87 639.714 261.953 639.799C262.036 639.868 262.119 639.953 262.185 640.037C262.268 640.106 262.335 640.174 262.401 640.258C262.666 640.532 262.865 640.753 262.997 640.905L296.59 690.13V690.147" fill="transparent" stroke="#11559B" stroke-width="1.33333" stroke-miterlimit="10"/>
<path d="M168.449 755.641C170.23 755.641 171.919 755.345 173.436 754.803C177.606 753.341 180.501 750.093 180.501 746.324C180.501 745.687 180.422 745.071 180.26 744.473C180.229 744.353 180.191 744.226 180.15 744.105C179.933 743.42 179.613 742.757 179.21 742.143C177.894 740.114 175.646 738.511 172.89 737.663C171.523 737.241 170.019 737.009 168.449 737.009" fill="transparent" stroke="#11559B" stroke-width="1.33333" stroke-miterlimit="10"/>
<path d="M172.877 750.049C172.915 749.921 172.946 749.794 172.97 749.666C173.522 747.015 172.891 743.39 172.891 741.364" fill="transparent" stroke="#11559B" stroke-width="1.33333" stroke-miterlimit="10"/>
<path d="M190.484 760.383V795.333H180.548V760.383" fill="transparent" stroke="#11559B" stroke-width="1.33333" stroke-miterlimit="10"/>
<path d="M168.823 671.117H168.657H168.574H168.243C159.169 671.083 150.741 669.381 143.791 666.522H143.775C140.572 665.194 137.67 663.628 135.165 661.858C135.115 661.824 135.065 661.789 135.032 661.772C133.937 660.99 132.925 660.191 132.013 659.356C128.993 656.615 126.804 653.517 125.692 650.199C125.111 648.513 124.797 646.76 124.797 644.973C124.797 644.854 124.797 644.718 124.814 644.599C124.067 645.637 123.42 646.709 122.922 647.799C121.944 649.892 121.429 652.088 121.429 654.351C121.429 659.083 123.702 663.526 127.682 667.355C128.165 667.833 128.662 668.291 129.192 668.735C130.187 669.568 131.283 670.368 132.444 671.151C132.677 671.304 132.892 671.441 133.124 671.594C141.368 676.803 153.296 680.173 166.667 680.479C167.297 680.496 167.928 680.496 168.574 680.496H168.657" fill="transparent" stroke="#11559B" stroke-width="1.33333" stroke-miterlimit="10"/>
<path d="M121.548 685.327C122.332 686.882 123.465 688.862 125.238 690.81C126.589 692.294 127.96 693.458 129.06 694.38C129.06 694.38 130.678 695.718 132.333 696.813C144.756 705.037 157.222 706.676 167.443 706.291H169.328C183.761 706.258 195.798 702.671 204.412 696.972C206.053 695.886 207.657 694.561 207.657 694.561C209.835 692.732 213.591 689.945 215.599 685.586" fill="transparent" stroke="#11559B" stroke-width="1.33333" stroke-miterlimit="10"/>
<path d="M121.548 693.15C122.332 694.705 123.465 696.685 125.238 698.633C126.589 700.117 127.96 701.281 129.06 702.203C129.06 702.203 130.678 703.541 132.333 704.637C144.756 712.86 157.222 714.499 167.443 714.114H169.328C183.761 714.081 195.798 710.495 204.412 704.795C206.053 703.709 207.657 702.384 207.657 702.384C209.835 700.556 213.591 697.768 215.599 693.409" fill="transparent" stroke="#11559B" stroke-width="1.33333" stroke-miterlimit="10"/>
<path d="M141.049 619.341C141.087 625.86 140.308 633.045 141.087 639.433C143.421 651.407 156.647 653.003 165.611 654.225H171.452C180.417 653.003 193.644 651.407 195.98 639.433C196.758 633.045 195.98 625.86 196.016 619.341" fill="transparent" stroke="#11559B" stroke-width="1.33333" stroke-miterlimit="10"/>
<path d="M168.615 666.547C162.321 666.531 156.477 665.725 151.598 664.336C147.017 663.043 143.289 661.238 140.861 659.115C138.87 657.382 137.756 655.425 137.756 653.366V641.526C137.756 642.74 138.028 643.93 138.551 645.063C139.009 646.078 139.656 647.044 140.481 647.969C143.266 651.116 148.043 653.718 154.003 655.346C158.352 656.553 163.325 657.238 168.615 657.254" fill="transparent" stroke="#11559B" stroke-width="1.33333" stroke-miterlimit="10"/>
<path d="M170.393 602.735C169.804 602.708 169.214 602.685 168.615 602.681C153.341 602.832 141.048 610.233 141.048 619.343C141.048 619.693 141.065 620.044 141.112 620.387C141.112 620.451 141.117 620.507 141.126 620.571C141.143 620.738 141.165 620.897 141.203 621.067C141.236 621.273 141.274 621.473 141.329 621.672V621.695C141.368 621.856 141.406 622.016 141.453 622.167C141.522 622.422 141.609 622.671 141.701 622.926C141.771 623.134 141.857 623.334 141.943 623.532C142.014 623.702 142.098 623.877 142.184 624.044C142.193 624.061 142.2 624.083 142.207 624.099C142.308 624.299 142.41 624.491 142.525 624.69C142.635 624.883 142.751 625.072 142.878 625.265C142.993 625.456 143.126 625.648 143.257 625.832C143.39 626.023 143.529 626.207 143.679 626.39C144.255 627.133 144.923 627.835 145.669 628.514C146.262 629.049 146.907 629.559 147.599 630.055C147.902 630.271 148.215 630.479 148.533 630.687C148.604 630.734 148.674 630.774 148.743 630.813C148.752 630.821 148.767 630.829 148.776 630.838C149.062 631.021 149.342 631.188 149.645 631.356C150.005 631.564 150.369 631.764 150.751 631.955C151.086 632.132 151.436 632.307 151.794 632.466C151.919 632.529 152.05 632.586 152.174 632.642C152.4 632.746 152.634 632.85 152.876 632.945C153 633.001 153.116 633.049 153.241 633.096C153.357 633.152 153.481 633.2 153.605 633.242C153.926 633.376 154.252 633.497 154.586 633.615C154.867 633.719 155.156 633.814 155.442 633.911C155.591 633.965 155.746 634.015 155.893 634.064C156.182 634.149 156.469 634.239 156.765 634.319C156.891 634.357 157.015 634.399 157.139 634.429C157.309 634.478 157.481 634.525 157.66 634.565C157.722 634.582 157.777 634.598 157.839 634.612C158.112 634.692 158.384 634.758 158.656 634.82C159.083 634.924 159.52 635.021 159.955 635.108C160.298 635.18 160.656 635.252 161.005 635.308C161.255 635.356 161.503 635.396 161.753 635.435C162.102 635.5 162.46 635.547 162.82 635.596C163.293 635.667 163.768 635.722 164.25 635.771L166.671 635.959C166.792 635.965 166.91 635.975 167.033 635.977C167.235 635.986 167.446 635.995 167.646 636.002C167.913 636.002 168.176 636.01 168.45 636.01C168.722 636.01 168.985 636.002 169.25 636.002C169.453 635.995 169.662 635.986 169.865 635.977C170.355 635.963 170.836 635.93 171.32 635.898C171.826 635.859 172.323 635.819 172.814 635.771C173.297 635.722 173.771 635.667 174.246 635.596C174.604 635.547 174.961 635.5 175.31 635.435C175.56 635.396 175.809 635.356 176.059 635.308C176.408 635.252 176.766 635.18 177.109 635.108C177.544 635.021 177.98 634.924 178.407 634.82C178.679 634.758 178.954 634.692 179.226 634.612C179.287 634.598 179.342 634.582 179.402 634.565C179.583 634.525 179.755 634.478 179.925 634.429C180.049 634.399 180.175 634.357 180.299 634.319C180.593 634.239 180.882 634.149 181.17 634.064C181.319 634.015 181.473 633.965 181.621 633.911C181.91 633.814 182.196 633.719 182.477 633.615C182.812 633.497 183.139 633.376 183.458 633.242C183.582 633.2 183.706 633.152 183.824 633.096C183.948 633.049 184.064 633.001 184.189 632.945C184.43 632.85 184.663 632.746 184.888 632.642C185.014 632.586 185.146 632.529 185.27 632.466C185.629 632.307 185.978 632.132 186.314 631.955C186.694 631.764 187.061 631.564 187.419 631.356C187.72 631.188 188.001 631.021 188.29 630.838C188.298 630.829 188.312 630.821 188.321 630.813C188.391 630.774 188.46 630.734 188.529 630.687C188.851 630.479 189.161 630.271 189.464 630.055C190.158 629.559 190.803 629.049 191.394 628.514C192.141 627.835 192.81 627.133 193.386 626.39C193.534 626.207 193.675 626.023 193.806 625.832C193.938 625.648 194.071 625.456 194.186 625.265C194.312 625.072 194.429 624.883 194.537 624.69C194.654 624.491 194.756 624.299 194.857 624.099C194.864 624.083 194.871 624.061 194.88 624.044C194.964 623.877 195.05 623.702 195.121 623.532C195.207 623.334 195.291 623.134 195.363 622.926C195.456 622.671 195.541 622.422 195.611 622.167C195.658 622.016 195.696 621.856 195.737 621.695V621.672C195.789 621.473 195.828 621.273 195.861 621.067C195.899 620.897 195.921 620.738 195.938 620.571C195.945 620.507 195.954 620.451 195.954 620.387C196 620.044 196.015 619.693 196.015 619.343C196.015 610.233 183.723 602.832 168.45 602.681C167.851 602.685 167.258 602.708 166.671 602.735" fill="transparent" stroke="#11559B" stroke-width="1.33333" stroke-miterlimit="10"/>
<path d="M140.717 633.129C138.725 633.927 137.181 634.806 135.438 635.755C130.879 638.254 127.238 641.257 124.809 644.601C124.804 644.719 124.804 644.848 124.804 644.969" fill="transparent" stroke="#11559B" stroke-width="1.33333" stroke-miterlimit="10"/>
<path d="M137.757 641.527C137.757 640.738 137.873 639.954 138.098 639.196C138.59 637.528 139.268 635.94 140.716 634.485" fill="transparent" stroke="#11559B" stroke-width="1.33333" stroke-miterlimit="10"/>
<path d="M121.429 684.325V654.351" fill="transparent" stroke="#11559B" stroke-width="1.33333" stroke-miterlimit="10"/>
<path d="M162.314 766.722V772.717" fill="transparent" stroke="#11559B" stroke-width="1.33333" stroke-miterlimit="10"/>
<path d="M121.429 684.325V700.189" fill="transparent" stroke="#11559B" stroke-width="1.33333" stroke-miterlimit="10"/>
<path d="M168.616 762.363C163.036 762.363 158.103 758.547 156.563 753.054C156.68 750.068 156.446 747.083 156.563 744.105H146.581V760.383H156.563L162.313 766.722H165.817H166.672H174.752L180.501 760.383H190.484V744.105H180.501C180.617 747.083 180.386 750.068 180.501 753.054C178.961 758.547 174.028 762.363 168.449 762.363" fill="transparent" stroke="#11559B" stroke-width="1.33333" stroke-miterlimit="10"/>
<path d="M162.321 785.752V772.713H166.666H167.845H170.399H174.745V798.687" fill="transparent" stroke="#11559B" stroke-width="1.33333" stroke-miterlimit="10"/>
<path d="M92.0669 713.311C93.5765 711.677 95.5669 709.703 98.0225 707.797C99.8972 706.35 102.054 704.92 104.459 703.694C107.577 702.128 111.145 700.885 115.076 700.375H115.093C116.236 700.239 117.515 700.069 118.907 700.052H119.322C119.389 700.052 119.456 700.052 119.522 700.069C119.737 700.052 119.953 700.069 120.184 700.086H120.284L120.831 700.137C121.032 700.137 121.23 700.154 121.429 700.189C123.121 700.392 124.897 700.885 126.671 701.873C133.721 705.804 135.264 714.367 135.512 715.933C135.629 721.107 135.762 726.298 135.878 731.472C136.093 740.612 136.309 750.263 136.525 759.42" fill="transparent" stroke="#11559B" stroke-width="1.33333" stroke-miterlimit="10"/>
<path d="M120.284 742.757C120.207 732.015 120.118 723.644 120.118 723.217C120.118 722.979 120.086 722.758 120.052 722.537C120.035 722.383 120.003 722.248 119.969 722.094C119.936 721.942 119.887 721.788 119.836 721.652C119.821 721.567 119.787 721.498 119.753 721.43C119.77 721.413 119.77 721.413 119.753 721.413C119.372 720.341 118.659 719.457 117.713 718.962C116.917 718.537 116.005 718.401 115.093 718.52C113.665 718.724 112.238 719.575 111.309 721.038C109.402 723.082 107.495 725.124 105.57 727.167" fill="transparent" stroke="#11559B" stroke-width="1.33333" stroke-miterlimit="10"/>
<path d="M122.922 647.799C122.424 647.186 121.927 646.59 121.429 646.012C120.584 645.041 119.736 644.122 118.907 643.254C118.675 643.016 118.444 642.76 118.211 642.539C117.248 641.569 116.319 640.667 115.391 639.816C114.395 638.897 113.417 638.029 112.454 637.211C110.829 635.833 109.253 634.574 107.793 633.399C106.798 632.616 105.869 631.885 104.989 631.169C103.679 630.098 102.484 629.093 101.457 628.123C100.477 627.187 95.2683 622.37 87.273 622.625C79.1114 622.88 74.1341 628.208 73.2545 629.194C64.8278 638.965 56.3843 648.718 47.9407 658.487C46.6791 660.36 45.0707 662.761 43.7598 664.666" fill="transparent" stroke="#11559B" stroke-width="1.33333" stroke-miterlimit="10"/>
<path d="M62.1073 683.457C64.1639 682.844 66.8844 682.045 68.9425 681.398H68.958C73.1389 680.121 77.3353 678.827 81.5331 677.551C83.0921 677.04 84.9162 676.666 86.8741 676.496C92.2151 676.019 98.6852 677.058 104.293 681.109C104.376 681.176 104.475 681.227 104.558 681.295C104.592 681.312 104.608 681.33 104.624 681.347C104.756 681.432 104.873 681.516 104.989 681.619C105.106 681.704 105.222 681.806 105.337 681.891C105.471 681.994 105.587 682.095 105.719 682.214C105.835 682.3 105.935 682.385 106.035 682.47C106.217 682.623 106.366 682.759 106.533 682.913C106.798 683.151 107.063 683.406 107.312 683.661C107.545 683.883 107.776 684.121 107.991 684.359C109.153 685.584 110.116 686.861 110.928 688.155C111.342 688.802 111.707 689.449 112.057 690.112C112.155 690.317 112.271 690.538 112.371 690.758C112.57 691.185 112.77 691.611 112.952 692.035C113.134 692.461 113.3 692.869 113.449 693.278C113.599 693.687 113.731 694.096 113.864 694.486C114.611 696.87 114.942 698.963 115.075 700.375" fill="transparent" stroke="#11559B" stroke-width="1.33333" stroke-miterlimit="10"/>
<path d="M98.022 707.796L98.0558 702.196C97.9882 701.311 97.5244 697.907 94.787 695.711C91.7013 693.226 87.8193 694.01 86.8241 694.265C86.6916 694.299 86.6084 694.316 86.5929 694.333C86.4928 694.368 86.4266 694.385 86.3265 694.402C82.9758 695.321 79.6421 696.24 76.307 697.159" fill="transparent" stroke="#11559B" stroke-width="1.33333" stroke-miterlimit="10"/>
<path d="M31.2689 652.054C32.3134 650.676 33.6582 648.684 34.6195 647.441C34.6195 647.441 34.769 647.255 35.034 646.931C35.2172 646.692 35.4653 646.403 35.7642 646.046C36.0461 645.689 36.3942 645.263 36.7932 644.787C37.1907 644.292 37.6389 643.765 38.1196 643.169C38.7497 642.42 39.4475 641.586 40.1931 640.684C41.521 639.101 43.0462 637.314 44.6898 635.373C45.1211 634.898 45.5356 634.386 45.9824 633.876C46.3151 633.484 46.6463 633.094 47.0114 632.685C47.0946 632.582 47.1947 632.464 47.2933 632.344C47.5922 632.003 47.9079 631.646 48.2223 631.288C48.3717 631.119 48.5211 630.949 48.6705 630.778C48.9186 630.472 49.202 630.182 49.467 629.876C49.6657 629.638 49.8645 629.4 50.0801 629.161C50.2958 628.923 50.5115 628.668 50.7441 628.413C50.9936 628.123 51.2755 627.817 51.5405 627.511C52.5188 626.42 53.514 625.298 54.5261 624.175C54.5923 624.106 54.643 624.038 54.7093 623.987C55.1561 623.477 55.6044 622.982 56.0527 622.489C57.4129 620.991 58.807 619.494 60.1828 618.013C61.1118 617.026 62.0407 616.055 62.9541 615.102C63.883 614.132 64.7951 613.196 65.7071 612.276C65.8396 612.141 65.989 612.021 66.1384 611.885C67.7806 610.438 70.3517 608.497 73.77 606.882C75.4785 606.081 77.3857 605.367 79.4931 604.821C80.0231 604.703 80.57 604.583 81.1183 604.465C82.1629 604.26 83.2581 604.107 84.4027 604.005C85.0667 603.953 85.7292 603.919 86.4269 603.902C92.8632 603.784 99.3657 605.757 104.774 609.434C105.039 609.622 105.288 609.825 105.52 610.029L130.801 631.765L135.431 635.748H135.446" fill="transparent" stroke="#11559B" stroke-width="1.33333" stroke-miterlimit="10"/>
<path d="M115.092 718.52L114.992 737.328" fill="transparent" stroke="#11559B" stroke-width="1.33333" stroke-miterlimit="10"/>
<path d="M86.8246 694.265C86.8075 698.809 86.8075 704.206 86.7904 708.75" fill="transparent" stroke="#11559B" stroke-width="1.33333" stroke-miterlimit="10"/>
<path d="M92.6476 649.824C91.9174 650.233 91.121 650.726 90.2921 651.373C88.8148 652.513 87.721 653.722 86.9246 654.743M86.9246 654.743C83.9221 659.186 80.9365 663.628 77.9327 668.071C74.9471 672.512 71.9446 676.955 68.9591 681.397M86.9246 654.743V657.449C86.9246 660.172 86.9076 662.897 86.8907 665.62C86.8907 669.245 86.8752 672.87 86.8752 676.495M52.0706 673.176L74.0675 640.906C74.2014 640.752 74.4002 640.531 74.6652 640.259C74.7314 640.173 74.7977 640.106 74.8809 640.038C74.9471 639.952 75.0303 639.867 75.1134 639.798L75.3784 639.526C75.4616 639.442 75.5617 639.357 75.6604 639.271C75.7604 639.17 75.8591 639.084 75.9761 638.982C76.1918 638.795 76.4244 638.59 76.6725 638.386C76.9051 638.182 77.1701 637.977 77.452 637.756C77.717 637.553 78.0158 637.347 78.3147 637.127C78.481 637.025 78.6304 636.923 78.7953 636.82C78.9448 636.718 79.1111 636.616 79.2774 636.497C79.5255 636.344 79.7919 636.19 80.0569 636.055C80.3219 635.901 80.6039 635.749 80.8858 635.612C81.2509 635.425 81.6498 635.237 82.0473 635.067C82.4448 634.897 82.8762 634.744 83.292 634.59C83.6233 634.489 83.9545 634.369 84.2872 634.284C84.6184 634.183 84.9666 634.097 85.3148 634.029C85.78 633.928 86.2437 633.842 86.7413 633.774C86.7751 633.774 86.8245 633.757 86.8752 633.757C87.074 633.722 87.2896 633.705 87.5053 633.688C88.0522 633.638 88.5992 633.621 89.1799 633.621C89.1799 633.621 94.8367 633.808 100.145 637.671C100.909 638.234 101.473 638.744 101.971 639.391C103.712 641.552 103.995 644.089 104.027 645.416C104.127 657.314 104.211 669.194 104.292 681.091V681.108" fill="transparent" stroke="#11559B" stroke-width="1.33333" stroke-miterlimit="10"/>
<path d="M168.615 755.641C166.834 755.641 165.145 755.345 163.628 754.803C159.458 753.341 156.563 750.093 156.563 746.324C156.563 745.687 156.642 745.071 156.804 744.473C156.835 744.353 156.873 744.226 156.914 744.105C157.131 743.42 157.451 742.757 157.854 742.143C159.17 740.114 161.418 738.511 164.172 737.663C165.541 737.241 167.044 737.009 168.615 737.009" fill="transparent" stroke="#11559B" stroke-width="1.33333" stroke-miterlimit="10"/>
<path d="M164.092 749.666C163.54 747.016 164.17 743.391 164.17 741.363" fill="transparent" stroke="#11559B" stroke-width="1.33333" stroke-miterlimit="10"/>
<path d="M156.514 779.624V760.391" fill="transparent" stroke="#11559B" stroke-width="1.33333" stroke-miterlimit="10"/>
<path d="M146.578 769.411V760.39" fill="transparent" stroke="#11559B" stroke-width="1.33333" stroke-miterlimit="10"/>
<path d="M172.892 741.395C172.892 743.301 170.939 744.849 168.532 744.849C166.125 744.849 164.173 743.301 164.173 741.395C164.173 739.488 166.125 737.94 168.532 737.94C170.939 737.94 172.892 739.488 172.892 741.395Z" fill="transparent" stroke="#11559B" stroke-width="1.33333" stroke-miterlimit="10"/>
<path d="M172.971 749.666H172.884" fill="transparent" stroke="#11559B" stroke-width="1.33333" stroke-miterlimit="10"/>
<path d="M164.178 749.666H164.092" fill="transparent" stroke="#11559B" stroke-width="1.33333" stroke-miterlimit="10"/>
<path d="M172.893 749.778C172.893 749.866 172.884 749.962 172.877 750.049V750.066C172.681 750.8 172.378 751.447 171.927 751.932C171.873 751.989 171.82 752.045 171.756 752.093C171.663 752.19 171.554 752.269 171.446 752.349C170.675 752.9 169.656 753.226 168.534 753.226C167.415 753.226 166.389 752.891 165.616 752.349C165.564 752.309 165.509 752.269 165.454 752.22C165.399 752.182 165.353 752.141 165.306 752.093C165.244 752.045 165.189 751.989 165.136 751.932C164.684 751.447 164.381 750.8 164.187 750.066V750.049C164.178 749.962 164.17 749.866 164.17 749.778C164.17 749.739 164.17 749.698 164.178 749.665" fill="transparent" stroke="#11559B" stroke-width="1.33333" stroke-miterlimit="10"/>
<path d="M382.712 122.364C382.712 122.817 382.723 127.344 382.832 127.344L263.794 126.891L258.381 137.999H371.909L374.102 143.542C353.021 143.64 264.316 143.603 225.873 143.579" fill="transparent" stroke="#11559B" stroke-width="1.33333" stroke-miterlimit="10"/>
<path d="M382.712 122.327V122.364C357.169 123.087 326.288 121.887 300.736 121.8L306.149 110.692H382.712" fill="transparent" stroke="#11559B" stroke-width="1.33333" stroke-miterlimit="10"/>
<path d="M382.628 105.138H382.616C381.459 105.138 309.248 105.162 308.64 105.138L314.054 94.0419C314.054 94.0419 344.829 93.5275 344.805 94.0419L344.842 88.4875C355.656 88.4875 354.428 88.4875 355.656 88.61C355.679 90.3214 355.62 92.3277 355.656 94.0419C357.563 94.3241 366.482 94.0419 377.298 94.0419L388.125 55.1735H393.538V94.0419C393.538 94.0419 409.767 94.4466 409.767 94.0419V105.138C409.767 105.138 404.842 110.692 404.354 110.692C404.842 110.692 404.354 132.899 404.354 132.899H437.405C437.419 131.161 437.643 127.343 437.643 127.343H458.465V132.899H496.276C495.797 133.889 463.878 188.418 463.878 188.418C463.878 188.418 253.877 188.881 181.637 188.984" fill="transparent" stroke="#11559B" stroke-width="1.33333" stroke-miterlimit="10"/>
<path d="M187.409 182.862H453.051L474.692 138.451H420.594L404.365 149.561C404.365 149.561 270.707 149.463 220.032 149.487" fill="transparent" stroke="#11559B" stroke-width="1.33333" stroke-miterlimit="10"/>
<path d="M394.139 149.252V105.271H388.545V148.996" fill="transparent" stroke="#11559B" stroke-width="1.33333" stroke-miterlimit="10"/>
<path d="M456.232 149.715H426.858" fill="transparent" stroke="#11559B" stroke-width="1.33333" stroke-miterlimit="10"/>
<path d="M258.6 410.266C259.8 432.517 260.998 453.86 262.198 476.11" fill="transparent" stroke="#11559B" stroke-width="1.33333" stroke-miterlimit="10"/>
<path d="M250.859 464.505C251.985 444.63 251.73 457.392 252.857 437.515" fill="transparent" stroke="#11559B" stroke-width="1.33333" stroke-miterlimit="10"/>
<path d="M250.089 402.563C250.089 402.563 250.086 402.568 250.091 402.571L250.094 402.566L250.089 402.563Z" fill="transparent" stroke="#11559B" stroke-width="1.33333" stroke-miterlimit="10"/>
<path d="M260.154 405.969C261.149 405.747 264.857 404.848 268.827 403.863C274.082 402.566 279.775 401.124 280.234 400.912C280.848 400.63 281.491 400.336 282.167 400.02C286.165 398.176 291.106 395.787 296.018 393.371C301.048 390.896 306.041 388.397 309.933 386.442C314.383 384.206 317.398 382.667 317.398 382.667C318.042 382.345 318.129 381.801 317.893 381.222L317.873 381.155C317.54 380.312 316.861 380.293 316.441 380.441L310.659 382.455L297.156 387.157L283.66 391.857L270.158 396.559L258.139 400.74" fill="transparent" stroke="#11559B" stroke-width="1.33333" stroke-miterlimit="10"/>
<path d="M252.77 406.599C252.642 407.018 252.375 407.906 252.034 409.081C251.808 409.818 251.566 410.67 251.291 411.592C251.283 411.611 251.283 411.626 251.277 411.639C249.638 417.283 247.299 425.495 247.243 426.109C247.062 428.074 246.888 430.357 246.717 432.828C246.704 433.053 246.685 433.274 246.672 433.499C246.644 433.957 246.606 434.416 246.58 434.881C246.438 436.965 246.301 439.149 246.171 441.354C246.131 442.066 246.09 442.78 246.056 443.495C246.038 443.763 246.021 444.033 246.005 444.295C245.99 444.543 245.974 444.789 245.961 445.03C245.935 445.517 245.912 446.009 245.878 446.493C245.85 446.981 245.826 447.462 245.801 447.944C245.789 448.183 245.777 448.424 245.764 448.665C245.723 449.378 245.692 450.087 245.651 450.784C245.633 451.253 245.61 451.713 245.582 452.169C245.572 452.404 245.56 452.628 245.547 452.853C245.537 453.072 245.53 453.3 245.512 453.523C245.496 453.885 245.478 454.238 245.458 454.591C245.406 455.676 245.358 456.716 245.31 457.695C245.302 457.86 245.296 458.02 245.285 458.177C245.25 459.06 245.209 459.888 245.169 460.663C245.164 460.875 245.152 461.079 245.142 461.283C245.065 463.033 245.001 464.435 244.958 465.37C244.954 465.576 244.947 465.757 244.935 465.914C244.924 466.232 244.914 466.451 244.908 466.564C244.9 466.614 244.901 466.645 244.901 466.645C244.9 466.713 244.901 466.776 244.906 466.832C244.913 466.95 244.938 467.063 244.983 467.151C244.986 467.177 244.993 467.195 245.01 467.209C245.031 467.265 245.064 467.312 245.097 467.358C245.137 467.406 245.183 467.459 245.233 467.504C245.413 467.655 245.663 467.745 245.952 467.784L246.016 467.798C246.93 467.935 247.285 467.373 247.371 466.943L257.928 410.196L258.36 407.853" fill="transparent" stroke="#11559B" stroke-width="1.33333" stroke-miterlimit="10"/>
<path d="M252.174 404.2L252.179 404.299L250.092 402.565L244.606 398.018L233.632 388.906L222.651 379.799L211.676 370.696L205.279 365.391C204.939 365.112 204.615 364.529 205.207 363.824L205.244 363.771C205.647 363.285 206.18 363.085 206.782 363.469C206.782 363.469 208.988 364.83 212.359 366.94C215.424 368.856 219.461 371.397 223.693 374.08C227.5 376.494 231.454 379.038 235.006 381.36C237.411 382.935 239.624 384.41 241.486 385.687C241.761 385.873 243.685 387.757 246.053 390.104C248.849 392.89 252.271 396.325 254.322 398.414C255.113 399.217 255.836 400.002 256.112 400.297" fill="transparent" stroke="#11559B" stroke-width="1.33333" stroke-miterlimit="10"/>
<path d="M250.09 402.558L250.088 402.565L250.095 402.568L250.09 402.574C250.023 402.782 249.975 402.983 249.935 403.196C249.916 403.303 249.897 403.409 249.885 403.519C249.865 403.625 249.855 403.729 249.851 403.835C249.841 403.939 249.831 404.041 249.835 404.151C249.831 404.257 249.825 404.369 249.828 404.479C249.837 404.691 249.852 404.905 249.877 405.117C249.91 405.362 249.959 405.608 250.017 405.85C250.056 405.998 250.103 406.15 250.152 406.296C250.159 406.33 250.169 406.357 250.179 406.386C250.233 406.539 250.295 406.692 250.36 406.836C250.396 406.923 250.434 407.01 250.482 407.092C250.564 407.268 250.664 407.437 250.768 407.6C250.839 407.732 250.923 407.855 251.016 407.973C251.032 408.004 251.05 408.036 251.076 408.063C251.115 408.111 251.153 408.167 251.193 408.215C251.438 408.527 251.718 408.817 252.034 409.082" fill="transparent" stroke="#11559B" stroke-width="1.33333" stroke-miterlimit="10"/>
<path d="M254.883 404.127C254.752 404.814 255.178 405.476 255.85 405.69C255.908 405.716 255.979 405.733 256.051 405.75C256.831 405.881 257.576 405.365 257.721 404.6C257.849 403.835 257.326 403.112 256.545 402.98C256.48 402.967 256.41 402.966 256.352 402.97C255.638 402.946 255.007 403.422 254.883 404.127ZM255.997 400.361C256.038 400.356 256.079 400.352 256.118 400.355C256.345 400.342 256.585 400.351 256.823 400.382C256.878 400.384 256.939 400.388 257.003 400.402C257.408 400.463 257.79 400.59 258.13 400.753C259.721 401.521 260.68 403.249 260.355 405.035C260.303 405.357 260.21 405.653 260.083 405.934C259.732 406.752 259.116 407.411 258.351 407.842C257.548 408.301 256.579 408.491 255.592 408.328C255.518 408.318 255.447 408.301 255.373 408.275C254.293 408.038 253.405 407.403 252.839 406.554C252.394 405.898 252.159 405.121 252.18 404.299C252.181 404.262 252.184 404.225 252.185 404.187C252.188 404.019 252.202 403.856 252.236 403.687C252.565 401.827 254.149 400.492 255.997 400.361Z" fill="transparent" stroke="#11559B" stroke-width="1.33333" stroke-miterlimit="10"/>
<path d="M260.678 399.79C260.449 399.589 260.052 399.205 259.789 399.036C258.999 398.536 258.118 398.224 257.235 398.105C256.295 397.971 255.339 398.038 254.441 398.305" fill="transparent" stroke="#11559B" stroke-width="1.33333" stroke-miterlimit="10"/>
<path d="M258.075 410.341C259.425 409.904 260.877 408.992 261.708 407.733C262.149 407.068 262.443 406.351 262.603 405.62" fill="transparent" stroke="#11559B" stroke-width="1.33333" stroke-miterlimit="10"/>
<path d="M142.093 189.134C142.093 195.012 146.737 199.777 152.466 199.777C158.195 199.777 162.838 195.012 162.838 189.134C162.838 183.256 158.195 178.491 152.466 178.491C146.737 178.491 142.093 183.256 142.093 189.134Z" fill="transparent" stroke="#11559B" stroke-width="1.33333" stroke-miterlimit="10"/>
<path d="M632.966 748.045C632.966 753.923 637.611 758.688 643.34 758.688C649.068 758.688 653.71 753.923 653.71 748.045C653.71 742.167 649.068 737.402 643.34 737.402C637.611 737.402 632.966 742.167 632.966 748.045Z" fill="transparent" stroke="#11559B" stroke-width="1.33333" stroke-miterlimit="10"/>
<path d="M19.7752 551.866C23.887 547.709 23.9364 541.021 19.8851 536.925C15.8339 532.832 9.21863 532.881 5.10679 537.038C0.994964 541.195 0.945628 547.882 4.99544 551.977C9.04665 556.072 15.6634 556.023 19.7752 551.866Z" fill="transparent" stroke="#11559B" stroke-width="1.33333" stroke-miterlimit="10"/>
<path d="M189.237 64.8239L196.302 69.0261L219.116 55.4663V28.3409L196.302 14.7853L173.493 28.3409V39.2076" fill="transparent" stroke="#11559B" stroke-width="1.33333" stroke-miterlimit="10"/>
<path d="M173.489 28.345L196.304 41.9062L219.118 28.345" fill="transparent" stroke="#11559B" stroke-width="1.33333" stroke-miterlimit="10"/>
<path d="M196.302 69.0225V41.907" fill="transparent" stroke="#11559B" stroke-width="1.33333" stroke-miterlimit="10"/>
<path d="M188.753 103.81L196.3 108.3L219.115 94.7385V67.6188L208.959 61.5813" fill="transparent" stroke="#11559B" stroke-width="1.33333" stroke-miterlimit="10"/>
<path d="M188.632 76.6194L196.298 81.1792L219.112 67.6194" fill="transparent" stroke="#11559B" stroke-width="1.33333" stroke-miterlimit="10"/>
<path d="M196.302 108.296V81.1822" fill="transparent" stroke="#11559B" stroke-width="1.33333" stroke-miterlimit="10"/>
<path d="M152.292 81.3216L143.074 86.8034V113.923L165.89 127.483L188.698 113.923V86.8034L179.792 81.5097" fill="transparent" stroke="#11559B" stroke-width="1.33333" stroke-miterlimit="10"/>
<path d="M143.071 86.8013L165.886 100.363L188.7 86.8013" fill="transparent" stroke="#11559B" stroke-width="1.33333" stroke-miterlimit="10"/>
<path d="M165.884 127.479V100.364" fill="transparent" stroke="#11559B" stroke-width="1.33333" stroke-miterlimit="10"/>
<path d="M189.399 18.5193V8.20406L166.586 -5.36291L143.776 8.20406V16.3377" fill="transparent" stroke="#11559B" stroke-width="1.33333" stroke-miterlimit="10"/>
<path d="M143.774 8.19996L166.587 21.7612L189.403 8.19996" fill="transparent" stroke="#11559B" stroke-width="1.33333" stroke-miterlimit="10"/>
<path d="M166.586 35.7598V21.7582" fill="transparent" stroke="#11559B" stroke-width="1.33333" stroke-miterlimit="10"/>
<path d="M189.399 48.8782L166.586 35.3169L143.776 48.8782V75.9936L166.586 89.5535L189.399 75.9936V48.8782Z" fill="transparent" stroke="#11559B" stroke-width="1.33333" stroke-miterlimit="10"/>
<path d="M143.774 48.8782L166.587 62.4395L189.403 48.8782" fill="transparent" stroke="#11559B" stroke-width="1.33333" stroke-miterlimit="10"/>
<path d="M166.586 89.5571V62.4417" fill="transparent" stroke="#11559B" stroke-width="1.33333" stroke-miterlimit="10"/>
<path d="M158.982 40.1159V25.9776L136.168 12.422L113.353 25.9776V53.0973L136.168 66.6528L143.183 62.4891" fill="transparent" stroke="#11559B" stroke-width="1.33333" stroke-miterlimit="10"/>
<path d="M113.356 25.9788L136.171 39.54L158.985 25.9788" fill="transparent" stroke="#11559B" stroke-width="1.33333" stroke-miterlimit="10"/>
<path d="M136.169 66.657V39.5416" fill="transparent" stroke="#11559B" stroke-width="1.33333" stroke-miterlimit="10"/>
<path d="M123.886 60.3987L113.355 66.6557V93.7768L136.168 107.337L142.497 103.575" fill="transparent" stroke="#11559B" stroke-width="1.33333" stroke-miterlimit="10"/>
<path d="M113.356 66.6572L136.171 80.2185L143.868 75.6401" fill="transparent" stroke="#11559B" stroke-width="1.33333" stroke-miterlimit="10"/>
<path d="M136.169 107.335V80.2193" fill="transparent" stroke="#11559B" stroke-width="1.33333" stroke-miterlimit="10"/>
<path d="M650.135 755.897C728.283 835.89 807.785 917.051 885.747 996.857" fill="transparent" stroke="#11559B" stroke-width="1.33333" stroke-miterlimit="10"/>
<path d="M522.071 624.468C559.988 663.225 597.88 701.959 635.555 740.523" fill="transparent" stroke="#11559B" stroke-width="1.33333" stroke-miterlimit="10"/>
<path d="M396.372 495.92C420.811 520.94 445.33 546.016 469.877 571.114" fill="transparent" stroke="#11559B" stroke-width="1.33333" stroke-miterlimit="10"/>
<path d="M296.197 393.369C324.461 422.304 352.721 451.235 380.975 480.158" fill="transparent" stroke="#11559B" stroke-width="1.33333" stroke-miterlimit="10"/>
<path d="M200.674 295.575C231.073 326.697 261.468 357.817 291.859 388.929" fill="transparent" stroke="#11559B" stroke-width="1.33333" stroke-miterlimit="10"/>
<path d="M-209.873 -124.85C-76.9933 11.2643 55.978 147.43 188.897 283.517" fill="transparent" stroke="#11559B" stroke-width="1.33333" stroke-miterlimit="10"/>
<path d="M521.064 652.101C633.738 767.438 745.106 882.326 857.418 997.293" fill="transparent" stroke="#11559B" stroke-width="1.33333" stroke-miterlimit="10"/>
<path d="M430.033 559.812C437.164 567.113 444.294 574.411 451.425 581.71" fill="transparent" stroke="#11559B" stroke-width="1.33333" stroke-miterlimit="10"/>
<path d="M396.689 525.898C404.758 534.157 412.137 541.484 420.204 549.741" fill="transparent" stroke="#11559B" stroke-width="1.33333" stroke-miterlimit="10"/>
<path d="M275.978 402.11C301.349 428.084 326.729 454.067 352.121 480.059" fill="transparent" stroke="#11559B" stroke-width="1.33333" stroke-miterlimit="10"/>
<path d="M192 316.134C218.091 342.846 244.185 369.562 270.29 396.287" fill="transparent" stroke="#11559B" stroke-width="1.33333" stroke-miterlimit="10"/>
<path d="M-209.771 -95.3068C-80.1027 37.5173 49.2318 169.962 178.676 302.493" fill="transparent" stroke="#11559B" stroke-width="1.33333" stroke-miterlimit="10"/>
<path d="M607.65 770.685C681.355 846.283 754.852 921.736 828.687 997.317" fill="transparent" stroke="#11559B" stroke-width="1.33333" stroke-miterlimit="10"/>
<path d="M490.635 650.763C516.707 677.451 542.718 704.105 568.692 730.734" fill="transparent" stroke="#11559B" stroke-width="1.33333" stroke-miterlimit="10"/>
<path d="M258.865 413.559C280.513 435.708 302.171 457.874 323.844 480.06" fill="transparent" stroke="#11559B" stroke-width="1.33333" stroke-miterlimit="10"/>
<path d="M180.758 333.659C192.108 345.268 203.461 356.88 214.816 368.495" fill="transparent" stroke="#11559B" stroke-width="1.33333" stroke-miterlimit="10"/>
<path d="M-210.847 -66.9698C-84.153 62.8077 42.0254 191.774 168.405 321.026" fill="transparent" stroke="#11559B" stroke-width="1.33333" stroke-miterlimit="10"/>
<path d="M604.842 797.544C670.395 864.677 735.8 931.668 801.452 998.873" fill="transparent" stroke="#11559B" stroke-width="1.33333" stroke-miterlimit="10"/>
<path d="M490.635 680.608C506.914 697.271 523.17 713.915 539.409 730.541" fill="transparent" stroke="#11559B" stroke-width="1.33333" stroke-miterlimit="10"/>
<path d="M260.579 445.213C279.927 465.021 299.274 484.827 318.618 504.629" fill="transparent" stroke="#11559B" stroke-width="1.33333" stroke-miterlimit="10"/>
<path d="M168.693 351.142C194.713 377.783 220.732 404.419 246.746 431.052" fill="transparent" stroke="#11559B" stroke-width="1.33333" stroke-miterlimit="10"/>
<path d="M-211.008 -37.6944C-88.1082 88.1973 34.8788 214.137 157.815 340.005" fill="transparent" stroke="#11559B" stroke-width="1.33333" stroke-miterlimit="10"/>
<path d="M586.738 808.541C648.676 871.933 710.626 935.333 772.148 998.31" fill="transparent" stroke="#11559B" stroke-width="1.33333" stroke-miterlimit="10"/>
<path d="M460.189 679.015C476.916 696.137 493.665 713.281 510.428 730.438" fill="transparent" stroke="#11559B" stroke-width="1.33333" stroke-miterlimit="10"/>
<path d="M248.409 462.19C271.54 485.87 294.667 509.545 317.79 533.217" fill="transparent" stroke="#11559B" stroke-width="1.33333" stroke-miterlimit="10"/>
<path d="M181.044 393.347C202.405 415.221 223.755 437.082 245.088 458.92" fill="transparent" stroke="#11559B" stroke-width="1.33333" stroke-miterlimit="10"/>
<path d="M-210.644 -7.88315C-93.5054 112.106 24.135 232.652 141.503 352.854" fill="transparent" stroke="#11559B" stroke-width="1.33333" stroke-miterlimit="10"/>
<path d="M566.5 817.05C621.991 873.937 675.1 928.401 742.156 997.042" fill="transparent" stroke="#11559B" stroke-width="1.33333" stroke-miterlimit="10"/>
<path d="M439.042 686.466C454.05 701.829 468.371 716.494 482.18 730.638" fill="transparent" stroke="#11559B" stroke-width="1.33333" stroke-miterlimit="10"/>
<path d="M223.373 465.995C254.155 497.508 284.932 529.015 315.7 560.512" fill="transparent" stroke="#11559B" stroke-width="1.33333" stroke-miterlimit="10"/>
<path d="M163.073 404.261C166.014 407.272 168.956 410.283 171.896 413.293" fill="transparent" stroke="#11559B" stroke-width="1.33333" stroke-miterlimit="10"/>
<path d="M127.374 367.711C132.644 373.106 137.913 378.502 143.184 383.897" fill="transparent" stroke="#11559B" stroke-width="1.33333" stroke-miterlimit="10"/>
<path d="M-212.624 19.5297C-105.183 129.586 2.32782 239.681 109.805 349.724" fill="transparent" stroke="#11559B" stroke-width="1.33333" stroke-miterlimit="10"/>
<path d="M537.561 817.05C596.91 877.8 656.203 938.493 715.424 999.113" fill="transparent" stroke="#11559B" stroke-width="1.33333" stroke-miterlimit="10"/>
<path d="M164.156 434.806C260.6 533.545 357.001 632.226 453.281 730.78" fill="transparent" stroke="#11559B" stroke-width="1.33333" stroke-miterlimit="10"/>
<path d="M98.9613 368.057C113.091 382.525 127.221 396.991 141.351 411.457" fill="transparent" stroke="#11559B" stroke-width="1.33333" stroke-miterlimit="10"/>
<path d="M-212.335 49.2632C-114.149 149.841 -15.9019 250.451 82.3225 351.021" fill="transparent" stroke="#11559B" stroke-width="1.33333" stroke-miterlimit="10"/>
<path d="M508.757 816.999C568.122 877.768 627.433 938.478 686.669 999.113" fill="transparent" stroke="#11559B" stroke-width="1.33333" stroke-miterlimit="10"/>
<path d="M165.129 465.238C251.606 553.772 338.043 642.254 424.381 730.632" fill="transparent" stroke="#11559B" stroke-width="1.33333" stroke-miterlimit="10"/>
<path d="M70.5647 368.406C93.7218 392.128 116.896 415.857 140.058 439.571" fill="transparent" stroke="#11559B" stroke-width="1.33333" stroke-miterlimit="10"/>
<path d="M480.003 816.999C539.168 877.561 598.276 938.065 657.307 998.49" fill="transparent" stroke="#11559B" stroke-width="1.33333" stroke-miterlimit="10"/>
<path d="M165.844 495.406C242.493 573.876 319.108 652.304 395.645 730.65" fill="transparent" stroke="#11559B" stroke-width="1.33333" stroke-miterlimit="10"/>
<path d="M42.1452 368.74C74.3604 401.74 106.601 434.754 138.823 467.741" fill="transparent" stroke="#11559B" stroke-width="1.33333" stroke-miterlimit="10"/>
<path d="M-154.581 167.285C-92.4633 230.913 -30.2995 294.569 31.829 358.177" fill="transparent" stroke="#11559B" stroke-width="1.33333" stroke-miterlimit="10"/>
<path d="M327.881 690.72C429.87 795.119 529.997 897.607 628.161 998.09" fill="transparent" stroke="#11559B" stroke-width="1.33333" stroke-miterlimit="10"/>
<path d="M13.7252 369.059C90.3488 447.548 167.053 526.081 243.648 604.492" fill="transparent" stroke="#11559B" stroke-width="1.33333" stroke-miterlimit="10"/>
<path d="M-142.156 209.442C-92.4152 260.392 -42.6236 311.373 7.099 362.273" fill="transparent" stroke="#11559B" stroke-width="1.33333" stroke-miterlimit="10"/>
<path d="M316.528 708.531C411.019 805.256 505.393 901.855 599.557 998.244" fill="transparent" stroke="#11559B" stroke-width="1.33333" stroke-miterlimit="10"/>
<path d="M292.224 683.652C294.631 686.117 297.039 688.581 299.447 691.046" fill="transparent" stroke="#11559B" stroke-width="1.33333" stroke-miterlimit="10"/>
<path d="M236.927 627.046C239.332 629.509 241.738 631.971 244.143 634.433" fill="transparent" stroke="#11559B" stroke-width="1.33333" stroke-miterlimit="10"/>
<path d="M-212.389 166.965C-66.6269 316.276 79.286 465.671 224.999 614.836" fill="transparent" stroke="#11559B" stroke-width="1.33333" stroke-miterlimit="10"/>
<path d="M312.894 734.245C398.962 822.347 484.926 910.338 570.707 998.148" fill="transparent" stroke="#11559B" stroke-width="1.33333" stroke-miterlimit="10"/>
<path d="M250.307 670.178C253.007 672.943 255.707 675.706 258.407 678.47" fill="transparent" stroke="#11559B" stroke-width="1.33333" stroke-miterlimit="10"/>
<path d="M221.241 640.424C225.154 644.43 229.069 648.437 232.982 652.442" fill="transparent" stroke="#11559B" stroke-width="1.33333" stroke-miterlimit="10"/>
<path d="M-210.521 198.317C-70.5901 341.654 69.4856 485.072 209.368 628.271" fill="transparent" stroke="#11559B" stroke-width="1.33333" stroke-miterlimit="10"/>
<path d="M313.463 764.261C389.871 842.474 466.19 920.593 542.359 998.562" fill="transparent" stroke="#11559B" stroke-width="1.33333" stroke-miterlimit="10"/>
<path d="M250.255 699.559C264.774 714.421 279.29 729.28 293.803 744.137" fill="transparent" stroke="#11559B" stroke-width="1.33333" stroke-miterlimit="10"/>
<path d="M215.639 664.124C221.189 669.805 226.737 675.485 232.286 681.165" fill="transparent" stroke="#11559B" stroke-width="1.33333" stroke-miterlimit="10"/>
<path d="M-211.008 227.257C-88.4463 352.801 34.2291 478.41 156.776 603.867" fill="transparent" stroke="#11559B" stroke-width="1.33333" stroke-miterlimit="10"/>
<path d="M312.412 792.619C379.747 861.544 447.005 930.389 514.144 999.115" fill="transparent" stroke="#11559B" stroke-width="1.33333" stroke-miterlimit="10"/>
<path d="M287.009 766.615C289.414 769.078 291.82 771.54 294.225 774.002" fill="transparent" stroke="#11559B" stroke-width="1.33333" stroke-miterlimit="10"/>
<path d="M215.807 693.731C217.844 695.815 219.881 697.901 221.918 699.986" fill="transparent" stroke="#11559B" stroke-width="1.33333" stroke-miterlimit="10"/>
<path d="M-210.906 256.801C-93.6857 376.874 23.6432 497.008 140.852 616.999" fill="transparent" stroke="#11559B" stroke-width="1.33333" stroke-miterlimit="10"/>
<path d="M284.988 793.981C351.894 862.467 418.722 930.871 485.426 999.152" fill="transparent" stroke="#11559B" stroke-width="1.33333" stroke-miterlimit="10"/>
<path d="M239.297 747.211C249.268 757.416 259.236 767.622 269.204 777.824" fill="transparent" stroke="#11559B" stroke-width="1.33333" stroke-miterlimit="10"/>
<path d="M217.082 724.471C218.672 726.098 220.262 727.725 221.852 729.354" fill="transparent" stroke="#11559B" stroke-width="1.33333" stroke-miterlimit="10"/>
<path d="M-210.804 286.344C-105.969 393.731 -1.04291 501.169 103.797 608.499" fill="transparent" stroke="#11559B" stroke-width="1.33333" stroke-miterlimit="10"/>
<path d="M269.792 807.86C331.664 871.193 393.466 934.452 455.157 997.601" fill="transparent" stroke="#11559B" stroke-width="1.33333" stroke-miterlimit="10"/>
<path d="M232.038 769.214C238.838 776.175 245.637 783.134 252.435 790.094" fill="transparent" stroke="#11559B" stroke-width="1.33333" stroke-miterlimit="10"/>
<path d="M216.673 753.485C218.468 755.322 220.261 757.157 222.055 758.994" fill="transparent" stroke="#11559B" stroke-width="1.33333" stroke-miterlimit="10"/>
<path d="M88.8573 622.642C99.5986 633.638 110.338 644.633 121.078 655.626" fill="transparent" stroke="#11559B" stroke-width="1.33333" stroke-miterlimit="10"/>
<path d="M19.9613 552.094C37.7858 570.352 55.6244 588.618 73.4518 606.869" fill="transparent" stroke="#11559B" stroke-width="1.33333" stroke-miterlimit="10"/>
<path d="M244.278 811.176C305.49 873.834 366.631 936.417 427.66 998.888" fill="transparent" stroke="#11559B" stroke-width="1.33333" stroke-miterlimit="10"/>
<path d="M216.23 782.466C218.886 785.184 221.543 787.903 224.198 790.622" fill="transparent" stroke="#11559B" stroke-width="1.33333" stroke-miterlimit="10"/>
<path d="M104.199 667.783C109.84 673.558 115.907 679.552 121.549 685.327" fill="transparent" stroke="#11559B" stroke-width="1.33333" stroke-miterlimit="10"/>
<path d="M70.0893 632.863L76.0238 638.939" fill="transparent" stroke="#11559B" stroke-width="1.33333" stroke-miterlimit="10"/>
<path d="M-212.956 343.019C-122.744 435.427 -32.4601 527.875 57.7634 620.245" fill="transparent" stroke="#11559B" stroke-width="1.33333" stroke-miterlimit="10"/>
<path d="M215.441 811.091C276.653 873.75 337.793 936.332 398.817 998.798" fill="transparent" stroke="#11559B" stroke-width="1.33333" stroke-miterlimit="10"/>
<path d="M190.497 785.559C196.552 791.756 202.605 797.952 208.657 804.148" fill="transparent" stroke="#11559B" stroke-width="1.33333" stroke-miterlimit="10"/>
<path d="M77.3117 669.693C79.5657 672 81.8182 674.307 84.0722 676.614" fill="transparent" stroke="#11559B" stroke-width="1.33333" stroke-miterlimit="10"/>
<path d="M56.594 648.483C58.9086 650.852 61.2231 653.222 63.5377 655.59" fill="transparent" stroke="#11559B" stroke-width="1.33333" stroke-miterlimit="10"/>
<path d="M-210.499 374.974C-125.623 461.916 -40.6788 548.896 44.2107 635.804" fill="transparent" stroke="#11559B" stroke-width="1.33333" stroke-miterlimit="10"/>
<path d="M-210.986 403.914C-17.657 601.95 176.044 800.193 368.508 997.207" fill="transparent" stroke="#11559B" stroke-width="1.33333" stroke-miterlimit="10"/>
<path d="M-212.062 432.252C-27.5414 621.264 157.335 810.475 341.031 998.513" fill="transparent" stroke="#11559B" stroke-width="1.33333" stroke-miterlimit="10"/>
<path d="M-212.549 461.192C-37.5279 640.474 137.829 819.944 312.067 998.3" fill="transparent" stroke="#11559B" stroke-width="1.33333" stroke-miterlimit="10"/>
<path d="M-211.859 491.339C-46.4678 660.755 119.24 830.35 283.891 998.892" fill="transparent" stroke="#11559B" stroke-width="1.33333" stroke-miterlimit="10"/>
<path d="M-212.936 519.676C-57.0148 679.392 99.2037 839.276 254.427 998.166" fill="transparent" stroke="#11559B" stroke-width="1.33333" stroke-miterlimit="10"/>
<path d="M-208.646 553.922C-62.1268 704.008 84.6742 854.252 230.538 1003.56" fill="transparent" stroke="#11559B" stroke-width="1.33333" stroke-miterlimit="10"/>
<path d="M-210.789 581.167C-72.4729 722.85 66.1072 864.681 203.805 1005.63" fill="transparent" stroke="#11559B" stroke-width="1.33333" stroke-miterlimit="10"/>
<path d="M-206.264 615.24C-79.0505 745.549 48.4064 875.996 175.05 1005.63" fill="transparent" stroke="#11559B" stroke-width="1.33333" stroke-miterlimit="10"/>
<path d="M-208.075 642.824C-90.0538 763.719 28.1941 884.74 145.688 1005.01" fill="transparent" stroke="#11559B" stroke-width="1.33333" stroke-miterlimit="10"/>
<path d="M-210.526 669.754C-101.411 781.526 7.91405 893.414 116.541 1004.61" fill="transparent" stroke="#11559B" stroke-width="1.33333" stroke-miterlimit="10"/>
<path d="M-210.383 699.34C-110.857 801.286 -11.1417 903.342 87.937 1004.76" fill="transparent" stroke="#11559B" stroke-width="1.33333" stroke-miterlimit="10"/>
<path d="M-209.948 729.224C-120.192 821.165 -30.265 913.201 59.0887 1004.67" fill="transparent" stroke="#11559B" stroke-width="1.33333" stroke-miterlimit="10"/>
<path d="M-208.7 759.941C-128.818 841.766 -48.7836 923.678 30.741 1005.08" fill="transparent" stroke="#11559B" stroke-width="1.33333" stroke-miterlimit="10"/>
<path d="M-210.07 787.977C-139.144 860.63 -68.0831 933.358 2.52563 1005.63" fill="transparent" stroke="#11559B" stroke-width="1.33333" stroke-miterlimit="10"/>
<path d="M420.204 578.906L399.496 557.713" fill="transparent" stroke="#11559B" stroke-width="1.33333" stroke-miterlimit="10"/>
<path d="M420.204 606.032L404.668 589.613" fill="transparent" stroke="#11559B" stroke-width="1.33333" stroke-miterlimit="10"/>
<path d="M411.749 188.828C359.197 242.603 306.709 296.316 254.311 349.933" fill="transparent" stroke="#11559B" stroke-width="1.33333" stroke-miterlimit="10"/>
<path d="M815.242 -223.954C698.931 -105.019 582.545 14.0588 466.406 132.898" fill="transparent" stroke="#11559B" stroke-width="1.33333" stroke-miterlimit="10"/>
<path d="M383.009 188.806C335.237 237.691 287.519 286.522 239.879 335.27" fill="transparent" stroke="#11559B" stroke-width="1.33333" stroke-miterlimit="10"/>
<path d="M786.977 -224.465C672.356 -107.257 557.659 10.0938 443.213 127.201" fill="transparent" stroke="#11559B" stroke-width="1.33333" stroke-miterlimit="10"/>
<path d="M354.379 188.671C311.297 232.757 268.263 276.795 225.293 320.764" fill="transparent" stroke="#11559B" stroke-width="1.33333" stroke-miterlimit="10"/>
<path d="M758.213 -224.465C642.009 -105.638 525.726 13.3372 409.723 132.039" fill="transparent" stroke="#11559B" stroke-width="1.33333" stroke-miterlimit="10"/>
<path d="M325.449 188.735C287.267 227.805 249.124 266.838 211.034 305.814" fill="transparent" stroke="#11559B" stroke-width="1.33333" stroke-miterlimit="10"/>
<path d="M729.341 -224.465C622.765 -115.483 516.113 -6.36436 409.723 102.503" fill="transparent" stroke="#11559B" stroke-width="1.33333" stroke-miterlimit="10"/>
<path d="M296.571 188.798C266.579 219.49 236.612 250.155 206.677 280.786" fill="transparent" stroke="#11559B" stroke-width="1.33333" stroke-miterlimit="10"/>
<path d="M700.522 -224.464C598.166 -119.799 495.746 -15.0092 393.539 89.5737" fill="transparent" stroke="#11559B" stroke-width="1.33333" stroke-miterlimit="10"/>
<path d="M206.796 251.233C198.585 259.636 190.375 268.036 182.169 276.434" fill="transparent" stroke="#11559B" stroke-width="1.33333" stroke-miterlimit="10"/>
<path d="M267.81 188.798C253.729 203.206 239.655 217.608 225.589 232.002" fill="transparent" stroke="#11559B" stroke-width="1.33333" stroke-miterlimit="10"/>
<path d="M671.758 -224.464C578.996 -129.61 486.176 -34.6452 393.539 60.1455" fill="transparent" stroke="#11559B" stroke-width="1.33333" stroke-miterlimit="10"/>
<path d="M238.933 188.916C215.229 213.173 191.543 237.41 167.879 261.624" fill="transparent" stroke="#11559B" stroke-width="1.33333" stroke-miterlimit="10"/>
<path d="M642.993 -224.465C539.231 -118.36 435.399 -12.1252 331.807 93.877" fill="transparent" stroke="#11559B" stroke-width="1.33333" stroke-miterlimit="10"/>
<path d="M210.125 188.964C191.193 208.336 172.274 227.697 153.369 247.041" fill="transparent" stroke="#11559B" stroke-width="1.33333" stroke-miterlimit="10"/>
<path d="M614.229 -224.464C499.701 -107.35 385.091 9.91337 270.778 126.888" fill="transparent" stroke="#11559B" stroke-width="1.33333" stroke-miterlimit="10"/>
<path d="M585.465 -224.464C436.284 -71.9161 287.091 80.7747 138.969 232.345" fill="transparent" stroke="#11559B" stroke-width="1.33333" stroke-miterlimit="10"/>
<path d="M144.989 196.753C138.18 203.72 131.373 210.685 124.569 217.649" fill="transparent" stroke="#11559B" stroke-width="1.33333" stroke-miterlimit="10"/>
<path d="M556.7 -224.464C424.28 -89.0551 291.732 46.5918 159.864 181.532" fill="transparent" stroke="#11559B" stroke-width="1.33333" stroke-miterlimit="10"/>
<path d="M211.634 99.1235C177.844 133.7 144.092 168.239 110.39 202.726" fill="transparent" stroke="#11559B" stroke-width="1.33333" stroke-miterlimit="10"/>
<path d="M527.437 -223.954C424.658 -118.855 321.798 -13.6065 219.266 91.3127" fill="transparent" stroke="#11559B" stroke-width="1.33333" stroke-miterlimit="10"/>
<path d="M158.822 123.734C137.86 145.184 116.914 166.618 95.9901 188.03" fill="transparent" stroke="#11559B" stroke-width="1.33333" stroke-miterlimit="10"/>
<path d="M498.851 -224.136C404.458 -127.613 309.994 -30.9598 215.801 65.4282" fill="transparent" stroke="#11559B" stroke-width="1.33333" stroke-miterlimit="10"/>
<path d="M143.062 110.43C122.553 131.417 102.062 152.386 81.5901 173.333" fill="transparent" stroke="#11559B" stroke-width="1.33333" stroke-miterlimit="10"/>
<path d="M469.83 -223.874C386.25 -138.408 302.613 -52.8353 219.173 32.5464" fill="transparent" stroke="#11559B" stroke-width="1.33333" stroke-miterlimit="10"/>
<path d="M124.319 100.178C105.296 119.643 86.2901 139.094 67.2998 158.524" fill="transparent" stroke="#11559B" stroke-width="1.33333" stroke-miterlimit="10"/>
<path d="M441.855 -224.682C362.48 -143.515 283.051 -62.2484 203.801 18.8428" fill="transparent" stroke="#11559B" stroke-width="1.33333" stroke-miterlimit="10"/>
<path d="M113.308 82.0129C93.1168 102.675 72.9425 123.318 52.7907 143.94" fill="transparent" stroke="#11559B" stroke-width="1.33333" stroke-miterlimit="10"/>
<path d="M412.878 -224.465C337.559 -147.446 262.192 -70.336 186.989 6.61572" fill="transparent" stroke="#11559B" stroke-width="1.33333" stroke-miterlimit="10"/>
<path d="M113.178 52.714C88.2213 78.2534 63.2881 103.767 38.3901 129.245" fill="transparent" stroke="#11559B" stroke-width="1.33333" stroke-miterlimit="10"/>
<path d="M355.349 -224.464C244.77 -111.39 134.077 1.89963 24.0692 114.468" fill="transparent" stroke="#11559B" stroke-width="1.33333" stroke-miterlimit="10"/>
<path d="M326.39 -224.266C220.719 -116.21 114.937 -7.94651 9.81144 99.626" fill="transparent" stroke="#11559B" stroke-width="1.33333" stroke-miterlimit="10"/>
<path d="M297.42 -224.056C196.58 -120.939 95.632 -17.6244 -4.68848 85.032" fill="transparent" stroke="#11559B" stroke-width="1.33333" stroke-miterlimit="10"/>
<path d="M269.141 -224.552C172.929 -126.169 76.6151 -27.5967 -19.1002 70.3459" fill="transparent" stroke="#11559B" stroke-width="1.33333" stroke-miterlimit="10"/>
<path d="M241.081 -225.273C149.511 -131.636 57.8457 -37.8215 -33.2503 55.396" fill="transparent" stroke="#11559B" stroke-width="1.33333" stroke-miterlimit="10"/>
<path d="M211.358 -224.292C124.89 -135.872 38.3313 -47.2829 -47.6902 40.7407" fill="transparent" stroke="#11559B" stroke-width="1.33333" stroke-miterlimit="10"/>
<path d="M182.942 -224.65C101.144 -141.005 19.2581 -57.1996 -62.1187 26.0718" fill="transparent" stroke="#11559B" stroke-width="1.33333" stroke-miterlimit="10"/>
<path d="M153.369 -224.237C76.586 -145.721 -0.277205 -67.055 -76.664 11.1094" fill="transparent" stroke="#11559B" stroke-width="1.33333" stroke-miterlimit="10"/>
<path d="M383.829 70.0782C375.978 78.1064 368.122 86.1445 360.282 94.167" fill="transparent" stroke="#11559B" stroke-width="1.33333" stroke-miterlimit="10"/>
<path d="M384.27 660.137V602.971H379.371V654.975" fill="transparent" stroke="#11559B" stroke-width="1.33333" stroke-miterlimit="10"/>
<path d="M418.265 639.633C403.098 595.715 398.026 554.383 396.655 524.811C395.387 497.477 397.279 480.188 397.279 480.188H324.507H316.913C316.913 480.188 317.22 481.845 317.618 484.809C318.383 490.505 318.738 497.162 318.836 504.022C318.978 514.121 318.558 524.66 318.051 533.218C317.426 543.76 316.669 551.293 316.669 551.293C316.624 551.761 316.573 552.227 316.531 552.693C315.891 559.873 312.887 585.736 312.798 586.651" fill="transparent" stroke="#11559B" stroke-width="1.33333" stroke-miterlimit="10"/>
<path d="M393.482 484.996H321.912" fill="transparent" stroke="#11559B" stroke-width="1.33333" stroke-miterlimit="10"/>
<path d="M392.083 522.24H325.109" fill="transparent" stroke="#11559B" stroke-width="1.33333" stroke-miterlimit="10"/>
<path d="M392.083 527.087H325.109" fill="transparent" stroke="#11559B" stroke-width="1.33333" stroke-miterlimit="10"/>
<path d="M394.297 561.087H321.93" fill="transparent" stroke="#11559B" stroke-width="1.33333" stroke-miterlimit="10"/>
<path d="M395.36 565.934H321.361" fill="transparent" stroke="#11559B" stroke-width="1.33333" stroke-miterlimit="10"/>
<path d="M398.347 674.454V599.691C398.347 599.691 386.085 596.683 381.82 596.683C377.754 596.683 365.03 599.691 365.03 599.691V627.946H359.964V606.448C358.9 605.841 357.386 605.058 355.5 604.342C353.964 603.757 348.034 601.637 340.139 602.439C337.791 602.679 334.315 603.351 330.572 604.819" fill="transparent" stroke="#11559B" stroke-width="1.33333" stroke-miterlimit="10"/>
<path d="M473.247 631.704H466.651V624.934H473.247V631.704Z" fill="transparent" stroke="#11559B" stroke-width="1.33333" stroke-miterlimit="10"/>
<path d="M485.385 631.704H478.789V624.934H485.385V631.704Z" fill="transparent" stroke="#11559B" stroke-width="1.33333" stroke-miterlimit="10"/>
<path d="M398.734 656.366H453.805V650.206H398.478" fill="transparent" stroke="#11559B" stroke-width="1.33333" stroke-miterlimit="10"/>
<path d="M439.042 686.467H453.805V680.322H404.257" fill="transparent" stroke="#11559B" stroke-width="1.33333" stroke-miterlimit="10"/>
<path d="M398.564 671.242H453.805V665.082H398.513" fill="transparent" stroke="#11559B" stroke-width="1.33333" stroke-miterlimit="10"/>
<path d="M460.189 679.014V639.798H398.664" fill="transparent" stroke="#11559B" stroke-width="1.33333" stroke-miterlimit="10"/>
<path d="M490.577 679.787V613.229H425.736V625.242H460.306V631.362H420.204V537.544H430.033V607.896" fill="transparent" stroke="#11559B" stroke-width="1.33333" stroke-miterlimit="10"/>
<path d="M521.171 599.342H437.302V592.153H510.838V587.123H447.963C447.963 587.123 455.389 570.532 476.735 570.532C489.256 570.532 499.015 577.254 504.245 582.678L504.248 582.68" fill="transparent" stroke="#11559B" stroke-width="1.33333" stroke-miterlimit="10"/>
<path d="M521.063 652.101L521.171 599.342" fill="transparent" stroke="#11559B" stroke-width="1.33333" stroke-miterlimit="10"/>
<path d="M-130.962 162.033C-68.2273 226.295 -5.4447 290.585 57.3055 354.829" fill="transparent" stroke="#11559B" stroke-width="1.33333" stroke-miterlimit="10"/>
<path d="M-124.335 405.237C-81.3338 449.285 -38.297 493.354 4.71014 537.383" fill="transparent" stroke="#11559B" stroke-width="1.33333" stroke-miterlimit="10"/>
</g>
</svg>
