<svg width="31" height="31" viewBox="0 0 31 31" xmlns="http://www.w3.org/2000/svg">
<path d="M11.8506 7.61179C11.5118 7.27286 11.5118 6.72365 11.8506 6.38484C12.02 6.21549 12.242 6.1307 12.464 6.1307C12.6861 6.1307 12.9081 6.21549 13.0774 6.38484L21.5795 14.8869C21.9184 15.2257 21.9184 15.775 21.5795 16.1138L13.0774 24.6158C12.7388 24.9545 12.1894 24.9545 11.8506 24.6158C11.5118 24.277 11.5118 23.7277 11.8506 23.3889L19.7392 15.5003L11.8506 7.61179ZM15.5003 31.0005C24.0609 31.0005 31.0006 24.0608 31.0006 15.5003C31.0006 6.93972 24.0609 0 15.5003 0C6.9398 0 7.62939e-05 6.93972 7.62939e-05 15.5003C7.62939e-05 24.0608 6.9398 31.0005 15.5003 31.0005Z" fill="currentColor"/>
</svg>
