<svg width="31" height="31" viewBox="0 0 31 31" xmlns="http://www.w3.org/2000/svg">
<path d="M19.1499 23.3882C19.4887 23.7271 19.4887 24.2764 19.1499 24.6152C18.9805 24.7845 18.7584 24.8693 18.5365 24.8693C18.3144 24.8693 18.0924 24.7845 17.923 24.6152L9.42103 16.1131C9.08211 15.7743 9.08211 15.225 9.42103 14.8862L17.923 6.38419C18.2617 6.0455 18.8111 6.0455 19.1499 6.38419C19.4887 6.723 19.4887 7.27233 19.1499 7.61114L11.2613 15.4997L19.1499 23.3882ZM15.5001 -0.000534058C6.9396 -0.000534058 -0.00012207 6.93919 -0.00012207 15.4997C-0.00012207 24.0603 6.9396 31 15.5001 31C24.0607 31 31.0004 24.0603 31.0004 15.4997C31.0004 6.93919 24.0607 -0.000534058 15.5001 -0.000534058Z" fill="currentColor"/>
</svg>
