<svg width="113" height="22" viewBox="0 0 113 22" fill="none" xmlns="http://www.w3.org/2000/svg">
<g clip-path="url(#clip0_5_8742)">
<mask id="mask0_5_8742" style="mask-type:luminance" maskUnits="userSpaceOnUse" x="0" y="0" width="113" height="22">
<path d="M112.651 0H0V21.417H112.651V0Z" fill="white"/>
</mask>
<g mask="url(#mask0_5_8742)">
<path d="M9.71627 21.417C3.96542 21.417 0 16.6849 0 11.2592C0 4.77293 5.75089 0 12.1246 0C13.6402 0 17.2735 0.183574 17.2735 2.32527C17.2735 3.34513 16.1316 4.46697 15.0519 4.46697C13.4118 4.44658 11.7094 1.4278 9.34258 1.4278C5.56404 1.4278 3.77857 5.75199 3.77857 8.89315C3.77857 14.8695 7.93083 18.6838 12.6021 18.6838C14.4084 18.6838 15.7163 18.0923 17.1282 17.1131C17.4187 17.2764 17.7094 17.4395 18.0209 17.5619V17.5824C15.9031 19.928 12.9758 21.417 9.71627 21.417Z" fill="#333333"/>
<path d="M28.4014 2.50888V2.03974L34.0069 3.05176e-05L34.526 0.183604L34.1523 3.56953C36.8513 1.6318 39.4464 3.05176e-05 42.4776 3.05176e-05C48.1454 3.05176e-05 48.4154 4.58939 48.4154 7.32257V15.5834C48.4154 19.3773 48.6022 19.7649 52.09 20.2747V20.9682H41.0866V20.2747C44.5744 19.7649 44.7198 19.2142 44.7613 15.5834V10.2394C44.7613 6.99627 44.9066 2.40689 39.1559 2.40689C37.225 2.40689 35.8962 3.01881 34.3391 4.40581V15.5834C34.3391 19.3773 34.526 19.7649 38.0139 20.2747V20.9682H27.0104V20.2747C30.4984 19.7649 30.6437 19.2142 30.6852 15.5834V6.7311C30.7267 4.77296 30.7682 4.18144 28.4014 2.50888Z" fill="#333333"/>
<path d="M64.0481 5.56845L54.9962 5.9356C55.4945 3.61032 57.093 1.01989 59.792 1.01989C62.2834 1.01989 63.6122 3.42675 64.0481 5.56845ZM54.6432 9.13792L54.8301 6.81268H68.5117C68.3249 2.65166 65.5015 3.05176e-05 61.2452 3.05176e-05C54.8716 3.05176e-05 50.6362 5.14011 50.6362 11.1368C50.6362 16.7054 54.6847 21.4374 60.5394 21.4374C64.2142 21.4374 67.4322 19.0713 69.2176 16.0526L68.5117 15.5427C67.1 17.3988 65.3976 18.4594 62.9478 18.4594C57.612 18.4594 54.2696 13.9517 54.6432 9.13792Z" fill="#333333"/>
<path d="M77.0248 21.417L70.236 4.87489C69.3849 2.87597 68.8659 1.3054 66.3123 1.16262V0.469116H76.2779V1.16262C72.7895 1.2646 73.3915 2.73319 74.2428 4.91569L78.7687 16.2769L83.2119 5.97634C81.7587 2.26406 81.6964 1.57056 78.9144 1.16262V0.469116H89.0044V1.16262C85.4746 1.3054 85.9317 2.6924 86.5128 4.22219L91.143 16.2769C93.0318 12.1567 96.3333 5.01767 96.3333 2.83518C96.3333 1.3054 94.8799 1.3054 93.6962 1.16262V0.469116H101.668V1.16262C98.9697 1.34619 98.264 3.20233 97.2882 5.28284L89.8969 21.417H89.2325L83.6271 7.32255L77.7313 21.417H77.0248Z" fill="#333333"/>
<path d="M110.387 5.83359C109.723 3.69189 108.685 1.10146 106.007 1.10146C104.076 1.10146 102.892 2.48846 102.892 4.3446C102.892 9.11755 112.671 8.97475 112.671 14.9715C112.671 19.0918 108.664 21.417 104.844 21.417C102.768 21.417 100.733 20.8662 99.0931 19.7037L98.7192 14.5636L99.7995 14.38C100.464 17.2152 102.062 20.2136 105.405 20.2136C107.585 20.2136 109.038 18.643 109.038 16.5421C109.038 11.2592 99.2598 12.3199 99.2598 5.69081C99.2598 2.08052 102.706 -0.0203857 106.048 -0.0203857C107.896 -0.0203857 109.785 0.489543 111.281 1.5094L111.425 5.62962L110.387 5.83359Z" fill="#333333"/>
<path d="M15.1968 10.7084C15.1968 7.50601 17.8336 4.91559 21.0929 4.91559C24.3526 4.91559 26.9892 7.50601 26.9892 10.7084C26.9892 13.9107 24.3526 16.5011 21.0929 16.5011C17.8542 16.5011 15.1968 13.9107 15.1968 10.7084Z" fill="#333333"/>
<path d="M16.2141 8.30164C16.2141 6.97584 17.3145 5.89481 18.664 5.89481C20.0135 5.89481 21.1138 6.97584 21.1138 8.30164C21.1138 9.62745 20.0135 10.7085 18.664 10.7085C17.3145 10.7085 16.2141 9.62745 16.2141 8.30164Z" fill="white"/>
</g>
</g>
<defs>
<clipPath id="clip0_5_8742">
<rect width="113" height="22" fill="white"/>
</clipPath>
</defs>
</svg>
