<svg xmlns="http://www.w3.org/2000/svg" xmlns:xlink="http://www.w3.org/1999/xlink"><defs><clipPath id="clip0_5_8742"><path fill="#fff" d="M0 0h113v22H0z"/></clipPath></defs><symbol id="cnews-logo" viewBox="0 0 113 22"><g clip-path="url(#clip0_5_8742)"><mask id="mask0_5_8742" style="mask-type:luminance" maskUnits="userSpaceOnUse" x="0" y="0" width="113" height="22"><path d="M112.651 0H0v21.417h112.651V0z" fill="#fff"/></mask><g mask="url(#mask0_5_8742)"><path d="M9.716 21.417C3.966 21.417 0 16.685 0 11.259 0 4.773 5.75 0 12.125 0c1.515 0 5.148.184 5.148 2.325 0 1.02-1.141 2.142-2.221 2.142-1.64-.02-3.343-3.04-5.71-3.04-3.778 0-5.563 4.325-5.563 7.466 0 5.976 4.152 9.79 8.823 9.79 1.806 0 3.114-.59 4.526-1.57.29.163.581.326.893.449v.02c-2.118 2.346-5.045 3.835-8.305 3.835zM28.401 2.509v-.47L34.007 0l.519.184-.374 3.386C36.852 1.632 39.446 0 42.478 0c5.667 0 5.937 4.59 5.937 7.323v8.26c0 3.794.187 4.182 3.675 4.692v.693H41.087v-.693c3.487-.51 3.633-1.06 3.674-4.692V10.24c0-3.243.146-7.832-5.605-7.832-1.931 0-3.26.612-4.817 1.999v11.177c0 3.794.187 4.182 3.675 4.692v.693H27.01v-.693c3.488-.51 3.634-1.06 3.675-4.692V6.731c.042-1.958.083-2.55-2.284-4.222z" fill="#333"/><path d="M64.048 5.568l-9.052.368c.498-2.326 2.097-4.916 4.796-4.916 2.491 0 3.82 2.407 4.256 4.548zm-9.405 3.57l.187-2.325h13.682C68.325 2.652 65.502 0 61.245 0c-6.373 0-10.609 5.14-10.609 11.137 0 5.568 4.049 10.3 9.903 10.3 3.675 0 6.893-2.366 8.679-5.384l-.706-.51c-1.412 1.856-3.114 2.916-5.564 2.916-5.336 0-8.678-4.507-8.305-9.321z" fill="#333"/><path d="M77.025 21.417L70.236 4.875c-.851-1.999-1.37-3.57-3.924-3.712V.469h9.966v.694c-3.489.102-2.887 1.57-2.035 3.753l4.526 11.36 4.443-10.3c-1.453-3.712-1.516-4.405-4.298-4.813V.469h10.09v.694c-3.53.142-3.072 1.53-2.491 3.06l4.63 12.054c1.889-4.12 5.19-11.26 5.19-13.442 0-1.53-1.453-1.53-2.637-1.672V.469h7.972v.694c-2.698.183-3.404 2.04-4.38 4.12l-7.391 16.134h-.665L83.627 7.323l-5.896 14.094h-.706z" fill="#333"/><path d="M110.387 5.834c-.664-2.142-1.702-4.733-4.38-4.733-1.931 0-3.115 1.387-3.115 3.244 0 4.773 9.779 4.63 9.779 10.627 0 4.12-4.007 6.445-7.827 6.445-2.076 0-4.111-.55-5.75-1.713l-.375-5.14 1.08-.184c.665 2.835 2.263 5.834 5.606 5.834 2.18 0 3.633-1.571 3.633-3.672 0-5.283-9.778-4.222-9.778-10.851 0-3.61 3.446-5.711 6.788-5.711 1.848 0 3.737.51 5.233 1.53l.144 4.12-1.038.204zm-95.19 4.874c0-3.202 2.637-5.792 5.896-5.792 3.26 0 5.896 2.59 5.896 5.792 0 3.203-2.636 5.793-5.896 5.793-3.239 0-5.896-2.59-5.896-5.793z" fill="#333"/><path d="M16.214 8.302c0-1.326 1.1-2.407 2.45-2.407s2.45 1.08 2.45 2.407c0 1.325-1.1 2.407-2.45 2.407s-2.45-1.082-2.45-2.407z" fill="#fff"/></g></g></symbol><symbol id="hero" viewBox="0 0 1438 282"><path d="M1373.57 198.42c-2.5 0-4.52-2.024-4.52-4.52 0-2.496 2.02-4.52 4.52-4.52 2.49 0 4.52 2.024 4.52 4.52 0 2.496-2.03 4.52-4.52 4.52zm9.86 11.727c-2.5 0-4.52-2.024-4.52-4.52a4.517 4.517 0 014.52-4.519c2.49 0 4.52 2.023 4.52 4.519s-2.03 4.52-4.52 4.52zm22.3-1.835a4.524 4.524 0 01-4.52-4.52c0-2.496 2.03-4.52 4.52-4.52 2.5 0 4.52 2.024 4.52 4.52 0 2.496-2.02 4.52-4.52 4.52zm-9.94-9.943c-2.5 0-4.52-2.024-4.52-4.52a4.517 4.517 0 014.52-4.519c2.49 0 4.52 2.023 4.52 4.519s-2.03 4.52-4.52 4.52zm-34.15-11.562a4.524 4.524 0 01-4.52-4.52c0-2.496 2.03-4.52 4.52-4.52 2.5 0 4.52 2.024 4.52 4.52 0 2.496-2.02 4.52-4.52 4.52zm0-34.839a4.524 4.524 0 01-4.52-4.52c0-2.496 2.03-4.52 4.52-4.52 2.5 0 4.52 2.024 4.52 4.52 0 2.496-2.02 4.52-4.52 4.52zm-96.32-34.839a4.524 4.524 0 01-4.52-4.52c0-2.496 2.03-4.52 4.52-4.52 2.5 0 4.52 2.024 4.52 4.52 0 2.496-2.02 4.52-4.52 4.52zm56 116.13c-2.5 0-4.52-2.024-4.52-4.52a4.517 4.517 0 014.52-4.519c2.5 0 4.52 2.023 4.52 4.519s-2.02 4.52-4.52 4.52zm-4.9 11.613a4.524 4.524 0 01-4.52-4.52 4.523 4.523 0 014.52-4.519c2.5 0 4.52 2.023 4.52 4.519s-2.02 4.52-4.52 4.52zm107.02-23.226c-2.5 0-4.52-2.024-4.52-4.52 0-2.496 2.02-4.52 4.52-4.52 2.5 0 4.52 2.024 4.52 4.52 0 2.496-2.02 4.52-4.52 4.52zm-17.71 11.613a4.524 4.524 0 01-4.52-4.52 4.523 4.523 0 014.52-4.519c2.5 0 4.52 2.023 4.52 4.519s-2.02 4.52-4.52 4.52zm-22.3 11.613c-2.5 0-4.52-2.024-4.52-4.52a4.517 4.517 0 014.52-4.519c2.49 0 4.52 2.023 4.52 4.519s-2.03 4.52-4.52 4.52zm22.3 11.613a4.524 4.524 0 01-4.52-4.52 4.523 4.523 0 014.52-4.519c2.5 0 4.52 2.023 4.52 4.519s-2.02 4.52-4.52 4.52zm-26.82-116.13c-2.5 0-4.52-2.024-4.52-4.52 0-2.496 2.02-4.52 4.52-4.52 2.49 0 4.52 2.024 4.52 4.52 0 2.496-2.03 4.52-4.52 4.52zm-62.36-11.613c-2.5 0-4.52-2.024-4.52-4.52 0-2.496 2.02-4.52 4.52-4.52 2.5 0 4.52 2.024 4.52 4.52 0 2.496-2.02 4.52-4.52 4.52zm27.92 34.839c-2.5 0-4.52-2.024-4.52-4.52 0-2.496 2.02-4.52 4.52-4.52 2.5 0 4.52 2.024 4.52 4.52 0 2.496-2.02 4.52-4.52 4.52zm72.53-11.613a4.524 4.524 0 01-4.52-4.52c0-2.496 2.03-4.52 4.52-4.52 2.5 0 4.52 2.024 4.52 4.52 0 2.496-2.02 4.52-4.52 4.52zm-17.17 11.613c-2.5 0-4.52-2.024-4.52-4.52 0-2.496 2.02-4.52 4.52-4.52 2.5 0 4.52 2.024 4.52 4.52 0 2.496-2.02 4.52-4.52 4.52zm32.65 11.613c-2.5 0-4.52-2.024-4.52-4.52 0-2.496 2.02-4.52 4.52-4.52 2.5 0 4.52 2.024 4.52 4.52 0 2.496-2.02 4.52-4.52 4.52zm-31.22 76.771h-107.69m18.23-11.613h-14.05m80.26 0h-19.57m-41.81-11.613l-15.95-.038m100.58.038h-54.04m-46.3-11.613h-157.2m275.63 0l-69.99-.036m-25.52-11.577h-191.39m245.56 0h-27.39m-24.66-11.613h-204.78m247.35 0h-29.47m-11.87-11.613h-217.46m318.23-11.613h-309.04m164.13-11.613h-165.01m221.91 0h-27.72m82.27 0h-27.72M1182.3 141.38h-32.34m207.16 6.068h-34.08m89.64 0h-34.98m-3.31-11.613h-68.12m5.76-11.613h-112.57m128.04 58.065l23.12 23.125m22.04-34.687l20 19.998m-63.6-19.998l11.56 11.562m-96.14-11.613l11.58 11.588m11.39 11.78l11.56 11.562m-39.28-23.271l11.56 11.562m37.83 23.244l11.56 11.562m-26.16-11.575l23.23 23.226m-39.51-23.375l34.99 34.988m32.73-58.065l23.4 23.19m-25.52-11.577l34.57 34.878m-57-69.717l21.63-22.902m33.03 22.902l21.63-22.902m14.7 69.354l10.13-10.138m-116.43-36.247l23.3-23.293m-7.76 69.693l11.64-11.646" fill="transparent" stroke="#0E559A" stroke-width="1.333" stroke-miterlimit="10" stroke-linecap="round" stroke-linejoin="round"/><path d="M1182.3 141.38l28.35-28.352v-.419h50.15m104.72 159.562c-2.5 0-4.52 2.024-4.52 4.52 0 2.496 2.02 4.52 4.52 4.52 2.49 0 4.52-2.024 4.52-4.52 0-2.496-2.03-4.52-4.52-4.52zm17.4-11.613a4.524 4.524 0 00-4.52 4.52c0 2.496 2.03 4.52 4.52 4.52 2.5 0 4.52-2.024 4.52-4.52 0-2.496-2.02-4.52-4.52-4.52zm-4.52 4.52h-56.2m38.8 11.613h-27.19m-36.06-36.339l36.06 36.337m-50.76-117.628l23.22-23.226m34.35 46.452h16.5m-227.18-60.596h9.66m8.05-85.316h-101.6m211.04 15.349h-153.46m163.55.087a5.045 5.045 0 11-5.04-5.046c2.78 0 5.04 2.259 5.04 5.046zM45.257 35.445a5.697 5.697 0 11-11.395 0 5.697 5.697 0 0111.395 0zm984.573 133.982v15.189m44.36-36.867l83.06 83.064m-182.79-117.97l-46.827-46.827m6.368-8.329l41.637 41.794m1.454-13.436l-36.288-36.588M1239.03 16.38h-149.81m-10.87.4a5.136 5.136 0 0110.27 0 5.136 5.136 0 01-10.27 0zm122.89 9.598h-136.6m136.6 0a5.136 5.136 0 0110.27 0 5.136 5.136 0 01-10.27 0zm-147.23 0a5.136 5.136 0 0110.27 0 5.136 5.136 0 01-10.27 0zm94.25-19.773h-96.36m96.36 0c0-2.834 2.3-5.132 5.13-5.132 2.84 0 5.13 2.298 5.13 5.132a5.127 5.127 0 01-5.13 5.133 5.134 5.134 0 01-5.13-5.133zm91.28 9.775a5.127 5.127 0 015.13-5.132 5.134 5.134 0 010 10.266 5.127 5.127 0 01-5.13-5.133zm-197.91-9.775c0-2.834 2.3-5.132 5.13-5.132 2.84 0 5.13 2.298 5.13 5.132a5.127 5.127 0 01-5.13 5.133 5.134 5.134 0 01-5.13-5.133zm65.97 106.191l5.92 5.93m-5.97-19.4l22.39 22.365m-22.41-35.768l32.9 32.803m-67.28-37.333h-17.75v9.06h17.75v-9.06zm8.1-14.308h-9.06v9.06h9.06v-9.06zm41.33 51.641h-9.07v9.061h9.07v-9.061zm-49.43-23.924h-17.75v9.061h17.75v-9.06zm0 13.41h-17.75v9.061h17.75v-9.061zm0-22.289h34.38m-25.6-13.984h16.53m-25.31 27.394h34.38m-34.38 13.409h34.38m-66.01 28.272h9.06v-17.758h-9.06v17.758zm-13.41 0h9.06v-17.758h-9.06v17.758zm-13.41 0h9.06v-17.758h-9.06v17.758zm31.35.001v14.732m-13.41-14.732v16.349m107.79-11.501h9.06v-8.966h-9.06v8.966zm-13.51-.129h9.06v-8.966h-9.06v8.966zm-13.41 0h9.06v-8.966h-9.06v8.966zm31.45.129v12.738m-13.51-12.866v12.738M1023.76 57.604h-9.06v17.758h9.06V57.604zm13.41 0h-9.06v17.758h9.06V57.604zm13.41 0h-9.06v17.758h9.06V57.604zm-31.35-.001V31.667m13.41 25.936V30.67m13.41 26.933V11.648m-53.926 105.773h17.756v-9.06h-17.756v9.06zm0-13.409h17.756v-9.06h-17.756v9.06zm0-13.41h17.756v-9.06h-17.756v9.06zm0 22.289h-17.341m17.341-13.41h-16.485m16.485-13.409l-15.032-.027m121.368-28.218v14.112m57.94 48.519a4.292 4.292 0 016.07 0 4.302 4.302 0 010 6.069 4.292 4.292 0 01-6.07 0 4.284 4.284 0 010-6.069zm-39.35-38.962a4.281 4.281 0 016.06 0 4.285 4.285 0 010 6.07 4.281 4.281 0 01-6.06 0 4.285 4.285 0 010-6.07zm6.1 5.923l32.9 32.802m-3.94-17.152a4.292 4.292 0 016.07 0 4.302 4.302 0 010 6.069 4.292 4.292 0 01-6.07 0 4.284 4.284 0 010-6.069zm-38.88-38.962a4.293 4.293 0 016.07 0 4.303 4.303 0 010 6.07 4.293 4.293 0 01-6.07 0 4.285 4.285 0 010-6.07zm6.29 5.75l32.9 32.803m146.76-69.914a5.123 5.123 0 017.25 0 5.122 5.122 0 010 7.258 5.122 5.122 0 01-7.25 0 5.122 5.122 0 010-7.258zm-149.43 0a5.135 5.135 0 017.26 0c2 2.004 2 5.254 0 7.258a5.134 5.134 0 01-7.26 0 5.14 5.14 0 010-7.258zm-55.19 15.349a5.122 5.122 0 017.25 0 5.122 5.122 0 010 7.258 5.122 5.122 0 01-7.25 0 5.122 5.122 0 010-7.258zm203.11-11.72h-138.56m-90.74 88.374a4.294 4.294 0 016.07 0 4.285 4.285 0 010 6.07 4.292 4.292 0 01-6.07 0 4.303 4.303 0 010-6.07zm72.49-6.092a4.292 4.292 0 016.07 0 4.302 4.302 0 010 6.069 4.292 4.292 0 01-6.07 0 4.284 4.284 0 010-6.069zm-56.03 6.092a4.294 4.294 0 016.07 0 4.285 4.285 0 010 6.07 4.292 4.292 0 01-6.07 0 4.285 4.285 0 010-6.07zm-16.85 17.073a4.292 4.292 0 016.07 0 4.302 4.302 0 010 6.069 4.292 4.292 0 01-6.07 0 4.284 4.284 0 010-6.069z" fill="transparent" stroke="#0E559A" stroke-width="1.333" stroke-miterlimit="10" stroke-linecap="round" stroke-linejoin="round"/><path d="M1074.27 131.328l43.74 43.674.03-2.745v-26.522m-30.25-.879h-11.65m11.73-12.293v11.797m-90.337 6.028a4.292 4.292 0 11-6.07-6.07 4.292 4.292 0 016.07 6.07zm-16.457 0a4.292 4.292 0 11-6.07-6.07 4.292 4.292 0 016.07 6.07zm0 17.185a4.292 4.292 0 11-6.07-6.07 4.292 4.292 0 016.07 6.07zm0 12.428a4.292 4.292 0 11-6.07-6.07 4.292 4.292 0 016.07 6.07zm16.853-46.685a4.292 4.292 0 11-6.07-6.07 4.292 4.292 0 016.07 6.07zm-6.29 10.494l-44.058-44.237m30.537 30.708h11.644m-11.721 12.294v-11.797m57.629-101.365a4.293 4.293 0 01-6.07 0 4.303 4.303 0 010-6.07 4.293 4.293 0 016.07 0 4.285 4.285 0 010 6.07zm-37.499 33.44c1.999-2.004 5.249-2.004 7.259 0 2 2.004 2 5.255 0 7.259a5.133 5.133 0 11-7.259-7.259zm3.629-31.186V61.35m-21.919-11.96a5.133 5.133 0 117.258 7.258 5.133 5.133 0 01-7.258-7.259zm0-27.551a5.133 5.133 0 117.258 7.26 5.133 5.133 0 01-7.258-7.26zm-209.092 7.287a5.133 5.133 0 117.258 7.26 5.133 5.133 0 01-7.258-7.26zm22.532 8.31a5.133 5.133 0 117.258 7.26 5.133 5.133 0 01-7.258-7.26zm204.85-15.597c1.999-2.004 5.249-2.004 7.259 0 2 2.004 2 5.254 0 7.258a5.133 5.133 0 11-7.259-7.258zm-49.072 192.446a5.133 5.133 0 117.259 7.258 5.133 5.133 0 01-7.259-7.258zm31.88-13.483a5.133 5.133 0 117.258 7.26 5.133 5.133 0 01-7.258-7.26zm45.221-13.978a5.135 5.135 0 017.26 0c2 2.004 2 5.254 0 7.258a5.133 5.133 0 01-7.26 0 5.14 5.14 0 010-7.258zm2.9 27.597a5.123 5.123 0 017.25 0 5.122 5.122 0 010 7.258 5.121 5.121 0 01-7.25 0 5.122 5.122 0 010-7.258zm63.31 17.59a5.135 5.135 0 017.26 0 5.122 5.122 0 010 7.258 5.133 5.133 0 01-7.26 0 5.14 5.14 0 010-7.258zm64.19 0a5.123 5.123 0 017.25 0 5.122 5.122 0 010 7.258 5.121 5.121 0 01-7.25 0 5.122 5.122 0 010-7.258zm-141-210.172a5.135 5.135 0 017.26 0c2 2.004 2 5.254 0 7.258a5.134 5.134 0 01-7.26 0 5.14 5.14 0 010-7.258zm-32.298 9.828v16.09m59.478 47.045l-4.48-5.628m4.49 13.977l-11.13-13.977m9.15 20.318l-16.17-20.318m9.15 20.318l-11.32-14.226m4.3 14.226l-4.3-5.403m-7.78-22.696h35.88v35.88h-35.88v-35.88z" fill="transparent" stroke="#0E559A" stroke-width="1.333" stroke-miterlimit="10" stroke-linecap="round" stroke-linejoin="round"/><path d="M1022.47 89.174h20.32v20.318h-20.32V89.174zm49.37 92.368l-25.79-25.795m25.79 40.822l-39.2-39.205m59.77 74.647l-62.58-62.584m-.73 44.994l-9.78-10.275-.09-45.79v-17.341m51.78 8.174l.83 47.379m-84.159 4.79l31.129-31.129m-62.137 45.209l62.557-62.557m-53.212-34.155v37.021m-9.178-46.721v49.161m9.178-2.44l7.989 7.989m-17.073-5.549l16.816 16.816m-93.12-84.075h-.072m0 0h-80.439m72.129-8.31H796.95m78.74-8.309h-11.753m-71.345 0h71.346m14.95-8.311h-92.092m127.011 0h13.826m-36.731 0h11.754m-32.159-8.311h-91.391m154.895 0h-51.428m-10.325 24.931l8.31 8.31m0 .001l.332.333m.001 0l8.31 8.31M875.69 74.309l16.953 16.953m-22.146-33.575l33.899 33.575m11.752 0l8.31 8.31m-41.885-41.885l33.575 33.575m-21.821-33.575l33.575 33.575m-50.197-50.197l8.352 8.352m50.156 50.156l-8.31-8.31m-30.868-41.886l-16.754-16.622m58.973 58.507l-33.843-33.575m-4.457 41.886h-11.753m23.505 0h-11.752m46.627 0h-11.368m11.368 0h13.12m-36.242 0h-11.753m-8.311-8.311h-11.752m60.086 0h-13.475m-151.02 70.116h124.127m-141.796 17.047h89.436m-86.906 8.524h69.499m-.001 10.477v-10.477m17.408 29.066v-37.13m-79.115-8.984h114.291m.001-33.917v16.87m0 34.983v-17.936m26.502-8.523a4.66 4.66 0 11-9.318 0 4.66 4.66 0 019.318 0zm-21.509-30.231a4.66 4.66 0 11-4.659-4.66 4.659 4.659 0 014.659 4.66zm-22.172-10.333a4.66 4.66 0 11-9.319.001 4.66 4.66 0 019.319-.001zm-30.746 81.643a4.66 4.66 0 11-9.32 0 4.66 4.66 0 019.32 0zm17.412 18.301a4.66 4.66 0 11-9.32 0 4.66 4.66 0 019.32 0zm35.506-28.481a4.66 4.66 0 11-9.318-.002 4.66 4.66 0 019.318.002zm-106.3-39.5h46.449l.874.077h53.983m-96.797-8.541h60.862" fill="transparent" stroke="#0E559A" stroke-width="1.333" stroke-miterlimit="10" stroke-linecap="round" stroke-linejoin="round"/><path d="M873.34 125.329v10.478l-.173.042h-72.532m-294.837 47.508H333.196m190.271-17.048H385.556m118.472-8.524H402.964m0-10.477v10.478m-17.408-29.066v37.13m146.755 8.983H372.926m-15.782 33.917v-16.869m15.782-34.983v17.935m-49.049 8.524a4.66 4.66 0 119.32 0 4.66 4.66 0 01-9.32 0zm28.273 30.23a4.659 4.659 0 014.66-4.659 4.66 4.66 0 11-4.66 4.659zm28.936 10.333a4.659 4.659 0 014.66-4.659 4.66 4.66 0 11-4.66 4.659zm17.218-81.643a4.66 4.66 0 119.32 0 4.66 4.66 0 01-9.32 0zm-17.412-18.301a4.66 4.66 0 119.319 0 4.66 4.66 0 01-9.319 0zm-12.959 28.481a4.66 4.66 0 119.318.002 4.66 4.66 0 01-9.318-.002zm135.246 39.5H382.69l-.873-.077h-24.673m155.178 8.541H381.806" fill="transparent" stroke="#0E559A" stroke-width="1.333" stroke-miterlimit="10" stroke-linecap="round" stroke-linejoin="round"/><path d="M385.746 219.405v-10.478l29.483-.042h93.138M274.905 172.68h32.637m-53.437-42.561l71.675-71.674M220.614 225.806l-49.742 49.743m-14.194.007l51.116-50.881m-12.891-1.394l-45.084 44.796m114.78-209.632l-.204 29.605M128.062 20.394V122.19m.383 10.423a4.924 4.924 0 110-9.848 4.924 4.924 0 010 9.848zm-19.567-97.168v86.745m0 10.423a4.925 4.925 0 11.001-9.85 4.925 4.925 0 01-.001 9.85zm28.776-73.563v80.233m0-80.233a4.925 4.925 0 110-9.85 4.925 4.925 0 010 9.85zm43.229 0a4.925 4.925 0 110-9.85 4.925 4.925 0 010 9.85zm-43.229 90.429a4.925 4.925 0 110-9.85 4.925 4.925 0 010 9.85zM118.682 59.05v92.46m0-92.46a4.925 4.925 0 11.001-9.85 4.925 4.925 0 01-.001 9.85zm0 102.308a4.925 4.925 0 11.001-9.85 4.925 4.925 0 01-.001 9.85zm101.887-63.291l5.69-5.68m-18.614 5.719l35.611-35.628m-48.47 35.653L227.92 65.39m-28.788 65.721h-8.693v17.039h8.693v-17.039zm-13.728-7.769h-8.693v8.693h8.693v-8.693zm49.548-39.648h-8.693v8.694h8.693v-8.694zm-22.954 47.417h-8.693v17.039h8.693v-17.039zm12.867 0h-8.694v17.039h8.694v-17.039zm-30.079.001v-32.98m-13.418 24.561v-15.862m26.284 24.281v-32.98m12.866 32.98v-32.98m27.126 54.64h-17.039v8.693h17.039v-8.693zm0 12.866h-17.039v8.693h17.039v-8.693zm0 12.866h-17.039v8.693h17.039v-8.693zm0-21.386h14.135m-14.135 12.867h15.687M252.173 54.098h-8.603v8.693h8.603v-8.693zm0 16.738h-8.603v8.693h8.603v-8.693zm0 12.867h-8.603v8.693h8.603v-8.693zm0-25.258h12.426m-12.426 16.738h12.222m-96.782 112.014h17.039v-8.693h-17.039v8.693zm0-12.866h17.039v-8.693h-17.039v8.693zm0-12.866h17.039v-8.693h-17.039v8.693zm0 21.385H-1m168.613-12.865h-25.842m25.842-12.867H123.52m92.794 51.74h8.693v-17.039h-8.693v17.039zm-12.867 0h8.693v-17.039h-8.693v17.039zm-12.865 0h8.693v-17.039h-8.693v17.039zm30.078 0v16.638m-12.866-16.638v15.817m-12.866-15.817l-.026 14.423m-27.074-116.45h13.54m46.552-55.588a4.119 4.119 0 115.824 0 4.12 4.12 0 01-5.824 0zm0 14.147a4.119 4.119 0 115.824 0 4.119 4.119 0 01-5.824 0zM190.538 89a4.118 4.118 0 115.824-5.823A4.118 4.118 0 01190.538 89zm5.683-5.856l31.473-31.568m-16.458 3.784a4.118 4.118 0 115.824-5.823 4.118 4.118 0 01-5.824 5.824zm-37.383 37.302a4.118 4.118 0 115.823-5.823 4.118 4.118 0 01-5.823 5.823zm5.518-6.039l31.473-31.569M143.763 78.66a4.924 4.924 0 116.964-6.964 4.924 4.924 0 01-6.964 6.964zm0 52.511a4.924 4.924 0 116.964-6.964 4.924 4.924 0 01-6.964 6.964zm14.728-20.594a4.923 4.923 0 010-6.963 4.923 4.923 0 016.964 0 4.923 4.923 0 11-6.964 6.963zm-11.246-30.475v42.088m84.793 13.509a4.117 4.117 0 115.823-5.823 4.117 4.117 0 01-5.823 5.823zm65.997-.419a4.117 4.117 0 115.823-5.823 4.117 4.117 0 01-5.823 5.823zm-65.997-15.371a4.117 4.117 0 115.823-5.823 4.117 4.117 0 01-5.823 5.823zm16.38 16.17a4.119 4.119 0 115.824-5.82 4.119 4.119 0 01-5.824 5.82z" fill="transparent" stroke="#0E559A" stroke-width="1.333" stroke-miterlimit="10" stroke-linecap="round" stroke-linejoin="round"/><path d="M238.35 130.044l41.904-41.973-2.634-.022h-25.447m-.843 29.022v11.172m-11.795-11.246h11.319m5.784 86.671a4.119 4.119 0 11-5.825 5.824 4.119 4.119 0 015.825-5.824zm0 15.791a4.117 4.117 0 11-5.823 5.823 4.117 4.117 0 015.823-5.823zm16.488 0a4.117 4.117 0 11-5.823 5.823 4.117 4.117 0 015.823-5.823zm11.924 0a4.117 4.117 0 11-5.823 5.823 4.117 4.117 0 015.823-5.823zm-44.792-16.171a4.12 4.12 0 010 5.824 4.12 4.12 0 01-5.824 0 4.12 4.12 0 010-5.824 4.12 4.12 0 015.824 0zm10.068 6.035l-66.464 66.534m53.484-53.56v-11.173m11.795 11.246h-11.319m-97.257-55.297a4.117 4.117 0 11-5.823 5.823 4.117 4.117 0 015.823-5.823zm32.086 35.983a4.923 4.923 0 010-6.963 4.921 4.921 0 016.963 0 4.923 4.923 0 11-6.963 6.963zM-1 199.574h172.208m-15.802 15.623a4.924 4.924 0 116.964-6.964 4.924 4.924 0 01-6.964 6.964zM-1 211.915h154.84m49.465-51.656l-5.401 4.298m13.411-4.307l-13.41 10.673m19.494-8.778l-19.495 15.515m19.495-8.778l-13.649 10.863m13.649-4.126l-5.183 4.126m12.649 7.465H190.44v-34.425h34.425v34.425z" fill="transparent" stroke="#0E559A" stroke-width="1.333" stroke-miterlimit="10" stroke-linecap="round" stroke-linejoin="round"/><path d="M217.399 179.744h-19.494V160.25h19.494v19.494zm-41.266 24.755v22.065l-33.162 33.163H-1m287.529-127.358l-24.75 24.75m36.256-21.839l-34.705 34.705m82.528-68.258l-70.953 70.953m47.934 10.17h-75.195m7.843-49.683l41.823-.734m7.346 79.802l-28.982-28.981m38.902 55.142L259.03 182.85m-32.771 51.056h35.521m-44.828 8.806h47.169m-2.342-8.806l7.666-7.666m-5.324 16.382l16.134-16.134m291.457-36.035l35.968-35.968m-61.021 18.073l21.87-21.87m-30.474 41.211l39.378-39.378m29.172 24.513l-47.477 47.477m22.014-32.751l-21.613 21.613m66.123 9.119l-28.268 28.268m-26.851-26.834l-11.804 11.804m59.868 4.554l-15.845 15.845m24.18-45.653l-34.917 34.916m150.621-53.905l-43.032 43.032m22.126-43.599l81.806-81.807m-92.077 81.34l90.855-90.854m-49.191 102.875l-50.914 50.914m45.215-55.952l-45.381 45.381M802.88 120.506L694.643 228.743m-203.132-83.388l32.06-32.06m-26.397 37.393l18.565-18.566m14.096 97.95h-37.899a3.79 3.79 0 010-7.579h30.703m-79.97 22.738H423.72a3.79 3.79 0 010-7.579h18.949a3.79 3.79 0 110 7.579zm-123.542-7.579h59.201c2.046 0 3.705 1.696 3.705 3.79 0 2.092-1.659 3.789-3.705 3.789l-59.514.144m154.553-.144c-3.411 0-5.97-2.527-7.959-2.527-1.99 0-4.547 2.527-7.959 2.527-1.883 0-3.41-1.696-3.41-3.79 0-2.093 1.527-3.789 3.41-3.789 3.412 0 5.685 2.525 7.959 2.525 1.989 0 4.548-2.525 7.959-2.525 1.884 0 3.411 1.696 3.411 3.789 0 2.094-1.527 3.79-3.411 3.79zm41.688 0c-3.411 0-5.97-2.527-7.959-2.527-1.99 0-4.547 2.527-7.96 2.527-1.882 0-3.41-1.696-3.41-3.79 0-2.093 1.528-3.789 3.41-3.789 3.413 0 5.685 2.525 7.96 2.525 1.989 0 4.548-2.525 7.959-2.525 1.884 0 3.41 1.696 3.41 3.789 0 2.094-1.526 3.79-3.41 3.79zm30.318 15.159c-3.411 0-5.97-2.526-7.959-2.526-1.99 0-4.547 2.526-7.959 2.526-1.883 0-3.41-1.696-3.41-3.79 0-2.093 1.527-3.789 3.41-3.789 3.412 0 5.685 2.525 7.959 2.525 1.989 0 4.548-2.525 7.959-2.525 1.884 0 3.411 1.696 3.411 3.789 0 2.094-1.527 3.79-3.411 3.79zm-57.226-18.949a3.79 3.79 0 11-7.58.001 3.79 3.79 0 017.58-.001zm-26.529-15.159a3.79 3.79 0 11-7.58 0 3.79 3.79 0 017.58 0zm30.319 45.478a3.79 3.79 0 11-7.58 0 3.79 3.79 0 017.58 0zm-15.159-45.478a3.79 3.79 0 11-7.579 0 3.79 3.79 0 117.579 0zm7.579 34.108h-26.529a3.789 3.789 0 110-7.579h26.529a3.79 3.79 0 110 7.579zm90.773 15.159h-71.824a3.79 3.79 0 110-7.579h64.636m-170.75-7.58h-60.637a3.79 3.79 0 110-7.579h60.637a3.79 3.79 0 110 7.579zm121.273-3.79a3.79 3.79 0 11-7.579 0 3.79 3.79 0 117.579 0zm-72.006 0a3.79 3.79 0 11-7.58.002 3.79 3.79 0 017.58-.002zm26.908 18.949c-3.411 0-5.97-2.526-7.959-2.526-1.99 0-4.547 2.526-7.959 2.526-1.883 0-3.41-1.696-3.41-3.79 0-2.092 1.527-3.789 3.41-3.789 3.412 0 5.685 2.525 7.959 2.525 1.989 0 4.548-2.525 7.959-2.525 1.884 0 3.411 1.697 3.411 3.789 0 2.094-1.527 3.79-3.411 3.79zm60.258-34.108a3.79 3.79 0 11-7.579 0 3.79 3.79 0 117.579 0zm-121.274 0a3.79 3.79 0 11-7.58.002 3.79 3.79 0 017.58-.002zm-.001 34.108h-18.948a3.789 3.789 0 110-7.579h18.948a3.79 3.79 0 110 7.579zm-220.61-7.579h171.344a3.79 3.79 0 110 7.579H-1m383.033-3.789a3.79 3.79 0 11-7.58 0 3.79 3.79 0 017.58 0zm15.159-30.319a3.79 3.79 0 11-7.58.001 3.79 3.79 0 017.58-.001zm49.267 30.319a3.79 3.79 0 11-7.58 0 3.79 3.79 0 017.58 0zm-15.159 0a3.79 3.79 0 11-7.58 0 3.79 3.79 0 017.58 0zm72.006-15.16a3.79 3.79 0 11-7.579 0 3.79 3.79 0 117.579 0zm-75.417 3.79c-3.411 0-5.969-2.526-7.958-2.526-1.99 0-4.548 2.526-7.96 2.526-1.882 0-3.41-1.696-3.41-3.79 0-2.093 1.528-3.789 3.41-3.789 3.412 0 5.685 2.525 7.96 2.525 1.989 0 4.547-2.525 7.958-2.525 1.884 0 3.411 1.696 3.411 3.789 0 2.094-1.527 3.79-3.411 3.79zm585.881-24.722H798.158m292.752 0h-68.99m133.17 0h-53.91m-187.002 8.148H806.792m433.658 0H922.276m123.044 8.148H826.808m394.812 0h-168.15m-68.493 8.148H834.339m256.841 0h-98.055m264.925 0h-158.72m-200.592 8.149h-44.851m434.413 0H898.739m15.271 8.178H726.671m583.729-.03H923.309m122.131-24.256c0 .902.73 1.634 1.63 1.634.9 0 1.64-.732 1.64-1.634a1.64 1.64 0 00-1.64-1.634c-.9 0-1.63.731-1.63 1.634zm-60.211 7.818a1.635 1.635 0 103.27-.002 1.635 1.635 0 00-3.27.002zm-71.423 16.505a1.635 1.635 0 103.27-.001 1.635 1.635 0 00-3.27.001zm374.914-8.245c0 .903.74 1.635 1.64 1.635.9 0 1.63-.732 1.63-1.635 0-.902-.73-1.634-1.63-1.634-.9 0-1.64.732-1.64 1.634zm-197.13-8.102a1.635 1.635 0 103.27-.001 1.635 1.635 0 00-3.27.001zm130.38-8.055a1.635 1.635 0 103.27-.001 1.635 1.635 0 00-3.27.001zm18.83-8.245a1.635 1.635 0 103.27 0 1.635 1.635 0 00-3.27 0zm17.6 16.205c0 .903.73 1.634 1.63 1.634.9 0 1.64-.731 1.64-1.634 0-.902-.74-1.634-1.64-1.634-.9 0-1.63.732-1.63 1.634zm52.38 16.489c0 .902.73 1.634 1.63 1.634.9 0 1.64-.732 1.64-1.634 0-.902-.74-1.634-1.64-1.634-.9 0-1.63.732-1.63 1.634zm-396.318-32.599a1.634 1.634 0 103.268 0 1.634 1.634 0 00-3.268 0zm99.728-8.284a1.635 1.635 0 103.27-.001 1.635 1.635 0 00-3.27.001zm-392.707-95.142l.025.041m5.543 9.055l-5.543-9.055m5.543 9.055l5.402 8.826m5.322 8.695l-5.322-8.695m5.322 8.695l7.183 11.735c2.689 4.974 1.941 12.214-7.1 13.593-3.647.556-12.289 1.637-12.289 1.637l.006 3.442c0 4.467.71 8.214 2.044 12.265.229.695.477 1.4.742 2.119 1.337 3.623 2.352 4.783 2.352 4.783s-.843 1.845-3.128 3.047c-2.191 1.154-3.418 1.495-3.418 1.495s1.227.901 2.279 2.055c1.345 1.476 1.929 3.018 1.929 3.018s-5.094 3.861-7.247 7.305c-2.527 4.04-3.037 8.93-3.037 11.832l-.302 9.619c0 11.536-8.74 20.659-19.096 20.659m21.052-190.185l-.071.05m6.995-7.044c1.836-2.475 3.649-5.595 4.908-9.353m-11.83 16.346c.502-.35 3.739-2.7 6.923-6.993m6.539-21.538a38.355 38.355 0 00-.868-6.357c-3.881-17.57-19.512-30.546-45.614-30.225l-4.41-.026H471.464m160.113 48.793c1.176-3.51 1.865-7.573 1.632-12.185m65.08 83.578l.05-.081m-5.292 8.645l-5.201 8.497m-10.314 16.85l-2.668 4.36c-2.688 4.973-1.941 12.213 7.1 13.592 3.648.556 12.29 1.637 12.29 1.637l-.005 3.441c0 5.235-.976 9.481-2.788 14.384-1.337 3.624-2.352 4.784-2.352 4.784s.844 1.845 3.128 3.047c2.192 1.153 3.419 1.495 3.419 1.495s-1.227.902-2.279 2.054c-1.346 1.477-1.93 3.018-1.93 3.018s5.095 3.862 7.248 7.306c2.526 4.04 3.037 8.93 3.037 11.832l.302 9.619c0 11.536 8.74 20.659 19.095 20.659m-33.283-118.077l-5.168 8.441m15.611-25.503l-5.242 8.564m-10.368 16.94l-5.147 8.407m9.052-115.002c.085 4.074.879 7.686 2.057 10.817m0 0c1.319 3.506 3.106 6.415 4.88 8.722m-6.937-19.539c-.057-2.74.199-5.684.897-8.844a37.8 37.8 0 011.127-4.009m11.541 38.948s-3.288-2.21-6.629-6.556m-97.496 46.858a18.774 18.774 0 003.974-11.571c0-10.414-8.443-18.856-18.856-18.856-10.414 0-18.856 8.442-18.856 18.856 0 10.413 8.442 18.855 18.856 18.855 6.051 0 11.431-2.854 14.882-7.284z" fill="transparent" stroke="#0E559A" stroke-width="1.333" stroke-miterlimit="10" stroke-linecap="round" stroke-linejoin="round"/><path d="M609.454 118.506c.201-1.369.308-2.768.308-4.192 0-15.806-12.814-28.62-28.62-28.62-15.807 0-28.621 12.814-28.621 28.62 0 15.807 12.814 28.621 28.621 28.621 14.382 0 26.283-10.61 28.312-24.429z" fill="transparent" stroke="#0E559A" stroke-width="1.333" stroke-miterlimit="10" stroke-linecap="round" stroke-linejoin="round"/><path d="M619.5 113.228c-.577-20.696-17.523-37.3-38.358-37.3-21.2 0-38.385 17.187-38.385 38.386 0 19.875 15.104 36.222 34.46 38.188m44.291-11.963a47.871 47.871 0 007.062-17.954m-8.823-37.052a47.937 47.937 0 019.545 28.781c0 2.822-.256 5.582-.722 8.27" fill="transparent" stroke="#0E559A" stroke-width="1.333" stroke-miterlimit="10" stroke-linecap="round" stroke-linejoin="round"/><path d="M619.747 85.533c-8.78-11.757-22.803-19.37-38.605-19.37-26.593 0-48.151 21.559-48.151 48.151 0 26.593 21.558 48.151 48.151 48.151 16.917 0 31.782-8.73 40.366-21.926m-98.282-26.225c0 31.986 25.93 57.916 57.916 57.916m45.527-93.69c-10.604-13.477-27.048-22.14-45.527-22.14m45.527 22.14c7.751 9.851 12.389 22.268 12.389 35.774 0 4.157-.448 8.208-1.28 12.115m-1.344 5.133a57.798 57.798 0 01-9.383 18.032m21.765-34.756c.001-.174.006-.349.006-.524m-.006.524c-.127 16.65-6.277 31.857-16.363 43.582" fill="transparent" stroke="#0E559A" stroke-width="1.333" stroke-miterlimit="10" stroke-linecap="round" stroke-linejoin="round"/><path d="M632.453 158.42c-12.411 14.427-30.787 23.575-51.311 23.575-37.379 0-67.681-30.302-67.681-67.681s30.302-67.68 67.681-67.68c20.04 0 38.043 8.713 50.435 22.553m0 0c10.722 11.975 17.245 27.788 17.245 45.127m9.765.001c0 .101-.003.202-.004.304m-4.878 26.805a77.279 77.279 0 004.879-26.806m-150.578 25.235c10.553 30.224 39.312 51.907 73.136 51.907m56.633-24.645c6.873-7.37 12.335-16.073 15.93-25.69m60.114-12.954a18.772 18.772 0 0012.449 4.699c10.413 0 18.856-8.442 18.856-18.855 0-10.414-8.443-18.856-18.856-18.856-10.413 0-18.856 8.442-18.856 18.856 0 3.076.74 5.98 2.048 8.545" fill="transparent" stroke="#0E559A" stroke-width="1.333" stroke-miterlimit="10" stroke-linecap="round" stroke-linejoin="round"/><path d="M736.712 87.66a28.545 28.545 0 00-10.444-1.966c-15.807 0-28.621 12.814-28.621 28.62 0 1.264.091 2.506.25 3.727m28.371 24.894c15.806 0 28.621-12.814 28.621-28.621m-66.981-1.019c-.009.34-.026.678-.026 1.019 0 10.165 3.958 19.399 10.407 26.266" fill="transparent" stroke="#0E559A" stroke-width="1.333" stroke-miterlimit="10" stroke-linecap="round" stroke-linejoin="round"/><path d="M726.268 152.7c21.2 0 38.386-17.186 38.386-38.386 0-21.2-17.186-38.385-38.386-38.385-20.858 0-37.818 16.639-38.36 37.366m5.612-34.267c-9.47 8.793-15.403 21.344-15.403 35.286a48.4 48.4 0 00.771 8.545" fill="transparent" stroke="#0E559A" stroke-width="1.333" stroke-miterlimit="10" stroke-linecap="round" stroke-linejoin="round"/><path d="M774.418 114.315c0-26.593-21.557-48.151-48.15-48.151-12.651 0-24.155 4.885-32.748 12.864m-.473 70.116c8.639 8.248 20.332 13.321 33.221 13.321m-38.422-4.823c-7.645-6.786-13.481-15.564-16.696-25.52" fill="transparent" stroke="#0E559A" stroke-width="1.333" stroke-miterlimit="10" stroke-linecap="round" stroke-linejoin="round"/><path d="M781.784 130.866a57.932 57.932 0 002.399-16.552c0-31.985-25.93-57.915-57.915-57.915-14.368 0-27.504 5.244-37.627 13.907m-.795 87.336c10.222 9.075 23.677 14.588 38.422 14.588 5.784 0 11.37-.848 16.641-2.427m-60.23-3.719c-14.656-12.354-23.995-30.814-24.088-51.46m27.993-55.135c-16.962 12.299-27.997 32.272-27.997 54.826" fill="transparent" stroke="#0E559A" stroke-width="1.333" stroke-miterlimit="10" stroke-linecap="round" stroke-linejoin="round"/><path d="M793.679 108.237c-3.073-34.531-32.081-61.603-67.411-61.603-14.825 0-28.534 4.77-39.685 12.855m57.066 120.254c23.241-6.159 41.577-24.371 47.911-47.54m-132.973-17.888c0 .103.004.206.004.31m30.017-67.989c-15.951 8.897-28.435 23.264-34.903 40.569m23.827 87.286c-10.636-8.626-18.946-20.007-23.827-33.067" fill="transparent" stroke="#0E559A" stroke-width="1.333" stroke-miterlimit="10" stroke-linecap="round" stroke-linejoin="round"/><path d="M677.532 174.491c13.31 10.794 30.263 17.269 48.736 17.269 42.772 0 77.445-34.674 77.445-77.445 0-42.773-34.673-77.446-77.445-77.446-13.672 0-26.511 3.55-37.66 9.768m-39.779 68.19c-.001-.171-.007-.342-.007-.513m0 .001a77.27 77.27 0 014.883-27.11m34.203 26.09c-4.306 1.222-6.229 6.049-9.02 9.564" fill="transparent" stroke="#0E559A" stroke-width="1.333" stroke-miterlimit="10" stroke-linecap="round" stroke-linejoin="round"/><path d="M711.459 125.979a7.525 7.525 0 01-3.282.721c-5.335 0-7.528-4.752-10.28-8.659M726.293 113c-7.805 0-8.889 10.165-14.834 12.98m-13.562-7.939c-1.921-2.726-4.113-5.041-7.836-5.041-.782 0-1.493.109-2.153.295m-29.316 1.329l-.008-.006m-9.768.22l.014-.011m-52.806 11.059c1 .509 2.137.815 3.475.815 5.123 0 7.348-4.386 9.955-8.196m69.434 4.354c-1.724 2.172-3.78 3.841-6.94 3.841a7.79 7.79 0 01-2.333-.342m-20.799-11.52c-4.029 3.335-5.745 10.169-11.037 11.592m-28.325-7.924c2-2.923 4.224-5.506 8.156-5.506.68 0 1.304.085 1.89.228m18.279 13.202a7.888 7.888 0 01-2.055.27c-3.292 0-5.385-1.812-7.154-4.116M581.385 113c7.719 0 8.863 9.946 14.638 12.886m73.592.472c-5.192-1.616-6.874-8.542-11.024-11.734m-39.091-1.396c4.378 1.069 6.338 5.797 9.07 9.356m20.259-7.757c1.34-1.106 2.935-1.827 5.006-1.827 1.939 0 3.462.631 4.749 1.619m-25.375-57.617C619.456 44.5 601.194 36.87 581.142 36.87H471.464m107.725-8.19H386.913m161.286 17.954H347.457m119.471-9.765H365.29m194.239 176.504l-86.108-86.108m140.387 140.387l-43.501-43.501m-11.179.36l-49.678-49.678m98.358 98.358l-43.27-43.27m34.156 45.797L497.849 174.771m89.408 100.947l-83.92-83.919m72.381 83.919l-75.298-75.297m320.986 35.219l-54.828-54.828m95.627 95.627l-16.468-16.468m-35.871-24.331l-51.041-51.041m91.841 91.84l-32.623-32.623m21.083 32.623l-88.569-88.57m77.184 88.723l-86.14-86.139m21.903 85.986l-41.92-41.92m53.912 42.054l-47.983-47.983m59.708 47.849l-53.779-53.779m65.637 53.779l-59.708-59.708m-163.653 58.987h24.279M475.126 123.976a4.993 4.993 0 11-9.986 0 4.993 4.993 0 019.986 0zm213.482-77.34c5.258-15.496 20.416-26.511 44.488-26.215l4.41-.027h201.6V31.92l34.563 34.563h22.999M-1 267.652h150.394m172.136-26.359a4.08 4.08 0 11-8.162 0 4.08 4.08 0 018.162 0zm-9.908-26.172a4.08 4.08 0 11-8.16 0 4.08 4.08 0 018.16 0zm4.081-42.911a4.08 4.08 0 11-8.161 0 4.08 4.08 0 018.161 0zm36.796-73.044a4.08 4.08 0 11-8.162 0 4.08 4.08 0 018.162 0zm-19.881-44.111a4.08 4.08 0 11-8.161 0 4.08 4.08 0 018.161 0zM529.835 78.54a6.15 6.15 0 11-12.302 0 6.15 6.15 0 1112.302 0zm-15.159-1.104h-87.165m513.293-27.978l-171.259-.081m108.16-8.312h-75.103m77.679-8.31H780.056M128.062 20.394H71.875m37.003 15.051H45.572M71.34 20.394a5.697 5.697 0 11-11.395 0 5.697 5.697 0 0111.395 0zm113.746 7.526a4.029 4.029 0 11-8.058-.002 4.029 4.029 0 018.058.001zm-93.491 0a4.029 4.029 0 11-8.057-.001 4.029 4.029 0 018.057 0zm143.355 7.877a4.029 4.029 0 11-8.058-.001 4.029 4.029 0 018.058 0zM91.367 27.92h85.574m-29.696 7.525h79.327m-79.327 35.297V35.444m-4.008 18.654h32.386" fill="transparent" stroke="#0E559A" stroke-width="1.333" stroke-miterlimit="10" stroke-linecap="round" stroke-linejoin="round"/></symbol></svg>