<svg xmlns="http://www.w3.org/2000/svg" xmlns:xlink="http://www.w3.org/1999/xlink"><defs><clipPath id="clip0_21_71"><path fill="#fff" transform="rotate(180 18.5 29)" d="M0 0h37v58H0z"/></clipPath><clipPath id="clip0_5_8742"><path fill="#fff" d="M0 0h113v22H0z"/></clipPath></defs><symbol id="arrow-up" viewBox="0 0 37 58"><g clip-path="url(#clip0_21_71)" fill-rule="evenodd" clip-rule="evenodd" fill="currentColor"><path d="M35.63 17.493a2 2 0 010 2.799l-5.14 5.249a2 2 0 01-2.858 0l-7.703-7.866a2 2 0 00-2.858 0L9.368 25.54a2 2 0 01-2.858 0l-5.14-5.25a2 2 0 010-2.798L17.071 1.459a2 2 0 012.858 0l15.7 16.034zm0 27a2 2 0 010 2.798l-5.14 5.25a2 2 0 01-2.858 0l-7.703-7.866a2 2 0 00-2.858 0L9.368 52.54a2 2 0 01-2.858 0l-5.14-5.25a2 2 0 010-2.798l15.701-16.034a2 2 0 012.858 0l15.7 16.034z"/></g></symbol><symbol id="bg-vectors-2" viewBox="0 0 1440 352"><path d="M467.284 201.757v-71.553l32.81-.042a1073.73 1073.73 0 002.108-31.222c1.25-23.622 1.45-97.94 1.45-97.94h144.517M485.704 288.708h17.866v-5.661h-17.866v5.661zm17.866-22.644h-17.866v5.661h17.866v-5.661z" fill="transparent" stroke="#11559B" stroke-width="1.333" stroke-miterlimit="10"/><path d="M707.138 340.817v-6.822h-96.233v-84.714H442.203m264.935 91.536v10.159H0" fill="transparent" stroke="#11559B" stroke-width="1.333" stroke-miterlimit="10"/><path d="M496.947 237.94a1079.351 1079.351 0 0015.099-131.516c1.251-23.624 1.673-73.528 1.451-95.222h137.035a980.582 980.582 0 008.751 125.205c10.403 77.248 28.747 143.721 47.855 197.588M485.704 305.69h17.866v-5.661h-17.866v5.661zm-80.726-141.521H0m440.787 85.113v-11.333H405.43v11.333h-24.026v-11.333h-35.811v112.875m132.792-142.527v-69.713h11.321v81.442M245.991 69.38h-41.226m64.305 94.481c-3.712-19.464-6.865-29.124-9.46-28.976-1.199.068-2.277 2.225-3.237 6.472-1.501-8.557-3.167-12.872-4.998-12.942-3.047-.119-6.549 11.509-10.509 34.889m-28.333-78.21c.476-4.835 3.961-6.273 7.631-7.687 5.47-2.107 13.86 2.032 16.348 11.084.848-.156 4.789-.799 6.927 1.384 2.626 2.685 2.111 9.214-3.298 14.295" fill="transparent" stroke="#11559B" stroke-width="1.333" stroke-miterlimit="10"/><path d="M228.578 78.28c.147-.37 1.43-3.476 4.412-4.209 3.1-.76 6.835 1.34 8.233 5.276 7.253-2.012 14.385 1.135 16.902 6.65 2.478 5.427-.502 10.983-.886 11.674m51.101-2.253H288.7v52.175m19.64-52.174h12.801v67.364M263.07 139.03l24.7-.075m-24.225-17.368l24.225-.043m-30.363.054l-8.241.015m14.38-.026l-6.139.011m76.715 7.662v4.603h-3.459m3.459-4.604v-27.856h6.23v11.464h6.063v2.854m0 0v23.269h5.99v-5.114h7.594v10.587l12.719-.075" fill="transparent" stroke="#11559B" stroke-width="1.333" stroke-miterlimit="10"/><path d="M378.412 162.784V138.99h-12.291v-10.737h-13.716m-72.943-37.615h7.688V52.006h8.314v28.01h4.363V68.55h8.513v26.87m32.011 56.203v-8.206h-13.092v20.753m-76.794-35.432l-1.3-7.125m.001 0l-9.009-17.412m.001 0l-.016-.032m25.235 40.293c6.741-2.494 11.439-.158 15.015 2.591.571-.058 1.15-.088 1.737-.088 9.33 0 16.895 7.564 16.895 16.896m-52.74-85.149V43.08h32.44v61.091h-15.653m-.001-.002v.032m-11.442 0v-.032" fill="transparent" stroke="#11559B" stroke-width="1.333" stroke-miterlimit="10"/><path d="M263.07 104.17v-4.055a2.395 2.395 0 00-2.388-2.388h-6.666a2.394 2.394 0 00-2.388 2.388v4.055m11.917 9.043h-2.017a1.448 1.448 0 01-1.443-1.444v-2.151h-6.07a2.393 2.393 0 01-2.386-2.388v-3.029m11.916 9.012h2.016c.793 0 1.444-.649 1.444-1.444v-4.302c0-.794-.651-1.443-1.444-1.443h-2.491v-1.823m.475 17.385v.147m0-8.52v8.374m-6.138.012v-11.882m0 11.88v.136m-13.689 25.861l-38.954-78.213m17.703-.831V18.055h8.325v7.198h12.302v-7.35h21.405v13.092h22.859V43.08h12.469v18.47h14.963v29.505h13.093v42.81h2.78m-138.068-48.07L230 163.86m-44.627-13.668L0 150.106m190.335-31.859l22.198 46.848m-41.086-46.439l21.419 45.205m-.272-78.067H.001m200.075 16.432H0m207.558 16.43H0m250.987 181.373h19.917m39.834 0h-19.917m54.319 0h-34.401m130.048-50.727v101.674M0 300.029h250.987m39.834 0h-19.918m73.783-33.966h-49.112m.001 0h-19.918m.001 0h-19.917M0 266.063h235.824m-.001 0h19.917M0 333.995h266.15m78.99-16.982h-26.82m195.904 16.982h23.092v-61.607h5.659v61.607h39.626v-61.607h5.66v61.607h5.661v-67.269s0-5.661-16.981-5.661-16.981 5.661-16.981 5.661v56.168h-11.321v-56.168s0-5.661-16.984-5.661c-16.983 0-16.983 5.661-16.983 5.661l-.448 67.269zm-188.323 0h19.239m-86.572-16.982H0m390.372-118.879h65.369v-16.983h-65.369v16.983zM0 198.135h205.498m-7.581-16.983H.001m217.833 0h-19.917m39.834 0h-19.917m113.535 50.949h-70.874m-47.416-16.983H0m0 16.983h220.662m39.834 0h-19.917m-19.917 0h19.917m83.449-16.983h-51.197m-59.751 0h19.917m112.143 67.928H0m345.114-33.965h-77.038m-39.835 0H.001m228.241 0h19.917m19.917 0h-19.917m-12.335 16.982l-7.583-16.983m37.908 84.915l-7.581-16.983M197.9 181.114l.017.038m76.453 171.259l-8.221-18.415m-60.651-135.861l7.581 16.983m-15.163-33.966l7.583 16.983m45.488 101.895l7.581 16.983m-33.153-118.878l7.583 16.983m15.161 33.962l7.581 16.983m-37.906-84.911l7.581 16.983m68.872 154.276l-8.221-18.415m-53.069-118.878l7.581 16.983m-22.761-50.987l.017.038m53.069 118.878l7.583 16.983m7.58 16.982l-7.581-16.983m19.917.001l-7.581-16.983m-15.163-33.967l-7.582-16.983m-7.58-16.979l-7.582-16.983m-15.163-33.966l7.582 16.983m60.651 135.86l-7.582-16.983m-45.488-101.894l-7.581-16.983m68.871 154.276l-8.221-18.415m12.337-16.984l7.581 16.983m-68.232-152.843l7.581 16.983m22.743 50.945l7.581 16.983m-22.743-50.945l7.583 16.983m-7.583-16.983l-7.582-16.983m68.873 154.276l-8.221-18.415m-7.581-16.983l-7.581-16.983M558.788 11.158v39.984h-15.11V11.158m45.481 0v39.984h-15.11V11.158m45.482 0v39.984h-15.11V11.158m-76.005 0v39.984h-15.11m137.604 0h-16.118V11.158m-73.88 183.321h-16.214v-12.663h16.214v12.663zm32.588 0h-16.214v-12.663H593.5v12.663zm32.589 0h-16.213v-12.663h16.213v12.663zm-96.477 0h-17.503v-12.663h17.503v12.663zm129.067 0h-16.214v-12.663h16.214v12.663zm-81.448 12.661h-16.213v-12.663h16.213v12.663zm32.59 0h-16.214v-12.663h16.214v12.663zm32.589 0h-16.214v-12.663h16.214v12.663zm-97.712 0h-15.086v-12.663h15.086v12.663zm-40.947-12.663h8.358v12.663h-10.153m170.423 0h-13.593v-12.663h10.802m-272.111 3.946v15.936m50.77-15.936v15.936m-67.089 35.358v101.695m24.024-101.695v101.695m-59.836-113.027c1.331-5.059 4.471-14.131 12.239-22.666 12.219-13.423 27.591-16.399 32.54-17.148m106.627 36.187c-1.608-4.766-6.059-15.822-17.226-24.933-9.441-7.701-19.119-10.29-24.032-11.254m52.59 51.146h-40.798v-11.333h40.798v11.333zm-40.798-2.267v103.961m11.334-113.48a41.524 41.524 0 00-7.707-11.333c-8.324-8.681-18.255-11.348-22.666-12.24h-19.23m-15.936.001h-15.603c-3.914.41-14.76 2.08-24.026 10.88-5.325 5.055-8.1 10.54-9.52 14.053" fill="transparent" stroke="#11559B" stroke-width="1.333" stroke-miterlimit="10"/><path d="M429.017 214.358v-7.967a7.968 7.968 0 10-15.935 0v7.967m-.001.001v24.026m15.936 0v-24.026m-25.874-15.186v15.185m40.118-15.185v15.185m-83.409 23.8c1.462-3.666 5.407-12.128 14.506-18.926 9.504-7.1 19.201-8.328 23.119-8.613m50.77.113c4.059.575 12.659 2.352 21.193 8.839 8.909 6.774 12.932 15.023 14.506 18.814m-124.094-.228v113.254m69.165-112.686v112.121m-90.47-101.129l-29.445-68.129h-71.598m82.667-17.743l28.36 65.62m-9.301-64.873l20.951 48.476m-2.175-48.388l16.664 38.56m-1.055-38.635l6.826 15.511m423.843 171.395v-62.855h79.297v62.855m-.766-26.251h47.909m150.806-158.772c.47-12.563 6.86-20.315 11.78-20.096 3.72.165 7.19 4.894 9.17 10.45 1.5-8.557 3.16-12.872 4.99-12.943 3.05-.118 6.55 11.511 10.51 34.892m22.78-67.08c-4.88-4.29-11.27-4.763-15.03-1.811-2.78 2.183-3.34 5.624-3.47 6.8-8.05-3.334-16.82-1.459-21.54 4.252-4.27 5.172-3.64 11.576-3.46 13.037" fill="transparent" stroke="#11559B" stroke-width="1.333" stroke-miterlimit="10"/><path d="M1143.48 106.123c-3.29-6.922-10.22-11.23-17.49-10.917-9.14.393-14.14 7.869-14.62 8.613-3.42-2.136-7.75-2.136-11.11 0-3.16 2.013-4.98 5.625-4.76 9.406-1.14.007-6.3.164-10.07 4.144-3.94 4.16-4.75 10.811-1.92 16.621M843.549 288.202v-47.408h4.879v-7.482h8.468l.001 4.988h5.623v-4.988h13.47v7.269h226.4m-219.575 63.6h15.384" fill="transparent" stroke="#11559B" stroke-width="1.333" stroke-miterlimit="10"/><path d="M909.694 167.108h-26.879v73.473m32.441 0v-73.473h-5.562m104.186.001h-26.878v50.944m41.628-11.371l-9.19.063v-39.636h-5.56" fill="transparent" stroke="#11559B" stroke-width="1.333" stroke-miterlimit="10"/><path d="M1055.51 167.109h-26.88v40.423m66.97-40.424h-26.88v39.725l-7.65-.089v-39.636h-5.56m61.22 39.574l-15.57.063v-39.636h-5.56m-56.95-48.477v48.31m-29.25-48.309v49.015m-29.247-49.016v47.1m-159.338 133.41v42.021m24.007-42.021v42.021m24.479-42.021v42.021m81.602-222.531v54.096m-9.197-61.823h128.444l-.26 45.008m-132.347-36.267h-8.468m8.468 7.253h-8.468m8.468 7.252h-8.468m8.468 7.254h-8.468m8.468 7.253h-8.468m8.468 7.253h-8.468m33.553-36.265h-7.411m7.411 7.254h-7.411m7.411 7.252h-7.411m7.411 7.253h-7.411m7.411 7.254h-7.411m7.411 7.253h-7.411m37.178-36.266h-7.411m7.411 7.254h-7.411m7.411 7.252h-7.411m7.411 7.253h-7.411m7.411 7.254h-7.411m7.411 7.253h-7.411m37.176-36.266h-7.41m7.41 7.254h-7.41m7.41 7.252h-7.41m7.41 7.253h-7.41m7.41 7.254h-7.41m7.41 7.253h-7.41m37.18-36.266h-7.41m7.41 7.254h-7.41m7.41 7.252h-7.41m7.41 7.253h-7.41m7.41 7.254h-7.41m7.41 7.253h-7.41m-16.18 23.434h-9.52m110.45 0h-28.25m-185.764 0h71.679m-45.229-68.442h-12.801v48.936m55.765-77.141v22.121-38.486m30.48 16.365v22.121-38.486m30.49 16.365v22.121-38.486m30.49 16.365v22.121-38.486m-18.89 254.817c-7.95 0-14.76-.791-20.63-7.088-7.75-8.314-8.01-28.464 3.24-38.147 7.38-6.349 14.66-7.326 19.89-8.075" fill="transparent" stroke="#11559B" stroke-width="1.333" stroke-miterlimit="10"/><path d="M1049.54 314.906c-13.88-1.832-17.2-23.732-8.01-33.038 3.82-3.86 7.36-5.553 11.93-6.737m-62.833-5.649c-5.738 1.2-11.644 5.944-14.376 10.36-2.9 4.687-3.628 9.009-3.075 14.43.987 9.674 7.204 18.913 17.486 19.959" fill="transparent" stroke="#11559B" stroke-width="1.333" stroke-miterlimit="10"/><path d="M993.615 320.887c-12.135 0-21.114-8.055-24.431-19.064-2.657-8.832-1.11-20.802 4.472-28.147 7.047-9.273 15.435-11.934 25.366-11.106m200.748 88.189v-46.297h-3.75v22.502h-2.18c-3.41 0-6.68-1.355-9.09-3.766a12.875 12.875 0 01-3.77-9.018l-.08-15.601a12.837 12.837 0 013.76-9.161l3.69-3.691a12.87 12.87 0 019.09-3.765h.6c3.42 0 6.68 1.354 9.1 3.765l7.48 7.485 69.23-.243-7.02-8.967-62.78-.125-8.48-6.769a8.335 8.335 0 00-5.19-1.813h-4.89c-2.03 0-3.98.738-5.5 2.079l-8.99 7.92-7.69-6.785a12.874 12.874 0 00-8.51-3.214h-4.88a12.88 12.88 0 00-8.51 3.214l-7.12 6.28a12.849 12.849 0 00-4.35 9.645v15.952c0 3.411 1.35 6.682 3.76 9.094l3.63 3.626a12.852 12.852 0 009.09 3.765h3.6v-26.159h3.75v45.002M1107.9 322.2a15.34 15.34 0 01-7.68-1.168c-10.63-4.605-8.6-18.431-8.54-27.583.03-5.904 3.19-11.355 8.03-14.666 5.7-3.895 11.01-3.488 17.61-3.488m-202.746 30.246c-5.183-3.7-7.055-10.371-6.895-19.159.212-11.658 2.878-23.078 16.501-25.02m1.297 53.791c-2.463.046-9.674.128-15.331-4.439m7.792-3.323c-1.271-.485-2.358-1.132-3.364-1.85" fill="transparent" stroke="#11559B" stroke-width="1.333" stroke-miterlimit="10"/><path d="M933.328 345.484v-59.362h-3.402v35.704h-2.979c-9.783-.165-16.566-2.671-21.235-6.451" fill="transparent" stroke="#11559B" stroke-width="1.333" stroke-miterlimit="10"/><path d="M929.14 254.981c-7.557-.1-15.027 1.09-21.472 8.762-5.496 6.543-4.872 17.816-4.969 27.111-.112 10.494 3.238 16.461 7.446 19.859" fill="transparent" stroke="#11559B" stroke-width="1.333" stroke-miterlimit="10"/><path d="M941.087 248.88a61.635 61.635 0 00-11.947-.254c-5.903 0-14.25 1.719-19.192 4.944-8.601 5.615-13.785 13.971-13.785 30.196v7.589c0 8.413 1.988 17.896 9.551 24.02m9.542-108.631h71.747m-71.079-61.999v4.604h3.46m-80.348 118.626v7.328l-13.326-.023v13.375m13.326-40.535v-26.684h29.303v-17.793l8.989-.073v-10.872m38.597-47.952v-27.857h-6.23v11.465h-6.063v2.853" fill="transparent" stroke="#11559B" stroke-width="1.333" stroke-miterlimit="10"/><path d="M922.163 106.539v42.811h-2.78M1109.18 41.7h-13.77v4.78h-6.86v-7.653H985.547v7.653h-22.859v12.085m-59.057 72.641v23.27h-5.99v-5.115h-7.594v10.587l-12.719-.074v32.823m-38.292 55.423v19.855m-4.779-43.692v27.89m12.408-39.605h-12.408v11.716" fill="transparent" stroke="#11559B" stroke-width="1.333" stroke-miterlimit="10"/><path d="M871.636 183.331v-28.856h12.29v-10.737h13.716v-17.925m65.254-19.691v-38.63h-8.313V95.5h-4.364V84.035h-8.513v26.869m-32.012 56.204c.451-5.338 3.662-9.943 8.338-11.877 5.169-2.139 9.919-.097 10.804.303m155.104-1.739c-1.3-1.975-2.8-2.637-3.47-2.871-3.36-1.171-7.77.746-10.58 4.986-1.22-.041-4.24.023-7.25 1.965-4.52 2.913-5.44 7.759-5.59 8.613m91.5-108.286H971.323v52.529m144.007 51.953l51.98-104.185M919.873 206.744c.007.01.01.02.016.031m20.129-11.162c-1.094-2.529-3.218-4.267-5.213-4.193-2.799.104-5.866 3.795-4.986 8.613-1.593-1.389-3.69-1.863-5.213-1.133-2.189 1.049-3.297 4.629-1.36 7.706m31.078-17.293c-.198-3.109-2.065-5.309-3.654-5.372-1.789-.072-4.243 2.531-3.974 6.424-.665-2.992-1.426-4.516-2.286-4.573-1.136-.075-2.443 2.425-3.919 7.464m-.444 1.613c-.85 3.112-1.748 6.973-2.702 11.706m3.146-13.319c-.145.496-.296 1.067-.444 1.613m14.277-5.555c-1.21 1.589-1.969 3.751-1.82 6.171-2.336-.121-3.266.753-3.532 1.039-1.669 1.799-.977 6.173 2.703 10.221" fill="transparent" stroke="#11559B" stroke-width="1.333" stroke-miterlimit="10"/><path d="M987.002 206.744c-.307-.615-2.328-4.513-6.858-5.649-2.882-.722-5.283.05-6.234.416 1.478-1.934 1.279-4.641-.348-6.237-1.788-1.756-4.857-1.732-6.719.21-.044-5.758-4.946-9.449-8.728-8.728-1.429.272-2.768 1.211-3.792 2.557m-10.98 30.306a10.13 10.13 0 00-5.545 1.953m19.403 1.719c-1.48-.826-3.128-.865-4.019-.791.231-3.889-2.634-6.689-5.232-6.564-1.799.086-3.516 1.575-4.327 3.655-.096.002-.184.023-.28.029m15.127 4.664c-.166-.183-.319-.38-.509-.536-.24-.199-.505-.313-.76-.457m1.269.992c2.122 2.325 2.4 6.736-.069 10.808" fill="transparent" stroke="#11559B" stroke-width="1.333" stroke-miterlimit="10"/><path d="M920.526 235.548c2.828-17.42 5.342-26.091 7.536-26.012 1.286.047 2.463 3.095 3.532 9.145.662-2.989 1.423-4.512 2.287-4.572 1.923-.132 4.346 7.01 7.27 21.428m16.812-11.789c2.251-4.723 7.184-7.206 11.595-6.186 4.823 1.114 6.776 5.897 6.952 6.345 5.779-6.214 14.767-7.709 21.456-3.928 5.224 2.955 8.424 8.777 8.464 15.111m-93.837-67.695c-.29-2.55 1.667-4.758 4.004-4.835 2.117-.071 4.081 1.624 4.307 3.928 1.997-5.65 7.691-8.073 11.256-6.648 3.834 1.532 6.332 7.966 2.947 13.598.52-.617 2.847-3.241 6.724-3.625 5.577-.553 9.105 4.052 9.294 4.306 1.463-2.454 3.107-3.296 4.004-3.627 4.503-1.662 11.15 1.829 15.534 9.299m-99.027 18.168V183.33m-9.115 26.284v-11.051h9.115v-.604m-10.755 14.609h1.641v-2.953m-15.857 2.953h14.215m-26.622 39.605v14.385h-17.456v22.097" fill="transparent" stroke="#11559B" stroke-width="1.333" stroke-miterlimit="10"/><path d="M1130.52 95.772l18.63-37.561h37.41s-67.52 144.056-82.55 176.657v.586l-188.753.097m339.303-81.749l17.96 2.562 27.55-6.421m-13.6 31.278l-42.77-8.293-6.51 3.139" fill="transparent" stroke="#11559B" stroke-width="1.333" stroke-miterlimit="10"/><path d="M1134.27 168.91h34.62l12.51-9.304 6.51-.464 5.16-4.187 13.19 5.116 8.87-3.745m35.57 5.626l17.23 2.628 24.76-.359m-162.5 14.988h38.7l5.24-3.142 9.6-5.787 6.73-.408 5.62-3.663 13.8 4.477 8.1-2.849 9.63 2.503m9.58 5.726l-8.68 4.19-6.52-1.395-8.48 2.441-14.43-3.838-6.07 3.141-6.96.349-14.49 6.978-2.67 1.576h-43.69m174.87-39.566H1440m-147.31 14.28H1440m-153.53 16.999H1440m0 33.999h-139.93l-10.89-6.086-14.14 8.549-6.27-1.629-8.1 2.85-13.8-4.477-5.62 3.663-6.73.407-16.72 10.083m222.2 3.638h-139.93l-32.15 7.915-15.04-3.196-6.53 2.616-7.18.29-15.49 5.816-11.93.872-8.78 2.095h-9.72l-11.7 5.002-11.7-5.002h-12.99l-15.61 6.668-15.61-6.668h-19.51l-15.6 6.668-11.85-5.056a20.069 20.069 0 00-7.88-1.612h-14.56c-2.71 0-5.38.548-7.88 1.608l-15.78 6.727c-6.43-3.309-25.88-12.22-48.417-6.128-7.146 1.932-12.948 4.925-17.37 7.795a56.591 56.591 0 00-10.062-5.578 57.06 57.06 0 00-15.645-4.169" fill="transparent" stroke="#11559B" stroke-width="1.333" stroke-miterlimit="10"/><path d="M1440 249.217h-140.29l-18.91-.095-9.25 1.629-15.67-2.561-6.97 2.095-7.42.233-16.48 4.651-12.68.699-9.28-.575h-10.02l-11.61 6.251-11.62-6.251h-13.39l-15.48 8.335-13.41-7.21a9.409 9.409 0 00-4.46-1.125h-15.36c-1.56 0-3.09.388-4.47 1.126l-13.39 7.209-9-4.837a29.255 29.255 0 00-13.88-3.498h-8.71c-4.84 0-9.6 1.2-13.87 3.49l-12.9 6.927-12.18-6.535a32.642 32.642 0 00-15.43-3.882h-6.724c-5.6 0-11.108 1.443-15.991 4.187l-.688.386a32.626 32.626 0 00-16.638 28.067l-.068 5.967a32.716 32.716 0 003.215 14.498c2.728 5.679 5.052 9.59 10.279 13.248 5.597 3.918 12.407 5.255 19.136 5.255h1.061V289h3.138v56.71" fill="transparent" stroke="#11559B" stroke-width="1.333" stroke-miterlimit="10"/><path d="M1440 266.216h-139.93l-24.9-4.85-16.29-1.919-7.42 1.569-7.64.175-17.47 3.489-13.45.523-9.77-3.243h-10.33l-11.52 7.501-9.84-6.401a6.796 6.796 0 00-3.7-1.1h-9.77c-1.31 0-2.6.384-3.7 1.1l-13.67 8.902-11.51-7.486a15.55 15.55 0 00-8.48-2.516h-11.48c-3.01 0-5.96.875-8.48 2.519l-11.49 7.483-8.36-5.433a28.222 28.222 0 00-15.4-4.569h-6.85c-5.81 0-11.48 1.795-16.24 5.139l-2.44 1.717c-13.84 9.729-17.22 30.108-9.3 44.842 5.01 9.324 12.99 13.549 23.68 13.549l6.74-.095v-33.9h3.75v52.501" fill="transparent" stroke="#11559B" stroke-width="1.333" stroke-miterlimit="10"/><path d="M1440 283.215h-139.93l-38.19-12.514-7.87 1.047-7.87.116-18.46 2.327-14.21.348-7.82-4.508c-1.6-.92-3.41-1.403-5.25-1.403h-4.27c-2.31 0-4.55.76-6.38 2.163l-8.61 6.587-8.03-6.144a12.663 12.663 0 00-7.7-2.606h-5.61c-2.78 0-5.49.916-7.7 2.609l-11.83 9.057-10.23-7.824a18.687 18.687 0 00-11.35-3.842h-8.37c-4.28 0-8.42 1.468-11.75 4.158l-4.41 3.572a18.688 18.688 0 00-6.92 14.507v17.117a18.67 18.67 0 005.47 13.197l.32.317c3.5 3.5 8.25 5.468 13.2 5.468h7.27v-30.003h3.75v48.752M1440 317.138h-234.49M1440 334.062h-234.49M1440 350.985H708.601m459.679-216.843l-16.57 34.976m35.69-34.976l-15.05 31.765m34.17-31.766l-10.37 21.893m126.07-53.689H1440m-274.2 0h131.21m-73.59 76.823l29.08-61.458h37.98l-18.84 39.083m58.72-71.944l-30.29 65.093m-125.98-64.143h156.27m109.64 0h-109.41M1440 118.664h-125.15m-156.08-.954h74.75l-25.05 52.658" fill="transparent" stroke="#11559B" stroke-width="1.333" stroke-miterlimit="10"/><path d="M1245.3 173.341l18.58-39.2h18.39m157.73.001h-132.57m-156.54 0h74.75M805.214 334.05h-96.678m95.748-16.923H699.888m166.877-69.086v40.161m-16.772-40.161v40.161m33.574-40.161v42.813m105.81-223.362h14.153m-14.153 8.159h14.153m-14.153 8.16h14.153m-14.153 8.159h14.153m-14.153 8.16h14.153m15.88-32.638h14.15m-14.15 8.159h14.15m-14.15 8.16h14.15m-14.15 8.159h14.15m-14.15 8.16h14.15m15.88-32.638h14.16m-14.16 8.159h14.16m-14.16 8.16h14.16m-14.16 8.159h14.16m-14.16 8.16h14.16m15.87-32.638h14.16m-14.16 8.159h14.16m-14.16 8.16h14.16m-14.16 8.159h14.16m-14.16 8.16h14.16m14.49 2.518V66.334m3.35 1.158h25.03m-25.03 8.159h19.59m-19.59 8.16h16.87m-16.87 8.159h14.15M1440 198.221h-139.71l-34.38-9.792-16.89-3.488-16.25 6.105-6.77-1.163-8.87 2.035-15.05-3.198-6.52 2.618-7.19.289-15.48 5.816-4 2.366h-48.61m18.34-.201l-22.12 48.68m41.25-49.12l-23.71 52.164m43.84-55.683l-24.66 54.247m45.8-60.008l-26.75 58.847m44.86-57.947l-26.91 59.211m45.95-60.339l-25.92 57.013M897.64 125.528v-3.271h5.99V110.62h12.293v-8.4h12.557V72.286h16.645V46.404h12.16V35.39h9.508v4.345h12.689V27.493h129.698v7.273h5.56v14.993h93.46l-17.23 36.5M817.172 60.448c18.625 9.39 37.563 6.54 37.563 6.54a3.494 3.494 0 003.494-3.495 3.493 3.493 0 00-3.494-3.495h-7.445v-37.86s-20.728 10.139-14.467 38.31h-3.044s-12.747-.07-12.607 0zm41.009 3.13h4.946m-11.522-40.694v34.433M825.776 30.21h-77.244m68.91 14.555h-55.484m307.052 89.225h60.28m-59.53-16.622h15.67" fill="transparent" stroke="#11559B" stroke-width="1.333" stroke-miterlimit="10"/></symbol><symbol id="bg-vectors" viewBox="0 0 1355 878"><mask id="mask0_202_5" style="mask-type:luminance" maskUnits="userSpaceOnUse" x="-1" y="0" width="1356" height="878"><path d="M1355 878H-.13V0H1355v878z" fill="#fff"/></mask><g mask="url(#mask0_202_5)" fill="transparent" stroke="#11559B" stroke-width="1.333" stroke-miterlimit="10"><path d="M162.65 393.804l3.259 100.532c.339 10.499.68 20.997 1.02 31.496m-29.52-30.185l6.394-123.752m20.374-14.179c1.42-2.006 6.611-9.614 12.125-17.796 7.315-10.822 15.182-22.618 15.659-23.747.647-1.51 1.327-3.088 2.029-4.758 4.191-9.843 9.196-22.213 14.109-34.586a4818.137 4818.137 0 0013.774-35.211 3524.762 3524.762 0 007.298-19.001c.636-1.628-.079-2.79-1.427-3.499l-.145-.092c-1.942-1.052-3.188-.003-3.699.946l-7.108 13.008-16.603 30.377-16.596 30.359-16.6 30.376-14.783 27.03"/><path d="M163.985 364.113l74.918 128.389c.54.945.805 2.569-1.06 3.772l-.133.081c-1.272.85-2.619.912-3.691-.474 0 0-.687-.888-1.953-2.478-8.442-10.797-42.285-54.204-58.734-77.287-.879-1.244-9.842-20.388-15.941-33.593-.009-.04-.038-.068-.047-.108-.995-2.176-1.922-4.161-2.705-5.9a366.242 366.242 0 01-2.644-5.826m-4.908-3.554l.17.178-6.506.082-17.078.226-34.189.425-34.192.444-34.175.448-19.918.256c-1.054.022-2.565-.554-2.639-2.824l-.016-.158c-.057-1.553.575-2.779 2.265-3.022 0 0 6.12-.968 15.521-2.392a5412.75 5412.75 0 0131.674-4.699 2301.133 2301.133 0 0131.864-4.4c6.814-.888 13.128-1.653 18.5-2.233.79-.089 7.241.375 15.228.997 9.453.764 21.065 1.746 28.072 2.39 2.698.242 5.244.56 6.211.671"/><path d="M154.64 376.516c-5.475-.004-10.465-3.02-13.166-7.688a17.46 17.46 0 01-.723-1.433m0 0c.024.062-.045-.05 0 0zm11.055-4.718c.879 1.492 2.69 2.066 4.224 1.379.159-.035.308-.114.463-.211 1.609-.994 2.111-3.156 1.141-4.807-.99-1.655-3.079-2.166-4.689-1.169a1.815 1.815 0 00-.369.291 3.519 3.519 0 00-.77 4.517zm-4.035-8.853a9.54 9.54 0 011.508-1.273c.113-.085.228-.172.361-.255a9.33 9.33 0 012.578-1.134c4.072-1.102 8.535.608 10.827 4.478.418.684.732 1.398.95 2.127a10.155 10.155 0 01-.045 6.336 9.866 9.866 0 01-4.15 5.315 2.234 2.234 0 01-.472.245 9.393 9.393 0 01-7.286.827 9.49 9.49 0 01-4.784-3.176 8.233 8.233 0 01-.881-1.243c-2.39-4.011-1.7-9.051 1.394-12.247zm7.454-8.536c-.729-.013-2.054-.097-2.791.003a14.685 14.685 0 00-6.054 2.331 15.42 15.42 0 00-4.673 4.836m25.752 16.779c1.712-2.976 2.848-7.003 2.318-10.69a15.975 15.975 0 00-1.784-5.395M479.846 817h92.327l35.477-21.564v-43.139l-35.477-21.564-204.354.054m5.154 5.91l192.919-.008m-119.379 75.353h119.432m-188.21-70.379l179.836-.008m-115.856 65.377h115.794m-174.808-60.404h166.337m-112.219 55.394H549.02M389.816 754.09h145.229m-105.756 40.416h105.756"/><path d="M570.108 814.541l33.981-20.079v-40.16l-33.981-20.079m-4.173 77.798l4.171 2.457m-12.602-7.448l4.216 2.495m-12.709-7.513l4.234 2.502m-18.2-50.424v40.19m-113.448-7.746h60.562v-25.079h-84.951m92.672 25.078h38.826v-25.081H489.88v25.081zm65.702-33.062c1.741-.001 3.153 1.441 3.156 3.225.001 1.781-1.408 3.228-3.15 3.231-1.74.001-3.154-1.443-3.157-3.225-.001-1.783 1.41-3.229 3.151-3.231zm7.181-4.241c1.742-.002 3.153 1.44 3.156 3.224.001 1.782-1.408 3.228-3.151 3.231-1.739.001-3.153-1.442-3.156-3.225-.001-1.782 1.41-3.229 3.151-3.23z"/><path d="M577.196 783.863c1.741-.002 3.153 1.44 3.156 3.225.002 1.781-1.408 3.227-3.15 3.23-1.74.001-3.154-1.442-3.156-3.225-.002-1.782 1.409-3.229 3.15-3.23zm7.18-13.096c1.741-.002 3.154 1.44 3.156 3.224.002 1.782-1.408 3.228-3.15 3.231-1.74.001-3.153-1.442-3.156-3.225-.002-1.783 1.408-3.229 3.15-3.23zm-24.34 14.708c.872-1.543 2.799-2.07 4.307-1.18 1.507.892 2.025 2.866 1.154 4.41-.872 1.542-2.8 2.071-4.31 1.179-1.507-.892-2.024-2.866-1.151-4.409zm0-25.638c.872-1.543 2.799-2.07 4.307-1.18 1.507.892 2.025 2.866 1.154 4.41-.872 1.542-2.8 2.071-4.31 1.179-1.507-.892-2.024-2.866-1.151-4.409zm14.433 0c.873-1.543 2.8-2.07 4.308-1.18 1.507.892 2.024 2.866 1.153 4.41-.871 1.542-2.799 2.071-4.308 1.179-1.508-.892-2.025-2.866-1.153-4.409zm-21.614 12.542c.873-1.543 2.8-2.07 4.308-1.18 1.507.892 2.024 2.866 1.153 4.411-.871 1.541-2.8 2.07-4.309 1.178-1.507-.892-2.025-2.866-1.152-4.409zm29.523-15.767c.873-1.543 2.8-2.071 4.308-1.18 1.507.892 2.024 2.866 1.153 4.41-.871 1.542-2.799 2.071-4.308 1.179-1.508-.892-2.025-2.866-1.153-4.409zm6.562 11.863c.873-1.543 2.8-2.071 4.308-1.18 1.507.892 2.024 2.865 1.153 4.41-.871 1.542-2.799 2.071-4.308 1.179-1.508-.892-2.025-2.866-1.153-4.409zm0 8.466c.873-1.543 2.8-2.07 4.308-1.18 1.507.892 2.024 2.866 1.153 4.411-.871 1.541-2.799 2.07-4.308 1.178-1.508-.892-2.025-2.865-1.153-4.409zm-7.291 12.801c.872-1.544 2.799-2.071 4.308-1.18 1.506.892 2.024 2.865 1.153 4.41-.871 1.542-2.8 2.07-4.309 1.178-1.507-.892-2.025-2.865-1.152-4.408zm-7.18 4.42c.873-1.543 2.8-2.07 4.308-1.178 1.507.89 2.024 2.864 1.153 4.409-.871 1.541-2.799 2.07-4.308 1.178-1.508-.892-2.025-2.866-1.153-4.409zm7.011 4.224c.873-1.543 2.8-2.07 4.308-1.18 1.507.892 2.024 2.866 1.153 4.41-.871 1.542-2.799 2.071-4.309 1.179-1.507-.892-2.024-2.866-1.152-4.409zm7.46-4.224c.873-1.543 2.8-2.07 4.308-1.178 1.507.89 2.024 2.864 1.153 4.409-.871 1.541-2.799 2.07-4.308 1.178-1.508-.892-2.025-2.866-1.153-4.409zm-28.904 8.028c.872-1.544 2.799-2.071 4.307-1.18 1.507.892 2.025 2.865 1.154 4.41-.872 1.542-2.8 2.07-4.31 1.178-1.507-.892-2.024-2.865-1.151-4.408zm-7.181-4.302c.873-1.543 2.8-2.07 4.308-1.18 1.507.892 2.024 2.866 1.153 4.411-.871 1.541-2.8 2.07-4.309 1.178-1.507-.892-2.025-2.865-1.152-4.409zm-7.105-4.468c.873-1.544 2.8-2.071 4.308-1.18 1.507.892 2.024 2.865 1.153 4.41-.871 1.542-2.799 2.07-4.308 1.178-1.508-.892-2.025-2.865-1.153-4.408zm50.408-12.345c.872-1.543 2.799-2.071 4.307-1.18 1.507.892 2.024 2.866 1.153 4.41-.871 1.542-2.799 2.071-4.309 1.179-1.507-.892-2.024-2.866-1.151-4.409zm0-8.696c.872-1.543 2.799-2.07 4.307-1.18 1.507.892 2.024 2.866 1.153 4.411-.871 1.541-2.799 2.07-4.309 1.178-1.507-.892-2.024-2.866-1.151-4.409zm0-8.238c.872-1.543 2.799-2.07 4.307-1.18 1.507.892 2.024 2.866 1.153 4.411-.871 1.541-2.799 2.07-4.309 1.178-1.507-.892-2.024-2.866-1.151-4.409zm-21.76 38.466c.872-1.543 2.799-2.07 4.308-1.18 1.506.892 2.024 2.866 1.153 4.411-.872 1.541-2.8 2.07-4.308 1.178-1.508-.892-2.026-2.865-1.153-4.409zm-14.362-9.187c.872-1.544 2.799-2.071 4.307-1.18 1.507.892 2.025 2.865 1.154 4.41-.872 1.542-2.8 2.07-4.31 1.178-1.507-.892-2.024-2.865-1.151-4.408zm-7.106-4.068c.872-1.543 2.799-2.071 4.308-1.18 1.507.892 2.024 2.866 1.153 4.41-.871 1.542-2.8 2.071-4.309 1.179-1.507-.892-2.025-2.866-1.152-4.409zm-7.292-12.71c.872-1.543 2.799-2.07 4.307-1.18 1.507.892 2.025 2.866 1.153 4.41-.871 1.542-2.799 2.071-4.307 1.179-1.509-.892-2.026-2.866-1.153-4.409zm0-8.234c.872-1.544 2.799-2.071 4.307-1.18 1.507.892 2.025 2.865 1.153 4.41-.871 1.542-2.799 2.07-4.307 1.178-1.509-.892-2.026-2.865-1.153-4.408zm-7.217 4.117c.872-1.543 2.799-2.07 4.307-1.18 1.507.892 2.025 2.866 1.153 4.41-.871 1.542-2.799 2.071-4.309 1.179-1.507-.892-2.024-2.866-1.151-4.409zm0 8.234c.872-1.543 2.799-2.07 4.307-1.179 1.507.892 2.025 2.865 1.153 4.41-.871 1.542-2.799 2.07-4.309 1.178-1.507-.892-2.024-2.865-1.151-4.409zm0-16.469c.872-1.543 2.799-2.07 4.307-1.179 1.507.892 2.025 2.865 1.153 4.41-.871 1.542-2.799 2.07-4.309 1.178-1.507-.892-2.024-2.865-1.151-4.409zm36.413-12.433c.872-1.543 2.799-2.071 4.308-1.18 1.506.892 2.024 2.866 1.153 4.41-.871 1.542-2.8 2.071-4.308 1.179-1.508-.892-2.026-2.866-1.153-4.409zm-2.092-13.185c.878 1.539.373 3.514-1.131 4.415-1.503.899-3.434.382-4.315-1.157-.878-1.538-.372-3.514 1.132-4.415 1.504-.899 3.435-.382 4.314 1.157zm0 8.497c.878 1.539.373 3.514-1.131 4.415-1.503.899-3.434.382-4.315-1.157-.878-1.538-.372-3.514 1.132-4.415 1.504-.899 3.435-.382 4.314 1.157zm16.283 5.16c.872-1.543 2.799-2.071 4.307-1.18 1.507.892 2.025 2.865 1.154 4.41-.872 1.542-2.8 2.071-4.308 1.179-1.509-.892-2.026-2.866-1.153-4.409zm-7.545-4.756c.873-1.543 2.8-2.07 4.308-1.18 1.507.893 2.024 2.866 1.153 4.411-.871 1.542-2.8 2.07-4.308 1.178-1.508-.892-2.025-2.865-1.153-4.409zm-2.092-4.686c.878 1.539.374 3.514-1.13 4.414-1.503.899-3.434.382-4.315-1.157-.878-1.537-.372-3.514 1.132-4.414 1.504-.899 3.435-.382 4.313 1.157zm-30.948 5.658c1.741-.001 3.153 1.441 3.156 3.225.001 1.781-1.408 3.227-3.151 3.23-1.739.001-3.153-1.442-3.156-3.225-.001-1.782 1.409-3.229 3.151-3.23zm7.18-4.242c1.741-.001 3.154 1.441 3.157 3.225.001 1.781-1.409 3.227-3.151 3.23-1.739.001-3.153-1.442-3.156-3.225-.001-1.782 1.41-3.229 3.15-3.23zm9.979-2.06c.878 1.538.373 3.513-1.131 4.414-1.502.899-3.433.382-4.314-1.157-.879-1.538-.373-3.514 1.131-4.415 1.504-.899 3.436-.381 4.314 1.158zm7.143 64.406c.878 1.539.373 3.514-1.131 4.414-1.503.9-3.434.382-4.315-1.157-.878-1.537-.372-3.513 1.132-4.414 1.504-.899 3.435-.382 4.314 1.157zm0-8.497c.878 1.539.373 3.514-1.131 4.414-1.503.9-3.434.382-4.315-1.157-.878-1.537-.372-3.514 1.132-4.414 1.504-.899 3.435-.382 4.314 1.157zm-2.725-44.084c1.74 0 3.153 1.441 3.156 3.225.001 1.781-1.408 3.227-3.151 3.23-1.739.002-3.153-1.442-3.156-3.224-.001-1.783 1.41-3.229 3.151-3.231zm2.725 10.096c.878 1.539.373 3.514-1.131 4.414-1.503.9-3.434.382-4.315-1.157-.878-1.537-.372-3.514 1.132-4.414 1.504-.899 3.435-.382 4.314 1.157zm0 8.496c.878 1.539.373 3.514-1.131 4.415-1.503.899-3.434.382-4.315-1.157-.878-1.538-.372-3.514 1.132-4.415 1.504-.899 3.435-.381 4.314 1.157zm-2.725 6.899c1.74-.001 3.153 1.441 3.156 3.225.001 1.781-1.408 3.227-3.151 3.23-1.739.002-3.153-1.442-3.156-3.225-.001-1.782 1.41-3.228 3.151-3.23zm-2.728 10.11c.873-1.544 2.8-2.071 4.308-1.18 1.507.892 2.024 2.865 1.153 4.41-.871 1.542-2.799 2.07-4.308 1.178-1.508-.892-2.025-2.865-1.153-4.408zm31.458 4.915c-1.741.004-3.156-1.435-3.161-3.218-.006-1.781 1.401-3.23 3.143-3.237 1.739-.004 3.156 1.435 3.162 3.219.005 1.781-1.403 3.232-3.144 3.236zm-7.18-4.267c-1.74.005-3.156-1.435-3.163-3.217-.004-1.781 1.403-3.231 3.145-3.238 1.74-.004 3.156 1.435 3.162 3.219.005 1.781-1.403 3.232-3.144 3.236zM541.31 760.45c-1.741.004-3.156-1.435-3.162-3.218-.006-1.781 1.401-3.23 3.143-3.237 1.74-.005 3.156 1.435 3.163 3.219.005 1.781-1.404 3.231-3.144 3.236zm7.179 4.266c-1.741.004-3.156-1.435-3.162-3.217-.005-1.782 1.401-3.231 3.144-3.238 1.739-.004 3.156 1.435 3.163 3.219.004 1.781-1.403 3.232-3.145 3.236zm38.618 19.725c-.874 1.542-2.801 2.068-4.309 1.174-1.506-.893-2.02-2.867-1.148-4.41.873-1.542 2.801-2.068 4.31-1.174 1.506.893 2.021 2.868 1.147 4.41zm-9.899-2.657c-1.742.004-3.156-1.435-3.163-3.218-.004-1.781 1.402-3.23 3.145-3.237 1.739-.005 3.156 1.435 3.161 3.219.006 1.781-1.402 3.231-3.143 3.236zm-11.64-10.143c-.874 1.541-2.801 2.067-4.309 1.174-1.506-.892-2.02-2.867-1.148-4.411.873-1.54 2.801-2.067 4.31-1.174 1.506.894 2.021 2.869 1.147 4.411zm-7.173-7.49c.866 1.546.344 3.517-1.167 4.404-1.51.887-3.437.354-4.304-1.194-.865-1.544-.344-3.517 1.168-4.404 1.511-.887 3.438-.352 4.303 1.194zm-19.973 25.322c.872-1.542 2.8-2.069 4.309-1.176 1.505.892 2.021 2.866 1.149 4.41-.872 1.541-2.801 2.068-4.31 1.176-1.506-.894-2.021-2.869-1.148-4.41zm7.217-4.201c.872-1.541 2.8-2.069 4.309-1.175 1.505.892 2.021 2.865 1.149 4.41-.872 1.54-2.801 2.068-4.31 1.176-1.506-.894-2.021-2.869-1.148-4.411zm50.52-29.4c.874-1.541 2.801-2.069 4.309-1.175 1.505.892 2.021 2.865 1.149 4.41-.871 1.54-2.801 2.068-4.309 1.176-1.507-.894-2.022-2.869-1.149-4.411zm-7.217 4.2c.872-1.542 2.801-2.069 4.309-1.176 1.505.892 2.021 2.866 1.149 4.411-.871 1.54-2.801 2.067-4.309 1.175-1.507-.893-2.022-2.868-1.149-4.41zm-36.097 24.215c-.861-1.549-.334-3.518 1.179-4.401 1.512-.882 3.438-.344 4.3 1.207.863 1.546.336 3.518-1.178 4.401-1.514.881-3.44.342-4.301-1.207zm7.228-7.414c.874-1.542 2.801-2.069 4.309-1.176 1.506.892 2.022 2.866 1.149 4.41-.871 1.541-2.801 2.068-4.309 1.176-1.507-.894-2.022-2.869-1.149-4.41zm14.423-5.186c-.861-1.549-.335-3.518 1.179-4.401 1.512-.882 3.438-.342 4.301 1.207.862 1.546.335 3.518-1.179 4.401-1.514.881-3.439.342-4.301-1.207zm9.935-2.571c-1.741-.013-3.142-1.466-3.131-3.25.012-1.78 1.433-3.217 3.175-3.205 1.741.013 3.143 1.468 3.132 3.25-.013 1.783-1.435 3.218-3.176 3.205zM168.41 680.502h.077c14.132 0 26.814-3.448 35.449-8.909a35.511 35.511 0 003.93-2.86c.53-.446 1.028-.902 1.51-1.371 3.983-3.833 6.264-8.273 6.264-13.014 0-2.258-.523-4.454-1.496-6.546a19.367 19.367 0 00-1.89-3.202c.009.121.009.248.009.368 0 1.788-.305 3.545-.888 5.228-1.12 3.323-3.306 6.419-6.325 9.158-.918.84-1.93 1.638-3.011 2.411-.047.032-.086.063-.133.087-2.513 1.774-5.408 3.346-8.621 4.671h-.008c-7.041 2.899-15.584 4.598-24.79 4.598h-.077"/><path d="M168.449 666.547c6.294-.016 12.138-.822 17.017-2.211 4.581-1.293 8.309-3.098 10.735-5.221 1.994-1.733 3.107-3.69 3.107-5.749v-11.84a8.41 8.41 0 01-.795 3.537c-.458 1.015-1.105 1.981-1.93 2.906-2.785 3.147-7.562 5.749-13.523 7.377-4.348 1.207-9.321 1.892-14.611 1.908m12.099 138.08h-.046m0 0l-3.334 5.328m19.18-167.533c1.991.798 3.535 1.677 5.279 2.626 4.558 2.499 8.199 5.502 10.628 8.846.006.118.006.247.006.368"/><path d="M199.307 641.527c0-.789-.116-1.573-.341-2.331-.492-1.668-1.17-3.256-2.618-4.711m19.291 19.864v29.969m-40.888 82.404v5.995m40.888-88.399v15.864m-15.336 68.663c-2.942 1.517-6.24 2.819-9.819 3.881"/><path d="M284.981 793.985c-7.144 12.98-20.603 16.157-24.563 16.822a8.96 8.96 0 01-1.471.133l-40.29.647c-.053.009-.108.009-.163.009-5.509 0-10.021-4.543-10.107-10.218-.093-5.732 4.365-10.45 9.952-10.538l39.418-.638c1.314-.272 6.542-1.518 9.608-6.42 3.479-5.58 1.62-11.783.926-14.082-1.346-4.486-3.899-7.424-5.361-8.869-7.912-8.479-15.827-16.95-23.746-25.419-4.474-4.79-8.948-9.588-13.431-14.379-.933-1.452-2.348-2.307-3.78-2.506-.911-.127-1.822.007-2.617.431-1.446.774-2.348 2.434-2.417 4.264l-.008.873-.507 57.667c-1.284 3.401-4.295 5.715-7.609 5.852-4.061.175-7.898-2.938-8.784-7.457l.258-10.777c.005-.175.005-.359.014-.534.062-2.876.132-5.74.203-8.615.225-9.587.451-19.176.683-28.763.117-5.174.243-10.355.367-15.528.248-1.573 1.782-10.14 8.838-14.065a14.23 14.23 0 015.245-1.695c2.35-.303 4.536-.038 6.341.193h.008c3.937.51 7.494 1.748 10.62 3.328a40.188 40.188 0 016.427 4.103c3.518 2.731 6.1 5.573 7.648 7.432 1.207 1.374 2.413 2.755 3.627 4.128v.009c8.761 9.979 17.522 19.965 26.284 29.944 12.542 12.008 16.082 30.689 8.387 44.668zm-62.993-93.613c.366-3.777 2.062-12.317 9.735-18.481.341-.278.69-.543 1.041-.791 5.619-4.047 12.077-5.077 17.43-4.597 1.961.167 3.781.543 5.345 1.044 4.194 1.286 8.379 2.572 12.574 3.858 9.492 2.914 18.985 5.819 28.476 8.733 5.812 2.079 10.545 2.316 11.612.418.531-.945.148-2.401-.258-3.947a13.442 13.442 0 00-2.491-4.941 579.33 579.33 0 01-16.324-23.184l-25.327-29.291c-.878-.982-5.85-6.314-14.006-6.563-7.996-.255-13.202 4.558-14.183 5.493-4.877 4.648-13.493 9.845-21.467 19.679"/><path d="M201.626 635.755l4.636-3.983 25.281-21.747c.241-.208.49-.401.755-.582 5.4-3.689 11.897-5.653 18.346-5.534 9.991.192 17.002 5.078 20.285 7.977.148.126.289.263.427.397 14.591 14.721 31.085 35.159 31.085 35.159a514.835 514.835 0 019.439 12.59 522.336 522.336 0 0110.985 15.744c1.706 2.538 4.226 7.121 4.856 13.285.319 3.152.887 8.709-2.381 13.483a13.86 13.86 0 01-1.945 2.274s-2.217 2.148-5.586 3.498a8.664 8.664 0 01-.877.291c-1.828.513-4.543.762-7.908.579-3.775-.2-8.356-.949-13.414-2.467-4.264-1.174-8.528-2.34-12.8-3.512-10.69-2.93-21.381-5.87-32.072-8.798-.094-.024-.163-.049-.265-.08-.022-.007-.101-.033-.234-.064-.987-.264-4.87-1.037-7.959 1.445-2.738 2.203-3.198 5.597-3.274 6.482l.029 5.613m.149 27.606l.132 25.012c.03 4.847-3.782 8.805-8.513 8.829h-.046c-4.698 0-8.527-3.903-8.559-8.733l-.168-31.301-.058-10.691m28.268-24.262c.022 8.368.046 16.733.069 25.101"/><path d="M282.81 703.206l8.014 11.887a20.1 20.1 0 012.592 5.556 20.5 20.5 0 01.815 6.109v.238l.344 62.27c.03 5.27 4.201 9.525 9.336 9.525h.055c5.159-.032 9.313-4.344 9.284-9.637l-.344-62.158a40.14 40.14 0 00-1.603-11.854 39.34 39.34 0 00-2.279-5.957m-40.917-27.787c-2.985-4.443-5.988-8.885-8.975-13.328a5878.597 5878.597 0 01-8.99-13.326m0 0a19.06 19.06 0 00-3.368-3.371 18.48 18.48 0 00-2.355-1.549m5.723 4.92c0 3.625.017 7.25.017 10.876.015 3.625.032 7.251.032 10.876m-17.434 4.613c.08-9.689.151-19.377.227-29.065l.055-6.627c.032-1.329.314-3.865 2.056-6.027.498-.647 1.062-1.157 1.809-1.718 5.324-3.865 10.981-4.051 10.981-4.051.482 0 .946.017 1.394.051.348.017.696.051 1.028.103.499.067.979.152 1.443.255a9.85 9.85 0 011.029.255c.331.085.664.204.995.306.415.153.846.307 1.245.476.397.171.796.358 1.161.546.282.135.564.289.829.442.265.136.53.289.78.443.166.118.331.221.48.323.167.101.316.204.483.307.297.22.596.424.862.629.282.221.547.425.78.63.248.204.48.408.696.596.116.101.216.187.316.289.098.084.199.17.282.255.098.103.182.187.265.272.083.069.166.154.232.238.083.069.15.137.216.221.265.274.464.495.596.647l33.593 49.225v.017m-128.141 65.494c1.781 0 3.47-.296 4.987-.838 4.17-1.462 7.065-4.71 7.065-8.479a7.04 7.04 0 00-.351-2.219 7.988 7.988 0 00-.94-1.962c-1.316-2.029-3.564-3.632-6.32-4.48a15.1 15.1 0 00-4.441-.654"/><path d="M172.877 750.049c.038-.128.069-.255.093-.383.552-2.651-.079-6.276-.079-8.302m17.593 19.019v34.95h-9.936v-34.95m-11.725-89.266h-.58c-9.074-.034-17.502-1.736-24.452-4.595h-.016c-3.203-1.328-6.105-2.894-8.61-4.664-.05-.034-.1-.069-.133-.086a32.019 32.019 0 01-3.019-2.416c-3.02-2.741-5.209-5.839-6.321-9.157a16 16 0 01-.895-5.226c0-.119 0-.255.017-.374-.747 1.038-1.394 2.11-1.892 3.2-.978 2.093-1.493 4.289-1.493 6.552 0 4.732 2.273 9.175 6.253 13.004.483.478.98.936 1.51 1.38a39.333 39.333 0 003.252 2.416c.233.153.448.29.68.443 8.244 5.209 20.172 8.579 33.543 8.885.63.017 1.261.017 1.907.017h.083m-47.109 4.831c.784 1.555 1.917 3.535 3.69 5.483 1.351 1.484 2.722 2.648 3.822 3.57 0 0 1.618 1.338 3.273 2.433 12.423 8.224 24.889 9.863 35.11 9.478h1.885c14.433-.033 26.47-3.62 35.084-9.319 1.641-1.086 3.245-2.411 3.245-2.411 2.178-1.829 5.934-4.616 7.942-8.975"/><path d="M121.548 693.15c.784 1.555 1.917 3.535 3.69 5.483 1.351 1.484 2.722 2.648 3.822 3.57 0 0 1.618 1.338 3.273 2.434 12.423 8.223 24.889 9.862 35.11 9.477h1.885c14.433-.033 26.47-3.619 35.084-9.319 1.641-1.086 3.245-2.411 3.245-2.411 2.178-1.828 5.934-4.616 7.942-8.975m-74.55-74.068c.038 6.519-.741 13.704.038 20.092 2.334 11.974 15.56 13.57 24.524 14.792h5.841c8.965-1.222 22.192-2.818 24.528-14.792.778-6.388 0-13.573.036-20.092"/><path d="M168.615 666.547c-6.294-.016-12.138-.822-17.017-2.211-4.581-1.293-8.309-3.098-10.737-5.221-1.991-1.733-3.105-3.69-3.105-5.749v-11.84c0 1.214.272 2.404.795 3.537.458 1.015 1.105 1.981 1.93 2.906 2.785 3.147 7.562 5.749 13.522 7.377 4.349 1.207 9.322 1.892 14.612 1.908m1.778-54.519a45.285 45.285 0 00-1.778-.054c-15.274.151-27.567 7.552-27.567 16.662 0 .35.017.701.064 1.044 0 .064.005.12.014.184.017.167.039.326.077.496.033.206.071.406.126.605v.023c.039.161.077.321.124.472.069.255.156.504.248.759.07.208.156.408.242.606.071.17.155.345.241.512.009.017.016.039.023.055a11.729 11.729 0 00.671 1.166c.115.191.248.383.379.567.133.191.272.375.422.558a16.853 16.853 0 001.99 2.124 22.052 22.052 0 001.93 1.541c.303.216.616.424.934.632.071.047.141.087.21.126.009.008.024.016.033.025.286.183.566.35.869.518.36.208.724.408 1.106.599.335.177.685.352 1.043.511.125.063.256.12.38.176.226.104.46.208.702.303.124.056.24.104.365.151.116.056.24.104.364.146.321.134.647.255.981.373.281.104.57.199.856.296.149.054.304.104.451.153.289.085.576.175.872.255.126.038.25.08.374.11.17.049.342.096.521.136.062.017.117.033.179.047.273.08.545.146.817.208a32.2 32.2 0 001.299.288c.343.072.701.144 1.05.2.25.048.498.088.748.127.349.065.707.112 1.067.161.473.071.948.126 1.43.175l2.421.188c.121.006.239.016.362.018.202.009.413.018.613.025.267 0 .53.008.804.008.272 0 .535-.008.8-.008.203-.007.412-.016.615-.025.49-.014.971-.047 1.455-.079a73.194 73.194 0 001.494-.127c.483-.049.957-.104 1.432-.175.358-.049.715-.096 1.064-.161.25-.039.499-.079.749-.127.349-.056.707-.128 1.05-.2.435-.087.871-.184 1.298-.288.272-.062.547-.128.819-.208.061-.014.116-.03.176-.047.181-.04.353-.087.523-.136.124-.03.25-.072.374-.11.294-.08.583-.17.871-.255.149-.049.303-.099.451-.153.289-.097.575-.192.856-.296.335-.118.662-.239.981-.373.124-.042.248-.09.366-.146.124-.047.24-.095.365-.151.241-.095.474-.199.699-.303.126-.056.258-.113.382-.176.359-.159.708-.334 1.044-.511.38-.191.747-.391 1.105-.599.301-.168.582-.335.871-.518.008-.009.022-.017.031-.025a2.68 2.68 0 00.208-.126c.322-.208.632-.416.935-.632a21.471 21.471 0 001.93-1.541 16.8 16.8 0 001.992-2.124c.148-.183.289-.367.42-.558.132-.184.265-.376.38-.567.126-.193.243-.382.351-.575.117-.199.219-.391.32-.591.007-.016.014-.038.023-.055.084-.167.17-.342.241-.512.086-.198.17-.398.242-.606.093-.255.178-.504.248-.759.047-.151.085-.311.126-.472v-.023c.052-.199.091-.399.124-.605.038-.17.06-.329.077-.496.007-.064.016-.12.016-.184.046-.343.061-.694.061-1.044 0-9.11-12.292-16.511-27.565-16.662-.599.004-1.192.027-1.779.054m-25.954 30.394c-1.992.798-3.536 1.677-5.279 2.626-4.559 2.499-8.2 5.502-10.629 8.846-.005.118-.005.247-.005.368"/><path d="M137.757 641.527c0-.789.116-1.573.341-2.331.492-1.668 1.17-3.256 2.618-4.711m-19.287 49.84v-29.974m40.885 112.371v5.995m-40.885-88.392v15.864m47.187 62.174c-5.58 0-10.513-3.816-12.053-9.309.117-2.986-.117-5.971 0-8.949h-9.982v16.278h9.982l5.75 6.339h12.439l5.749-6.339h9.983v-16.278h-9.983c.116 2.978-.115 5.963 0 8.949-1.54 5.493-6.473 9.309-12.052 9.309m-6.128 23.389v-13.039h12.424v25.974m-82.678-85.376c1.51-1.634 3.5-3.608 5.956-5.514a41.243 41.243 0 016.436-4.103c3.118-1.566 6.686-2.809 10.617-3.319h.017c1.143-.136 2.422-.306 3.814-.323h.415c.067 0 .134 0 .2.017.215-.017.431 0 .662.017h.1l.547.051c.201 0 .399.017.598.052a14.1 14.1 0 015.242 1.684c7.05 3.931 8.593 12.494 8.841 14.06.117 5.174.25 10.365.366 15.539.215 9.14.431 18.791.647 27.948"/><path d="M120.284 742.757c-.077-10.742-.166-19.113-.166-19.54a4.39 4.39 0 00-.066-.68c-.017-.154-.049-.289-.083-.443a3.254 3.254 0 00-.133-.442.792.792 0 00-.083-.222c.017-.017.017-.017 0-.017-.381-1.072-1.094-1.956-2.04-2.451-.796-.425-1.708-.561-2.62-.442-1.428.204-2.855 1.055-3.784 2.518a1700.135 1700.135 0 01-5.739 6.129m17.352-79.368a80.544 80.544 0 00-1.493-1.787 80.675 80.675 0 00-2.522-2.758c-.232-.238-.463-.494-.696-.715a83.548 83.548 0 00-2.82-2.723 95.713 95.713 0 00-2.937-2.605c-1.625-1.378-3.201-2.637-4.661-3.812-.995-.783-1.924-1.514-2.804-2.23-1.31-1.071-2.505-2.076-3.532-3.046-.98-.936-6.189-5.753-14.184-5.498-8.162.255-13.139 5.583-14.019 6.569-8.426 9.771-16.87 19.524-25.313 29.293-1.262 1.873-2.87 4.274-4.181 6.179m18.347 18.791c2.057-.613 4.777-1.412 6.835-2.059h.016c4.18-1.277 8.377-2.571 12.575-3.847 1.56-.511 3.383-.885 5.341-1.055 5.341-.477 11.811.562 17.419 4.613.083.067.182.118.265.186.034.017.05.035.066.052.132.085.249.169.365.272.117.085.233.187.348.272.134.103.25.204.382.323.116.086.216.171.316.256.182.153.331.289.498.443.265.238.53.493.779.748.233.222.464.46.679.698a24.112 24.112 0 012.937 3.796c.414.647.779 1.294 1.129 1.957.098.205.214.426.314.646.199.427.399.853.581 1.277.182.426.348.834.497 1.243.15.409.282.818.415 1.208a29.248 29.248 0 011.211 5.889m-17.053 7.421l.034-5.6c-.068-.885-.532-4.289-3.269-6.485-3.086-2.485-6.968-1.701-7.963-1.446-.132.034-.216.051-.231.068-.1.035-.166.052-.267.069-3.35.919-6.684 1.838-10.019 2.757"/><path d="M31.269 652.054c1.044-1.378 2.39-3.37 3.35-4.613 0 0 .15-.186.415-.51.183-.239.431-.528.73-.885.282-.357.63-.783 1.03-1.259.397-.495.845-1.022 1.326-1.618.63-.749 1.328-1.583 2.073-2.485 1.328-1.583 2.853-3.37 4.497-5.311.431-.475.846-.987 1.292-1.497.333-.392.664-.782 1.03-1.191.083-.103.183-.221.281-.341l.93-1.056.447-.51c.249-.306.532-.596.797-.902.199-.238.398-.476.613-.715.216-.238.431-.493.664-.748.25-.29.532-.596.797-.902.978-1.091 1.973-2.213 2.985-3.336.066-.069.117-.137.183-.188.447-.51.895-1.005 1.344-1.498 1.36-1.498 2.754-2.995 4.13-4.476.929-.987 1.858-1.958 2.771-2.911.929-.97 1.841-1.906 2.753-2.826.133-.135.282-.255.431-.391a32.913 32.913 0 017.632-5.003 32.913 32.913 0 015.723-2.061c.53-.118 1.077-.238 1.625-.356a31.65 31.65 0 013.285-.46 37.346 37.346 0 012.024-.103c6.436-.118 12.939 1.855 18.347 5.532.265.188.514.391.746.595l25.281 21.736 4.63 3.983h.015m-20.354 82.772l-.1 18.808m-28.167-43.063c-.017 4.544-.017 9.941-.035 14.485"/><path d="M92.648 649.824a18.31 18.31 0 00-2.356 1.549 18.956 18.956 0 00-3.367 3.37m0 0c-3.003 4.443-5.989 8.885-8.992 13.328-2.986 4.441-5.988 8.884-8.974 13.326m17.966-26.654v2.706c0 2.723-.017 5.448-.034 8.171 0 3.625-.016 7.25-.016 10.875m-34.804-3.319l21.996-32.27c.134-.154.333-.375.598-.647a1.29 1.29 0 01.216-.221c.066-.086.15-.171.232-.24l.265-.272c.084-.084.184-.169.282-.255.1-.101.2-.187.316-.289.216-.187.448-.392.697-.596.232-.204.497-.409.779-.63.265-.203.564-.409.863-.629.166-.102.315-.204.48-.307.15-.102.316-.204.482-.323.248-.153.515-.307.78-.442.265-.154.547-.306.829-.443.365-.187.764-.375 1.161-.545.398-.17.83-.323 1.245-.477.331-.101.662-.221.995-.306.331-.101.68-.187 1.028-.255.465-.101.929-.187 1.426-.255.034 0 .084-.017.134-.017.199-.035.415-.052.63-.069.547-.05 1.094-.067 1.675-.067 0 0 5.657.187 10.965 4.05.764.563 1.328 1.073 1.826 1.72 1.741 2.161 2.024 4.698 2.056 6.025.1 11.898.184 23.778.265 35.675v.017m64.323 74.533a14.84 14.84 0 01-4.987-.838c-4.17-1.462-7.065-4.71-7.065-8.479a7.04 7.04 0 01.351-2.219 7.988 7.988 0 01.94-1.962c1.316-2.029 3.564-3.632 6.318-4.48a15.118 15.118 0 014.443-.654m-4.523 12.657c-.552-2.65.078-6.275.078-8.303m-7.656 38.261v-19.233m-9.936 9.02v-9.021"/><path d="M172.892 741.395c0 1.906-1.953 3.454-4.36 3.454s-4.359-1.548-4.359-3.454c0-1.907 1.952-3.455 4.359-3.455s4.36 1.548 4.36 3.455zm.079 8.271h-.087m-8.706 0h-.086m8.801.112c0 .088-.009.184-.016.271v.017c-.196.734-.499 1.381-.95 1.866-.054.057-.107.113-.171.161-.093.097-.202.176-.31.256-.771.551-1.79.877-2.912.877-1.119 0-2.145-.335-2.918-.877-.052-.04-.107-.08-.162-.129a.993.993 0 01-.148-.127 1.439 1.439 0 01-.17-.161c-.452-.485-.755-1.132-.949-1.866v-.017a2.719 2.719 0 01-.017-.271c0-.039 0-.08.008-.113m218.534-627.301c0 .453.011 4.98.12 4.98l-119.038-.453-5.413 11.108h113.528l2.193 5.543c-21.081.098-109.786.061-148.229.037m156.839-21.252v.037c-25.543.723-56.424-.477-81.976-.564l5.413-11.108h76.563"/><path d="M382.628 105.138h-.012c-1.157 0-73.368.024-73.976 0l5.414-11.096s30.775-.514 30.751 0l.037-5.555c10.814 0 9.586 0 10.814.123.023 1.711-.036 3.718 0 5.432 1.907.282 10.826 0 21.642 0l10.827-38.869h5.413v38.869s16.229.405 16.229 0v11.096s-4.925 5.554-5.413 5.554c.488 0 0 22.207 0 22.207h33.051c.014-1.738.238-5.556.238-5.556h20.822v5.556h37.811c-.479.99-32.398 55.519-32.398 55.519s-210.001.463-282.241.566"/><path d="M187.409 182.862h265.642l21.641-44.411h-54.098l-16.229 11.11s-133.658-.098-184.333-.074"/><path d="M394.139 149.252v-43.981h-5.594v43.725m67.687.719h-29.374M258.6 410.266c1.2 22.251 2.398 43.594 3.598 65.844m-11.339-11.605c1.126-19.875.871-7.113 1.998-26.99m-2.768-34.952s-.003.005.002.008l.003-.005-.005-.003zm10.065 3.406c.995-.222 4.703-1.121 8.673-2.106 5.255-1.297 10.948-2.739 11.407-2.951.614-.282 1.257-.576 1.933-.892 3.998-1.844 8.939-4.233 13.851-6.649a1921.02 1921.02 0 0013.915-6.929c4.45-2.236 7.465-3.775 7.465-3.775.644-.322.731-.866.495-1.445l-.02-.067c-.333-.843-1.012-.862-1.432-.714l-5.782 2.014-13.503 4.702-13.496 4.7-13.502 4.702-12.019 4.181m-5.369 5.859c-.128.419-.395 1.307-.736 2.482-.226.737-.468 1.589-.743 2.511-.008.019-.008.034-.014.047-1.639 5.644-3.978 13.856-4.034 14.47a305.158 305.158 0 00-.526 6.719c-.013.225-.032.446-.045.671-.028.458-.066.917-.092 1.382a715.06 715.06 0 00-.409 6.473c-.04.712-.081 1.426-.115 2.141l-.051.8c-.015.248-.031.494-.044.735-.026.487-.049.979-.083 1.463-.028.488-.052.969-.077 1.451l-.037.721c-.041.713-.072 1.422-.113 2.119-.018.469-.041.929-.069 1.385-.01.235-.022.459-.035.684-.01.219-.017.447-.035.67-.016.362-.034.715-.054 1.068-.052 1.085-.1 2.125-.148 3.104-.008.165-.014.325-.025.482-.035.883-.076 1.711-.116 2.486-.005.212-.017.416-.027.62-.077 1.75-.141 3.152-.184 4.087a9.778 9.778 0 01-.023.544c-.011.318-.021.537-.027.65-.008.05-.007.081-.007.081-.001.068 0 .131.005.187a.823.823 0 00.077.319c.003.026.01.044.027.058a.647.647 0 00.087.149c.04.048.086.101.136.146.18.151.43.241.719.28l.064.014c.914.137 1.269-.425 1.355-.855l10.557-56.747.432-2.343"/><path d="M252.174 404.2l.005.099-2.087-1.734-5.486-4.547-10.974-9.112-10.981-9.107-10.975-9.103-6.397-5.305c-.34-.279-.664-.862-.072-1.567l.037-.053c.403-.486.936-.686 1.538-.302 0 0 2.206 1.361 5.577 3.471 3.065 1.916 7.102 4.457 11.334 7.14a994.866 994.866 0 0111.313 7.28 375.46 375.46 0 016.48 4.327c.275.186 2.199 2.07 4.567 4.417a1251.04 1251.04 0 018.269 8.31c.791.803 1.514 1.588 1.79 1.883"/><path d="M250.09 402.558l-.002.007.007.003-.005.006a5.003 5.003 0 00-.155.622c-.019.107-.038.213-.05.323-.02.106-.03.21-.034.316-.01.104-.02.206-.016.316-.004.106-.01.218-.007.328.009.212.024.426.049.638.033.245.082.491.14.733.039.148.086.3.135.446.007.034.017.061.027.09.054.153.116.306.181.45.036.087.074.174.122.256.082.176.182.345.286.508.071.132.155.255.248.373a.372.372 0 00.06.09c.039.048.077.104.117.152.245.312.525.602.841.867m2.849-4.955c-.131.687.295 1.349.967 1.563.058.026.129.043.201.06a1.454 1.454 0 001.67-1.15 1.414 1.414 0 00-1.176-1.62.752.752 0 00-.193-.01c-.714-.024-1.345.452-1.469 1.157zm1.114-3.766a.621.621 0 01.121-.006c.227-.013.467-.004.705.027a1 1 0 01.18.02 4 4 0 011.127.351c1.591.768 2.55 2.496 2.225 4.282a3.53 3.53 0 01-.272.899 4.012 4.012 0 01-1.732 1.908 4.179 4.179 0 01-2.759.486 1.091 1.091 0 01-.219-.053 4.082 4.082 0 01-2.534-1.721 3.818 3.818 0 01-.659-2.255l.005-.112c.003-.168.017-.331.051-.5.329-1.86 1.913-3.195 3.761-3.326zm4.681-.571c-.229-.201-.626-.585-.889-.754a6.391 6.391 0 00-2.554-.931 6.566 6.566 0 00-2.794.2m3.634 12.036c1.35-.437 2.802-1.349 3.633-2.608a6.222 6.222 0 00.895-2.113m-120.51-216.486c0 5.878 4.644 10.643 10.373 10.643 5.729 0 10.372-4.765 10.372-10.643 0-5.878-4.643-10.643-10.372-10.643s-10.373 4.765-10.373 10.643zm490.873 558.911c0 5.878 4.645 10.643 10.374 10.643 5.728 0 10.37-4.765 10.37-10.643 0-5.878-4.642-10.643-10.37-10.643-5.729 0-10.374 4.765-10.374 10.643zM19.775 551.866c4.112-4.157 4.161-10.845.11-14.941-4.051-4.093-10.666-4.044-14.778.113s-4.161 10.844-.112 14.939c4.052 4.095 10.668 4.046 14.78-.111zM189.237 64.824l7.065 4.202 22.814-13.56V28.341l-22.814-13.556-22.809 13.556v10.867"/><path d="M173.489 28.345l22.815 13.561 22.814-13.561m-22.816 40.677V41.907m-7.549 61.903l7.547 4.49 22.815-13.561v-27.12l-10.156-6.038"/><path d="M188.632 76.62l7.666 4.56 22.814-13.56m-22.81 40.676V81.182m-44.01.14l-9.218 5.481v27.12l22.816 13.56 22.808-13.56v-27.12l-8.906-5.293"/><path d="M143.071 86.801l22.815 13.562L188.7 86.801m-22.816 40.678v-27.115m23.515-81.844V8.203L166.586-5.363l-22.81 13.567v8.134"/><path d="M143.774 8.2l22.813 13.561L189.403 8.2m-22.817 27.56V21.758m22.813 27.12l-22.813-13.561-22.81 13.561v27.116l22.81 13.56 22.813-13.56V48.878z"/><path d="M143.774 48.878l22.813 13.562 22.816-13.562m-22.817 40.679V62.442"/><path d="M158.982 40.116V25.978l-22.814-13.556-22.815 13.556v27.12l22.815 13.555 7.015-4.164"/><path d="M113.356 25.979l22.815 13.561 22.814-13.561m-22.816 40.678V39.542m-12.283 20.857l-10.531 6.257v27.12l22.813 13.561 6.329-3.762"/><path d="M113.356 66.657l22.815 13.562 7.697-4.579m-7.699 31.695V80.219m513.966 675.678c78.148 79.993 157.65 161.154 235.612 240.96M522.071 624.468a230564.26 230564.26 0 01113.484 116.055M396.372 495.92a162325.56 162325.56 0 0073.505 75.194m-173.68-177.745l84.778 86.789M200.674 295.575c30.399 31.122 60.794 62.242 91.185 93.354M-209.873-124.85c132.88 136.114 265.851 272.28 398.77 408.367m332.167 368.584c112.674 115.337 224.042 230.225 336.354 345.192M430.033 559.812l21.392 21.898m-54.736-55.812c8.069 8.259 15.448 15.586 23.515 23.843M275.978 402.11c25.371 25.974 50.751 51.957 76.143 77.949M192 316.134l78.29 80.153M-209.771-95.307a2318913.663 2318913.663 0 00388.447 397.8M607.65 770.685c73.705 75.598 147.202 151.051 221.037 226.632M490.635 650.763a143941.96 143941.96 0 0178.057 79.971M258.865 413.559a361220.98 361220.98 0 0164.979 66.501M180.758 333.659l34.058 34.836M-210.847-66.97C-84.153 62.808 42.025 191.774 168.405 321.026m436.437 476.518c65.553 67.133 130.958 134.124 196.61 201.329M490.635 680.608c16.279 16.663 32.535 33.307 48.774 49.933m-278.83-285.328l58.039 59.416M168.693 351.142c26.02 26.641 52.039 53.277 78.053 79.91M-211.008-37.694c122.9 125.891 245.887 251.831 368.823 377.699m428.923 468.536c61.938 63.392 123.888 126.792 185.41 189.769M460.189 679.015l50.239 51.423M248.409 462.19l69.381 71.027m-136.746-139.87c21.361 21.874 42.711 43.735 64.044 65.573M-210.644-7.883C-93.505 112.106 24.135 232.652 141.503 352.854M566.5 817.05c55.491 56.887 108.6 111.351 175.656 179.992M439.042 686.466c15.008 15.363 29.329 30.028 43.138 44.172M223.373 465.995l92.327 94.517M163.073 404.261l8.823 9.032m-44.522-45.582l15.81 16.186M-212.624 19.53a2018219.897 2018219.897 0 00322.429 330.194M537.561 817.05l177.863 182.063M164.156 434.806c96.444 98.739 192.845 197.42 289.125 295.974M98.961 368.057l42.39 43.4M-212.335 49.263A1800945.704 1800945.704 0 0082.323 351.021m426.434 465.978c59.365 60.769 118.676 121.479 177.912 182.114m-521.54-533.875c86.477 88.534 172.914 177.016 259.252 265.394M70.565 368.406a362609.28 362609.28 0 0069.493 71.165m339.945 377.428L657.307 998.49M165.844 495.406c76.649 78.47 153.264 156.898 229.801 235.244m-353.5-361.91c32.215 33 64.456 66.014 96.678 99.001m-293.404-300.456a1093520.46 1093520.46 0 00186.41 190.892M327.881 690.72c101.989 104.399 202.116 206.887 300.28 307.37M13.725 369.059c76.624 78.489 153.328 157.022 229.923 235.433m-385.804-395.05c49.74 50.95 99.532 101.931 149.255 152.831m309.429 346.258c94.491 96.725 188.865 193.324 283.029 289.713M292.224 683.652l7.223 7.394m-62.52-64l7.216 7.387m-456.532-467.468a1953223.926 1953223.926 0 00437.388 447.871m87.895 119.409c86.068 88.102 172.032 176.093 257.813 263.903m-320.4-327.97l8.1 8.292m-37.166-38.046l11.741 12.018m-443.503-454.125a1950571.987 1950571.987 0 00419.889 429.954m104.095 135.99l228.896 234.301M250.255 699.559l43.548 44.578m-78.164-80.013l16.647 17.041m-443.294-453.908a1840117.45 1840117.45 0 00367.784 376.61m155.636 188.752c67.335 68.925 134.593 137.77 201.732 206.496m-227.135-232.5l7.216 7.387m-78.418-80.271l6.111 6.255m-432.824-443.185a1722085.72 1722085.72 0 00351.758 360.198m144.136 176.982c66.906 68.486 133.734 136.89 200.438 205.171M239.297 747.211l29.907 30.613m-52.122-53.353l4.77 4.883m-432.656-443.01a1559543.231 1559543.231 0 00314.601 322.155M269.792 807.86c61.872 63.333 123.674 126.592 185.365 189.741M232.038 769.214l20.397 20.88m-35.762-36.609l5.382 5.509M88.857 622.642l32.221 32.984M19.961 552.094c17.825 18.258 35.663 36.524 53.49 54.775m170.827 204.307L427.66 998.888M216.23 782.466l7.968 8.156M104.199 667.783c5.641 5.775 11.708 11.769 17.35 17.544M70.09 632.863l5.934 6.076m-288.98-295.92a1424461.86 1424461.86 0 00270.72 277.226m157.677 190.846l183.376 187.707m-208.32-213.239l18.16 18.589M77.312 669.693l6.76 6.921m-27.478-28.131l6.944 7.107m-274.037-280.616c84.876 86.942 169.82 173.922 254.71 260.83m-255.197-231.89c193.329 198.036 387.03 396.279 579.494 593.293m-580.57-564.955c184.52 189.012 369.397 378.223 553.093 566.261m-553.58-537.321C-37.528 640.474 137.829 819.944 312.067 998.3m-523.926-506.961C-46.468 660.755 119.24 830.35 283.891 998.892m-496.827-479.216c155.921 159.716 312.14 319.6 467.363 478.49m-463.073-444.244c146.52 150.086 293.32 300.33 439.184 449.638m-441.327-422.393C-72.473 722.85 66.107 864.681 203.805 1005.63m-410.069-390.39C-79.05 745.549 48.406 875.996 175.05 1005.63m-383.125-362.806C-90.054 763.719 28.195 884.74 145.688 1005.01m-356.214-335.256c109.115 111.772 218.44 223.66 327.067 334.856m-326.924-305.27c99.526 101.946 199.241 204.002 298.32 305.42m-297.885-275.536c89.756 91.941 179.683 183.977 269.037 275.446M-208.7 759.941c79.882 81.825 159.916 163.737 239.441 245.139M-210.07 787.977C-139.144 860.63-68.083 933.358 2.526 1005.63m417.678-426.724l-20.708-21.193m20.708 48.319l-15.536-16.419m7.081-400.785c-52.552 53.775-105.04 107.488-157.438 161.105m560.931-573.887a1481555.56 1481555.56 0 00-348.836 356.852m-83.397 55.908c-47.772 48.885-95.49 97.716-143.13 146.464m547.098-559.735a1474297.202 1474297.202 0 00-343.764 351.666m-88.834 61.47c-43.082 44.086-86.116 88.124-129.086 132.093m532.92-545.229a1473694.642 1473694.642 0 00-348.49 356.504m-84.274 56.696L211.034 305.814m518.307-530.279a1318042.93 1318042.93 0 00-319.618 326.968m-113.152 86.295l-89.894 91.988m493.845-505.25A1307727.646 1307727.646 0 00393.539 89.574M206.796 251.233l-24.627 25.201m85.641-87.636l-42.221 43.204m446.169-456.466a1169824.046 1169824.046 0 00-278.219 284.61m-154.606 128.77l-71.054 72.708m475.114-486.089A1328974.257 1328974.257 0 00331.807 93.877m-121.682 95.087l-56.756 58.077m460.86-471.505a1428671.535 1428671.535 0 00-343.451 351.352m314.687-351.352C436.284-71.916 287.091 80.775 138.969 232.345m6.02-35.592a192349.14 192349.14 0 00-20.42 20.896M556.7-224.464C424.28-89.055 291.732 46.592 159.864 181.532m51.77-82.408L110.39 202.726m417.047-426.68A1271610.254 1271610.254 0 00219.266 91.313m-60.444 32.421L95.99 188.03m402.861-412.166a1123347.341 1123347.341 0 00-283.05 289.564m-72.739 45.002c-20.509 20.987-41 41.956-61.472 62.903m388.24-397.207a1053164.81 1053164.81 0 00-250.657 256.42m-94.854 67.632c-19.023 19.465-38.029 38.916-57.02 58.346m374.556-383.206A1062024.532 1062024.532 0 00203.801 18.843m-90.493 63.17c-20.191 20.662-40.366 41.305-60.517 61.927m360.087-368.405A969034.957 969034.957 0 00186.989 6.615m-73.811 46.099L38.39 129.245m316.959-353.709C244.77-111.39 134.077 1.9 24.069 114.468M326.39-224.266C220.719-116.21 114.937-7.946 9.811 99.626M297.42-224.056C196.58-120.939 95.632-17.624-4.688 85.032m273.829-309.584C172.929-126.169 76.615-27.597-19.1 70.346m260.181-295.619C149.511-131.636 57.846-37.821-33.25 55.396m244.608-279.688C124.89-135.872 38.331-47.282-47.69 40.741M182.942-224.65C101.144-141.005 19.258-57.2-62.118 26.072m215.487-250.309C76.586-145.721-.277-67.055-76.664 11.109m460.493 58.969a97442.21 97442.21 0 00-23.547 24.089"/><path d="M384.27 660.137v-57.166h-4.899v52.004"/><path d="M418.265 639.633c-15.167-43.918-20.239-85.25-21.61-114.822-1.268-27.334.624-44.623.624-44.623h-80.366s.307 1.657.705 4.621c.765 5.696 1.12 12.353 1.218 19.213.142 10.099-.278 20.638-.785 29.196-.625 10.542-1.382 18.075-1.382 18.075-.045.468-.096.934-.138 1.4-.64 7.18-3.644 33.043-3.733 33.958m80.684-101.655h-71.57m70.171 37.244h-66.974m66.974 4.847h-66.974m69.188 34H321.93m73.43 4.847h-73.999"/><path d="M398.347 674.454v-74.763s-12.262-3.008-16.527-3.008c-4.066 0-16.79 3.008-16.79 3.008v28.255h-5.066v-21.498a31.791 31.791 0 00-4.464-2.106c-1.536-.585-7.466-2.705-15.361-1.903-2.348.24-5.824.912-9.567 2.38m142.675 26.885h-6.596v-6.77h6.596v6.77zm12.138 0h-6.596v-6.77h6.596v6.77zm-86.651 24.662h55.071v-6.16h-55.327m40.564 36.261h14.763v-6.145h-49.548m-5.693-9.08h55.241v-6.16h-55.292"/><path d="M460.189 679.014v-39.216h-61.525"/><path d="M490.577 679.787v-66.558h-64.841v12.013h34.57v6.12h-40.102v-93.818h9.829v70.352"/><path d="M521.171 599.342h-83.869v-7.189h73.536v-5.03h-62.875s7.426-16.591 28.772-16.591c12.521 0 22.28 6.722 27.51 12.146l.003.002m16.815 69.421l.108-52.759m-652.133-437.309C-68.227 226.295-5.445 290.585 57.305 354.829m-181.64 50.408c43.001 44.048 86.038 88.117 129.045 132.146"/></g></symbol><symbol id="chevron-left" viewBox="0 0 31 31"><path d="M19.15 23.388a.868.868 0 01-1.227 1.227l-8.502-8.502a.867.867 0 010-1.227l8.502-8.502a.868.868 0 011.227 1.227L11.26 15.5l7.889 7.888zM15.5 0C6.94 0 0 6.94 0 15.5 0 24.06 6.94 31 15.5 31 24.06 31 31 24.06 31 15.5 31 6.94 24.06 0 15.5 0z" fill="currentColor"/></symbol><symbol id="chevron-right" viewBox="0 0 31 31"><path d="M11.85 7.612a.868.868 0 011.227-1.227l8.502 8.502a.867.867 0 010 1.227l-8.502 8.502a.868.868 0 01-1.226-1.227l7.888-7.889-7.888-7.888zM15.5 31C24.06 31 31 24.06 31 15.5 31 6.94 24.06 0 15.5 0 6.94 0 0 6.94 0 15.5 0 24.06 6.94 31 15.5 31z" fill="currentColor"/></symbol><symbol id="cnews-logo" viewBox="0 0 113 22"><g clip-path="url(#clip0_5_8742)"><mask id="mask0_5_8742" style="mask-type:luminance" maskUnits="userSpaceOnUse" x="0" y="0" width="113" height="22"><path d="M112.651 0H0v21.417h112.651V0z" fill="#fff"/></mask><g mask="url(#mask0_5_8742)"><path d="M9.716 21.417C3.966 21.417 0 16.685 0 11.259 0 4.773 5.75 0 12.125 0c1.515 0 5.148.184 5.148 2.325 0 1.02-1.141 2.142-2.221 2.142-1.64-.02-3.343-3.04-5.71-3.04-3.778 0-5.563 4.325-5.563 7.466 0 5.976 4.152 9.79 8.823 9.79 1.806 0 3.114-.59 4.526-1.57.29.163.581.326.893.449v.02c-2.118 2.346-5.045 3.835-8.305 3.835zM28.401 2.509v-.47L34.007 0l.519.184-.374 3.386C36.852 1.632 39.446 0 42.478 0c5.667 0 5.937 4.59 5.937 7.323v8.26c0 3.794.187 4.182 3.675 4.692v.693H41.087v-.693c3.487-.51 3.633-1.06 3.674-4.692V10.24c0-3.243.146-7.832-5.605-7.832-1.931 0-3.26.612-4.817 1.999v11.177c0 3.794.187 4.182 3.675 4.692v.693H27.01v-.693c3.488-.51 3.634-1.06 3.675-4.692V6.731c.042-1.958.083-2.55-2.284-4.222z" fill="#333"/><path d="M64.048 5.568l-9.052.368c.498-2.326 2.097-4.916 4.796-4.916 2.491 0 3.82 2.407 4.256 4.548zm-9.405 3.57l.187-2.325h13.682C68.325 2.652 65.502 0 61.245 0c-6.373 0-10.609 5.14-10.609 11.137 0 5.568 4.049 10.3 9.903 10.3 3.675 0 6.893-2.366 8.679-5.384l-.706-.51c-1.412 1.856-3.114 2.916-5.564 2.916-5.336 0-8.678-4.507-8.305-9.321z" fill="#333"/><path d="M77.025 21.417L70.236 4.875c-.851-1.999-1.37-3.57-3.924-3.712V.469h9.966v.694c-3.489.102-2.887 1.57-2.035 3.753l4.526 11.36 4.443-10.3c-1.453-3.712-1.516-4.405-4.298-4.813V.469h10.09v.694c-3.53.142-3.072 1.53-2.491 3.06l4.63 12.054c1.889-4.12 5.19-11.26 5.19-13.442 0-1.53-1.453-1.53-2.637-1.672V.469h7.972v.694c-2.698.183-3.404 2.04-4.38 4.12l-7.391 16.134h-.665L83.627 7.323l-5.896 14.094h-.706z" fill="#333"/><path d="M110.387 5.834c-.664-2.142-1.702-4.733-4.38-4.733-1.931 0-3.115 1.387-3.115 3.244 0 4.773 9.779 4.63 9.779 10.627 0 4.12-4.007 6.445-7.827 6.445-2.076 0-4.111-.55-5.75-1.713l-.375-5.14 1.08-.184c.665 2.835 2.263 5.834 5.606 5.834 2.18 0 3.633-1.571 3.633-3.672 0-5.283-9.778-4.222-9.778-10.851 0-3.61 3.446-5.711 6.788-5.711 1.848 0 3.737.51 5.233 1.53l.144 4.12-1.038.204zm-95.19 4.874c0-3.202 2.637-5.792 5.896-5.792 3.26 0 5.896 2.59 5.896 5.792 0 3.203-2.636 5.793-5.896 5.793-3.239 0-5.896-2.59-5.896-5.793z" fill="#333"/><path d="M16.214 8.302c0-1.326 1.1-2.407 2.45-2.407s2.45 1.08 2.45 2.407c0 1.325-1.1 2.407-2.45 2.407s-2.45-1.082-2.45-2.407z" fill="#fff"/></g></g></symbol><symbol id="hero" viewBox="0 0 1438 282"><path d="M1373.57 198.42c-2.5 0-4.52-2.024-4.52-4.52 0-2.496 2.02-4.52 4.52-4.52 2.49 0 4.52 2.024 4.52 4.52 0 2.496-2.03 4.52-4.52 4.52zm9.86 11.727c-2.5 0-4.52-2.024-4.52-4.52a4.517 4.517 0 014.52-4.519c2.49 0 4.52 2.023 4.52 4.519s-2.03 4.52-4.52 4.52zm22.3-1.835a4.524 4.524 0 01-4.52-4.52c0-2.496 2.03-4.52 4.52-4.52 2.5 0 4.52 2.024 4.52 4.52 0 2.496-2.02 4.52-4.52 4.52zm-9.94-9.943c-2.5 0-4.52-2.024-4.52-4.52a4.517 4.517 0 014.52-4.519c2.49 0 4.52 2.023 4.52 4.519s-2.03 4.52-4.52 4.52zm-34.15-11.562a4.524 4.524 0 01-4.52-4.52c0-2.496 2.03-4.52 4.52-4.52 2.5 0 4.52 2.024 4.52 4.52 0 2.496-2.02 4.52-4.52 4.52zm0-34.839a4.524 4.524 0 01-4.52-4.52c0-2.496 2.03-4.52 4.52-4.52 2.5 0 4.52 2.024 4.52 4.52 0 2.496-2.02 4.52-4.52 4.52zm-96.32-34.839a4.524 4.524 0 01-4.52-4.52c0-2.496 2.03-4.52 4.52-4.52 2.5 0 4.52 2.024 4.52 4.52 0 2.496-2.02 4.52-4.52 4.52zm56 116.13c-2.5 0-4.52-2.024-4.52-4.52a4.517 4.517 0 014.52-4.519c2.5 0 4.52 2.023 4.52 4.519s-2.02 4.52-4.52 4.52zm-4.9 11.613a4.524 4.524 0 01-4.52-4.52 4.523 4.523 0 014.52-4.519c2.5 0 4.52 2.023 4.52 4.519s-2.02 4.52-4.52 4.52zm107.02-23.226c-2.5 0-4.52-2.024-4.52-4.52 0-2.496 2.02-4.52 4.52-4.52 2.5 0 4.52 2.024 4.52 4.52 0 2.496-2.02 4.52-4.52 4.52zm-17.71 11.613a4.524 4.524 0 01-4.52-4.52 4.523 4.523 0 014.52-4.519c2.5 0 4.52 2.023 4.52 4.519s-2.02 4.52-4.52 4.52zm-22.3 11.613c-2.5 0-4.52-2.024-4.52-4.52a4.517 4.517 0 014.52-4.519c2.49 0 4.52 2.023 4.52 4.519s-2.03 4.52-4.52 4.52zm22.3 11.613a4.524 4.524 0 01-4.52-4.52 4.523 4.523 0 014.52-4.519c2.5 0 4.52 2.023 4.52 4.519s-2.02 4.52-4.52 4.52zm-26.82-116.13c-2.5 0-4.52-2.024-4.52-4.52 0-2.496 2.02-4.52 4.52-4.52 2.49 0 4.52 2.024 4.52 4.52 0 2.496-2.03 4.52-4.52 4.52zm-62.36-11.613c-2.5 0-4.52-2.024-4.52-4.52 0-2.496 2.02-4.52 4.52-4.52 2.5 0 4.52 2.024 4.52 4.52 0 2.496-2.02 4.52-4.52 4.52zm27.92 34.839c-2.5 0-4.52-2.024-4.52-4.52 0-2.496 2.02-4.52 4.52-4.52 2.5 0 4.52 2.024 4.52 4.52 0 2.496-2.02 4.52-4.52 4.52zm72.53-11.613a4.524 4.524 0 01-4.52-4.52c0-2.496 2.03-4.52 4.52-4.52 2.5 0 4.52 2.024 4.52 4.52 0 2.496-2.02 4.52-4.52 4.52zm-17.17 11.613c-2.5 0-4.52-2.024-4.52-4.52 0-2.496 2.02-4.52 4.52-4.52 2.5 0 4.52 2.024 4.52 4.52 0 2.496-2.02 4.52-4.52 4.52zm32.65 11.613c-2.5 0-4.52-2.024-4.52-4.52 0-2.496 2.02-4.52 4.52-4.52 2.5 0 4.52 2.024 4.52 4.52 0 2.496-2.02 4.52-4.52 4.52zm-31.22 76.771h-107.69m18.23-11.613h-14.05m80.26 0h-19.57m-41.81-11.613l-15.95-.038m100.58.038h-54.04m-46.3-11.613h-157.2m275.63 0l-69.99-.036m-25.52-11.577h-191.39m245.56 0h-27.39m-24.66-11.613h-204.78m247.35 0h-29.47m-11.87-11.613h-217.46m318.23-11.613h-309.04m164.13-11.613h-165.01m221.91 0h-27.72m82.27 0h-27.72M1182.3 141.38h-32.34m207.16 6.068h-34.08m89.64 0h-34.98m-3.31-11.613h-68.12m5.76-11.613h-112.57m128.04 58.065l23.12 23.125m22.04-34.687l20 19.998m-63.6-19.998l11.56 11.562m-96.14-11.613l11.58 11.588m11.39 11.78l11.56 11.562m-39.28-23.271l11.56 11.562m37.83 23.244l11.56 11.562m-26.16-11.575l23.23 23.226m-39.51-23.375l34.99 34.988m32.73-58.065l23.4 23.19m-25.52-11.577l34.57 34.878m-57-69.717l21.63-22.902m33.03 22.902l21.63-22.902m14.7 69.354l10.13-10.138m-116.43-36.247l23.3-23.293m-7.76 69.693l11.64-11.646" fill="transparent" stroke="#0E559A" stroke-width="1.333" stroke-miterlimit="10" stroke-linecap="round" stroke-linejoin="round"/><path d="M1182.3 141.38l28.35-28.352v-.419h50.15m104.72 159.562c-2.5 0-4.52 2.024-4.52 4.52 0 2.496 2.02 4.52 4.52 4.52 2.49 0 4.52-2.024 4.52-4.52 0-2.496-2.03-4.52-4.52-4.52zm17.4-11.613a4.524 4.524 0 00-4.52 4.52c0 2.496 2.03 4.52 4.52 4.52 2.5 0 4.52-2.024 4.52-4.52 0-2.496-2.02-4.52-4.52-4.52zm-4.52 4.52h-56.2m38.8 11.613h-27.19m-36.06-36.339l36.06 36.337m-50.76-117.628l23.22-23.226m34.35 46.452h16.5m-227.18-60.596h9.66m8.05-85.316h-101.6m211.04 15.349h-153.46m163.55.087a5.045 5.045 0 11-5.04-5.046c2.78 0 5.04 2.259 5.04 5.046zM45.257 35.445a5.697 5.697 0 11-11.395 0 5.697 5.697 0 0111.395 0zm984.573 133.982v15.189m44.36-36.867l83.06 83.064m-182.79-117.97l-46.827-46.827m6.368-8.329l41.637 41.794m1.454-13.436l-36.288-36.588M1239.03 16.38h-149.81m-10.87.4a5.136 5.136 0 0110.27 0 5.136 5.136 0 01-10.27 0zm122.89 9.598h-136.6m136.6 0a5.136 5.136 0 0110.27 0 5.136 5.136 0 01-10.27 0zm-147.23 0a5.136 5.136 0 0110.27 0 5.136 5.136 0 01-10.27 0zm94.25-19.773h-96.36m96.36 0c0-2.834 2.3-5.132 5.13-5.132 2.84 0 5.13 2.298 5.13 5.132a5.127 5.127 0 01-5.13 5.133 5.134 5.134 0 01-5.13-5.133zm91.28 9.775a5.127 5.127 0 015.13-5.132 5.134 5.134 0 010 10.266 5.127 5.127 0 01-5.13-5.133zm-197.91-9.775c0-2.834 2.3-5.132 5.13-5.132 2.84 0 5.13 2.298 5.13 5.132a5.127 5.127 0 01-5.13 5.133 5.134 5.134 0 01-5.13-5.133zm65.97 106.191l5.92 5.93m-5.97-19.4l22.39 22.365m-22.41-35.768l32.9 32.803m-67.28-37.333h-17.75v9.06h17.75v-9.06zm8.1-14.308h-9.06v9.06h9.06v-9.06zm41.33 51.641h-9.07v9.061h9.07v-9.061zm-49.43-23.924h-17.75v9.061h17.75v-9.06zm0 13.41h-17.75v9.061h17.75v-9.061zm0-22.289h34.38m-25.6-13.984h16.53m-25.31 27.394h34.38m-34.38 13.409h34.38m-66.01 28.272h9.06v-17.758h-9.06v17.758zm-13.41 0h9.06v-17.758h-9.06v17.758zm-13.41 0h9.06v-17.758h-9.06v17.758zm31.35.001v14.732m-13.41-14.732v16.349m107.79-11.501h9.06v-8.966h-9.06v8.966zm-13.51-.129h9.06v-8.966h-9.06v8.966zm-13.41 0h9.06v-8.966h-9.06v8.966zm31.45.129v12.738m-13.51-12.866v12.738M1023.76 57.604h-9.06v17.758h9.06V57.604zm13.41 0h-9.06v17.758h9.06V57.604zm13.41 0h-9.06v17.758h9.06V57.604zm-31.35-.001V31.667m13.41 25.936V30.67m13.41 26.933V11.648m-53.926 105.773h17.756v-9.06h-17.756v9.06zm0-13.409h17.756v-9.06h-17.756v9.06zm0-13.41h17.756v-9.06h-17.756v9.06zm0 22.289h-17.341m17.341-13.41h-16.485m16.485-13.409l-15.032-.027m121.368-28.218v14.112m57.94 48.519a4.292 4.292 0 016.07 0 4.302 4.302 0 010 6.069 4.292 4.292 0 01-6.07 0 4.284 4.284 0 010-6.069zm-39.35-38.962a4.281 4.281 0 016.06 0 4.285 4.285 0 010 6.07 4.281 4.281 0 01-6.06 0 4.285 4.285 0 010-6.07zm6.1 5.923l32.9 32.802m-3.94-17.152a4.292 4.292 0 016.07 0 4.302 4.302 0 010 6.069 4.292 4.292 0 01-6.07 0 4.284 4.284 0 010-6.069zm-38.88-38.962a4.293 4.293 0 016.07 0 4.303 4.303 0 010 6.07 4.293 4.293 0 01-6.07 0 4.285 4.285 0 010-6.07zm6.29 5.75l32.9 32.803m146.76-69.914a5.123 5.123 0 017.25 0 5.122 5.122 0 010 7.258 5.122 5.122 0 01-7.25 0 5.122 5.122 0 010-7.258zm-149.43 0a5.135 5.135 0 017.26 0c2 2.004 2 5.254 0 7.258a5.134 5.134 0 01-7.26 0 5.14 5.14 0 010-7.258zm-55.19 15.349a5.122 5.122 0 017.25 0 5.122 5.122 0 010 7.258 5.122 5.122 0 01-7.25 0 5.122 5.122 0 010-7.258zm203.11-11.72h-138.56m-90.74 88.374a4.294 4.294 0 016.07 0 4.285 4.285 0 010 6.07 4.292 4.292 0 01-6.07 0 4.303 4.303 0 010-6.07zm72.49-6.092a4.292 4.292 0 016.07 0 4.302 4.302 0 010 6.069 4.292 4.292 0 01-6.07 0 4.284 4.284 0 010-6.069zm-56.03 6.092a4.294 4.294 0 016.07 0 4.285 4.285 0 010 6.07 4.292 4.292 0 01-6.07 0 4.285 4.285 0 010-6.07zm-16.85 17.073a4.292 4.292 0 016.07 0 4.302 4.302 0 010 6.069 4.292 4.292 0 01-6.07 0 4.284 4.284 0 010-6.069z" fill="transparent" stroke="#0E559A" stroke-width="1.333" stroke-miterlimit="10" stroke-linecap="round" stroke-linejoin="round"/><path d="M1074.27 131.328l43.74 43.674.03-2.745v-26.522m-30.25-.879h-11.65m11.73-12.293v11.797m-90.337 6.028a4.292 4.292 0 11-6.07-6.07 4.292 4.292 0 016.07 6.07zm-16.457 0a4.292 4.292 0 11-6.07-6.07 4.292 4.292 0 016.07 6.07zm0 17.185a4.292 4.292 0 11-6.07-6.07 4.292 4.292 0 016.07 6.07zm0 12.428a4.292 4.292 0 11-6.07-6.07 4.292 4.292 0 016.07 6.07zm16.853-46.685a4.292 4.292 0 11-6.07-6.07 4.292 4.292 0 016.07 6.07zm-6.29 10.494l-44.058-44.237m30.537 30.708h11.644m-11.721 12.294v-11.797m57.629-101.365a4.293 4.293 0 01-6.07 0 4.303 4.303 0 010-6.07 4.293 4.293 0 016.07 0 4.285 4.285 0 010 6.07zm-37.499 33.44c1.999-2.004 5.249-2.004 7.259 0 2 2.004 2 5.255 0 7.259a5.133 5.133 0 11-7.259-7.259zm3.629-31.186V61.35m-21.919-11.96a5.133 5.133 0 117.258 7.258 5.133 5.133 0 01-7.258-7.259zm0-27.551a5.133 5.133 0 117.258 7.26 5.133 5.133 0 01-7.258-7.26zm-209.092 7.287a5.133 5.133 0 117.258 7.26 5.133 5.133 0 01-7.258-7.26zm22.532 8.31a5.133 5.133 0 117.258 7.26 5.133 5.133 0 01-7.258-7.26zm204.85-15.597c1.999-2.004 5.249-2.004 7.259 0 2 2.004 2 5.254 0 7.258a5.133 5.133 0 11-7.259-7.258zm-49.072 192.446a5.133 5.133 0 117.259 7.258 5.133 5.133 0 01-7.259-7.258zm31.88-13.483a5.133 5.133 0 117.258 7.26 5.133 5.133 0 01-7.258-7.26zm45.221-13.978a5.135 5.135 0 017.26 0c2 2.004 2 5.254 0 7.258a5.133 5.133 0 01-7.26 0 5.14 5.14 0 010-7.258zm2.9 27.597a5.123 5.123 0 017.25 0 5.122 5.122 0 010 7.258 5.121 5.121 0 01-7.25 0 5.122 5.122 0 010-7.258zm63.31 17.59a5.135 5.135 0 017.26 0 5.122 5.122 0 010 7.258 5.133 5.133 0 01-7.26 0 5.14 5.14 0 010-7.258zm64.19 0a5.123 5.123 0 017.25 0 5.122 5.122 0 010 7.258 5.121 5.121 0 01-7.25 0 5.122 5.122 0 010-7.258zm-141-210.172a5.135 5.135 0 017.26 0c2 2.004 2 5.254 0 7.258a5.134 5.134 0 01-7.26 0 5.14 5.14 0 010-7.258zm-32.298 9.828v16.09m59.478 47.045l-4.48-5.628m4.49 13.977l-11.13-13.977m9.15 20.318l-16.17-20.318m9.15 20.318l-11.32-14.226m4.3 14.226l-4.3-5.403m-7.78-22.696h35.88v35.88h-35.88v-35.88z" fill="transparent" stroke="#0E559A" stroke-width="1.333" stroke-miterlimit="10" stroke-linecap="round" stroke-linejoin="round"/><path d="M1022.47 89.174h20.32v20.318h-20.32V89.174zm49.37 92.368l-25.79-25.795m25.79 40.822l-39.2-39.205m59.77 74.647l-62.58-62.584m-.73 44.994l-9.78-10.275-.09-45.79v-17.341m51.78 8.174l.83 47.379m-84.159 4.79l31.129-31.129m-62.137 45.209l62.557-62.557m-53.212-34.155v37.021m-9.178-46.721v49.161m9.178-2.44l7.989 7.989m-17.073-5.549l16.816 16.816m-93.12-84.075h-.072m0 0h-80.439m72.129-8.31H796.95m78.74-8.309h-11.753m-71.345 0h71.346m14.95-8.311h-92.092m127.011 0h13.826m-36.731 0h11.754m-32.159-8.311h-91.391m154.895 0h-51.428m-10.325 24.931l8.31 8.31m0 .001l.332.333m.001 0l8.31 8.31M875.69 74.309l16.953 16.953m-22.146-33.575l33.899 33.575m11.752 0l8.31 8.31m-41.885-41.885l33.575 33.575m-21.821-33.575l33.575 33.575m-50.197-50.197l8.352 8.352m50.156 50.156l-8.31-8.31m-30.868-41.886l-16.754-16.622m58.973 58.507l-33.843-33.575m-4.457 41.886h-11.753m23.505 0h-11.752m46.627 0h-11.368m11.368 0h13.12m-36.242 0h-11.753m-8.311-8.311h-11.752m60.086 0h-13.475m-151.02 70.116h124.127m-141.796 17.047h89.436m-86.906 8.524h69.499m-.001 10.477v-10.477m17.408 29.066v-37.13m-79.115-8.984h114.291m.001-33.917v16.87m0 34.983v-17.936m26.502-8.523a4.66 4.66 0 11-9.318 0 4.66 4.66 0 019.318 0zm-21.509-30.231a4.66 4.66 0 11-4.659-4.66 4.659 4.659 0 014.659 4.66zm-22.172-10.333a4.66 4.66 0 11-9.319.001 4.66 4.66 0 019.319-.001zm-30.746 81.643a4.66 4.66 0 11-9.32 0 4.66 4.66 0 019.32 0zm17.412 18.301a4.66 4.66 0 11-9.32 0 4.66 4.66 0 019.32 0zm35.506-28.481a4.66 4.66 0 11-9.318-.002 4.66 4.66 0 019.318.002zm-106.3-39.5h46.449l.874.077h53.983m-96.797-8.541h60.862" fill="transparent" stroke="#0E559A" stroke-width="1.333" stroke-miterlimit="10" stroke-linecap="round" stroke-linejoin="round"/><path d="M873.34 125.329v10.478l-.173.042h-72.532m-294.837 47.508H333.196m190.271-17.048H385.556m118.472-8.524H402.964m0-10.477v10.478m-17.408-29.066v37.13m146.755 8.983H372.926m-15.782 33.917v-16.869m15.782-34.983v17.935m-49.049 8.524a4.66 4.66 0 119.32 0 4.66 4.66 0 01-9.32 0zm28.273 30.23a4.659 4.659 0 014.66-4.659 4.66 4.66 0 11-4.66 4.659zm28.936 10.333a4.659 4.659 0 014.66-4.659 4.66 4.66 0 11-4.66 4.659zm17.218-81.643a4.66 4.66 0 119.32 0 4.66 4.66 0 01-9.32 0zm-17.412-18.301a4.66 4.66 0 119.319 0 4.66 4.66 0 01-9.319 0zm-12.959 28.481a4.66 4.66 0 119.318.002 4.66 4.66 0 01-9.318-.002zm135.246 39.5H382.69l-.873-.077h-24.673m155.178 8.541H381.806" fill="transparent" stroke="#0E559A" stroke-width="1.333" stroke-miterlimit="10" stroke-linecap="round" stroke-linejoin="round"/><path d="M385.746 219.405v-10.478l29.483-.042h93.138M274.905 172.68h32.637m-53.437-42.561l71.675-71.674M220.614 225.806l-49.742 49.743m-14.194.007l51.116-50.881m-12.891-1.394l-45.084 44.796m114.78-209.632l-.204 29.605M128.062 20.394V122.19m.383 10.423a4.924 4.924 0 110-9.848 4.924 4.924 0 010 9.848zm-19.567-97.168v86.745m0 10.423a4.925 4.925 0 11.001-9.85 4.925 4.925 0 01-.001 9.85zm28.776-73.563v80.233m0-80.233a4.925 4.925 0 110-9.85 4.925 4.925 0 010 9.85zm43.229 0a4.925 4.925 0 110-9.85 4.925 4.925 0 010 9.85zm-43.229 90.429a4.925 4.925 0 110-9.85 4.925 4.925 0 010 9.85zM118.682 59.05v92.46m0-92.46a4.925 4.925 0 11.001-9.85 4.925 4.925 0 01-.001 9.85zm0 102.308a4.925 4.925 0 11.001-9.85 4.925 4.925 0 01-.001 9.85zm101.887-63.291l5.69-5.68m-18.614 5.719l35.611-35.628m-48.47 35.653L227.92 65.39m-28.788 65.721h-8.693v17.039h8.693v-17.039zm-13.728-7.769h-8.693v8.693h8.693v-8.693zm49.548-39.648h-8.693v8.694h8.693v-8.694zm-22.954 47.417h-8.693v17.039h8.693v-17.039zm12.867 0h-8.694v17.039h8.694v-17.039zm-30.079.001v-32.98m-13.418 24.561v-15.862m26.284 24.281v-32.98m12.866 32.98v-32.98m27.126 54.64h-17.039v8.693h17.039v-8.693zm0 12.866h-17.039v8.693h17.039v-8.693zm0 12.866h-17.039v8.693h17.039v-8.693zm0-21.386h14.135m-14.135 12.867h15.687M252.173 54.098h-8.603v8.693h8.603v-8.693zm0 16.738h-8.603v8.693h8.603v-8.693zm0 12.867h-8.603v8.693h8.603v-8.693zm0-25.258h12.426m-12.426 16.738h12.222m-96.782 112.014h17.039v-8.693h-17.039v8.693zm0-12.866h17.039v-8.693h-17.039v8.693zm0-12.866h17.039v-8.693h-17.039v8.693zm0 21.385H-1m168.613-12.865h-25.842m25.842-12.867H123.52m92.794 51.74h8.693v-17.039h-8.693v17.039zm-12.867 0h8.693v-17.039h-8.693v17.039zm-12.865 0h8.693v-17.039h-8.693v17.039zm30.078 0v16.638m-12.866-16.638v15.817m-12.866-15.817l-.026 14.423m-27.074-116.45h13.54m46.552-55.588a4.119 4.119 0 115.824 0 4.12 4.12 0 01-5.824 0zm0 14.147a4.119 4.119 0 115.824 0 4.119 4.119 0 01-5.824 0zM190.538 89a4.118 4.118 0 115.824-5.823A4.118 4.118 0 01190.538 89zm5.683-5.856l31.473-31.568m-16.458 3.784a4.118 4.118 0 115.824-5.823 4.118 4.118 0 01-5.824 5.824zm-37.383 37.302a4.118 4.118 0 115.823-5.823 4.118 4.118 0 01-5.823 5.823zm5.518-6.039l31.473-31.569M143.763 78.66a4.924 4.924 0 116.964-6.964 4.924 4.924 0 01-6.964 6.964zm0 52.511a4.924 4.924 0 116.964-6.964 4.924 4.924 0 01-6.964 6.964zm14.728-20.594a4.923 4.923 0 010-6.963 4.923 4.923 0 016.964 0 4.923 4.923 0 11-6.964 6.963zm-11.246-30.475v42.088m84.793 13.509a4.117 4.117 0 115.823-5.823 4.117 4.117 0 01-5.823 5.823zm65.997-.419a4.117 4.117 0 115.823-5.823 4.117 4.117 0 01-5.823 5.823zm-65.997-15.371a4.117 4.117 0 115.823-5.823 4.117 4.117 0 01-5.823 5.823zm16.38 16.17a4.119 4.119 0 115.824-5.82 4.119 4.119 0 01-5.824 5.82z" fill="transparent" stroke="#0E559A" stroke-width="1.333" stroke-miterlimit="10" stroke-linecap="round" stroke-linejoin="round"/><path d="M238.35 130.044l41.904-41.973-2.634-.022h-25.447m-.843 29.022v11.172m-11.795-11.246h11.319m5.784 86.671a4.119 4.119 0 11-5.825 5.824 4.119 4.119 0 015.825-5.824zm0 15.791a4.117 4.117 0 11-5.823 5.823 4.117 4.117 0 015.823-5.823zm16.488 0a4.117 4.117 0 11-5.823 5.823 4.117 4.117 0 015.823-5.823zm11.924 0a4.117 4.117 0 11-5.823 5.823 4.117 4.117 0 015.823-5.823zm-44.792-16.171a4.12 4.12 0 010 5.824 4.12 4.12 0 01-5.824 0 4.12 4.12 0 010-5.824 4.12 4.12 0 015.824 0zm10.068 6.035l-66.464 66.534m53.484-53.56v-11.173m11.795 11.246h-11.319m-97.257-55.297a4.117 4.117 0 11-5.823 5.823 4.117 4.117 0 015.823-5.823zm32.086 35.983a4.923 4.923 0 010-6.963 4.921 4.921 0 016.963 0 4.923 4.923 0 11-6.963 6.963zM-1 199.574h172.208m-15.802 15.623a4.924 4.924 0 116.964-6.964 4.924 4.924 0 01-6.964 6.964zM-1 211.915h154.84m49.465-51.656l-5.401 4.298m13.411-4.307l-13.41 10.673m19.494-8.778l-19.495 15.515m19.495-8.778l-13.649 10.863m13.649-4.126l-5.183 4.126m12.649 7.465H190.44v-34.425h34.425v34.425z" fill="transparent" stroke="#0E559A" stroke-width="1.333" stroke-miterlimit="10" stroke-linecap="round" stroke-linejoin="round"/><path d="M217.399 179.744h-19.494V160.25h19.494v19.494zm-41.266 24.755v22.065l-33.162 33.163H-1m287.529-127.358l-24.75 24.75m36.256-21.839l-34.705 34.705m82.528-68.258l-70.953 70.953m47.934 10.17h-75.195m7.843-49.683l41.823-.734m7.346 79.802l-28.982-28.981m38.902 55.142L259.03 182.85m-32.771 51.056h35.521m-44.828 8.806h47.169m-2.342-8.806l7.666-7.666m-5.324 16.382l16.134-16.134m291.457-36.035l35.968-35.968m-61.021 18.073l21.87-21.87m-30.474 41.211l39.378-39.378m29.172 24.513l-47.477 47.477m22.014-32.751l-21.613 21.613m66.123 9.119l-28.268 28.268m-26.851-26.834l-11.804 11.804m59.868 4.554l-15.845 15.845m24.18-45.653l-34.917 34.916m150.621-53.905l-43.032 43.032m22.126-43.599l81.806-81.807m-92.077 81.34l90.855-90.854m-49.191 102.875l-50.914 50.914m45.215-55.952l-45.381 45.381M802.88 120.506L694.643 228.743m-203.132-83.388l32.06-32.06m-26.397 37.393l18.565-18.566m14.096 97.95h-37.899a3.79 3.79 0 010-7.579h30.703m-79.97 22.738H423.72a3.79 3.79 0 010-7.579h18.949a3.79 3.79 0 110 7.579zm-123.542-7.579h59.201c2.046 0 3.705 1.696 3.705 3.79 0 2.092-1.659 3.789-3.705 3.789l-59.514.144m154.553-.144c-3.411 0-5.97-2.527-7.959-2.527-1.99 0-4.547 2.527-7.959 2.527-1.883 0-3.41-1.696-3.41-3.79 0-2.093 1.527-3.789 3.41-3.789 3.412 0 5.685 2.525 7.959 2.525 1.989 0 4.548-2.525 7.959-2.525 1.884 0 3.411 1.696 3.411 3.789 0 2.094-1.527 3.79-3.411 3.79zm41.688 0c-3.411 0-5.97-2.527-7.959-2.527-1.99 0-4.547 2.527-7.96 2.527-1.882 0-3.41-1.696-3.41-3.79 0-2.093 1.528-3.789 3.41-3.789 3.413 0 5.685 2.525 7.96 2.525 1.989 0 4.548-2.525 7.959-2.525 1.884 0 3.41 1.696 3.41 3.789 0 2.094-1.526 3.79-3.41 3.79zm30.318 15.159c-3.411 0-5.97-2.526-7.959-2.526-1.99 0-4.547 2.526-7.959 2.526-1.883 0-3.41-1.696-3.41-3.79 0-2.093 1.527-3.789 3.41-3.789 3.412 0 5.685 2.525 7.959 2.525 1.989 0 4.548-2.525 7.959-2.525 1.884 0 3.411 1.696 3.411 3.789 0 2.094-1.527 3.79-3.411 3.79zm-57.226-18.949a3.79 3.79 0 11-7.58.001 3.79 3.79 0 017.58-.001zm-26.529-15.159a3.79 3.79 0 11-7.58 0 3.79 3.79 0 017.58 0zm30.319 45.478a3.79 3.79 0 11-7.58 0 3.79 3.79 0 017.58 0zm-15.159-45.478a3.79 3.79 0 11-7.579 0 3.79 3.79 0 117.579 0zm7.579 34.108h-26.529a3.789 3.789 0 110-7.579h26.529a3.79 3.79 0 110 7.579zm90.773 15.159h-71.824a3.79 3.79 0 110-7.579h64.636m-170.75-7.58h-60.637a3.79 3.79 0 110-7.579h60.637a3.79 3.79 0 110 7.579zm121.273-3.79a3.79 3.79 0 11-7.579 0 3.79 3.79 0 117.579 0zm-72.006 0a3.79 3.79 0 11-7.58.002 3.79 3.79 0 017.58-.002zm26.908 18.949c-3.411 0-5.97-2.526-7.959-2.526-1.99 0-4.547 2.526-7.959 2.526-1.883 0-3.41-1.696-3.41-3.79 0-2.092 1.527-3.789 3.41-3.789 3.412 0 5.685 2.525 7.959 2.525 1.989 0 4.548-2.525 7.959-2.525 1.884 0 3.411 1.697 3.411 3.789 0 2.094-1.527 3.79-3.411 3.79zm60.258-34.108a3.79 3.79 0 11-7.579 0 3.79 3.79 0 117.579 0zm-121.274 0a3.79 3.79 0 11-7.58.002 3.79 3.79 0 017.58-.002zm-.001 34.108h-18.948a3.789 3.789 0 110-7.579h18.948a3.79 3.79 0 110 7.579zm-220.61-7.579h171.344a3.79 3.79 0 110 7.579H-1m383.033-3.789a3.79 3.79 0 11-7.58 0 3.79 3.79 0 017.58 0zm15.159-30.319a3.79 3.79 0 11-7.58.001 3.79 3.79 0 017.58-.001zm49.267 30.319a3.79 3.79 0 11-7.58 0 3.79 3.79 0 017.58 0zm-15.159 0a3.79 3.79 0 11-7.58 0 3.79 3.79 0 017.58 0zm72.006-15.16a3.79 3.79 0 11-7.579 0 3.79 3.79 0 117.579 0zm-75.417 3.79c-3.411 0-5.969-2.526-7.958-2.526-1.99 0-4.548 2.526-7.96 2.526-1.882 0-3.41-1.696-3.41-3.79 0-2.093 1.528-3.789 3.41-3.789 3.412 0 5.685 2.525 7.96 2.525 1.989 0 4.547-2.525 7.958-2.525 1.884 0 3.411 1.696 3.411 3.789 0 2.094-1.527 3.79-3.411 3.79zm585.881-24.722H798.158m292.752 0h-68.99m133.17 0h-53.91m-187.002 8.148H806.792m433.658 0H922.276m123.044 8.148H826.808m394.812 0h-168.15m-68.493 8.148H834.339m256.841 0h-98.055m264.925 0h-158.72m-200.592 8.149h-44.851m434.413 0H898.739m15.271 8.178H726.671m583.729-.03H923.309m122.131-24.256c0 .902.73 1.634 1.63 1.634.9 0 1.64-.732 1.64-1.634a1.64 1.64 0 00-1.64-1.634c-.9 0-1.63.731-1.63 1.634zm-60.211 7.818a1.635 1.635 0 103.27-.002 1.635 1.635 0 00-3.27.002zm-71.423 16.505a1.635 1.635 0 103.27-.001 1.635 1.635 0 00-3.27.001zm374.914-8.245c0 .903.74 1.635 1.64 1.635.9 0 1.63-.732 1.63-1.635 0-.902-.73-1.634-1.63-1.634-.9 0-1.64.732-1.64 1.634zm-197.13-8.102a1.635 1.635 0 103.27-.001 1.635 1.635 0 00-3.27.001zm130.38-8.055a1.635 1.635 0 103.27-.001 1.635 1.635 0 00-3.27.001zm18.83-8.245a1.635 1.635 0 103.27 0 1.635 1.635 0 00-3.27 0zm17.6 16.205c0 .903.73 1.634 1.63 1.634.9 0 1.64-.731 1.64-1.634 0-.902-.74-1.634-1.64-1.634-.9 0-1.63.732-1.63 1.634zm52.38 16.489c0 .902.73 1.634 1.63 1.634.9 0 1.64-.732 1.64-1.634 0-.902-.74-1.634-1.64-1.634-.9 0-1.63.732-1.63 1.634zm-396.318-32.599a1.634 1.634 0 103.268 0 1.634 1.634 0 00-3.268 0zm99.728-8.284a1.635 1.635 0 103.27-.001 1.635 1.635 0 00-3.27.001zm-392.707-95.142l.025.041m5.543 9.055l-5.543-9.055m5.543 9.055l5.402 8.826m5.322 8.695l-5.322-8.695m5.322 8.695l7.183 11.735c2.689 4.974 1.941 12.214-7.1 13.593-3.647.556-12.289 1.637-12.289 1.637l.006 3.442c0 4.467.71 8.214 2.044 12.265.229.695.477 1.4.742 2.119 1.337 3.623 2.352 4.783 2.352 4.783s-.843 1.845-3.128 3.047c-2.191 1.154-3.418 1.495-3.418 1.495s1.227.901 2.279 2.055c1.345 1.476 1.929 3.018 1.929 3.018s-5.094 3.861-7.247 7.305c-2.527 4.04-3.037 8.93-3.037 11.832l-.302 9.619c0 11.536-8.74 20.659-19.096 20.659m21.052-190.185l-.071.05m6.995-7.044c1.836-2.475 3.649-5.595 4.908-9.353m-11.83 16.346c.502-.35 3.739-2.7 6.923-6.993m6.539-21.538a38.355 38.355 0 00-.868-6.357c-3.881-17.57-19.512-30.546-45.614-30.225l-4.41-.026H471.464m160.113 48.793c1.176-3.51 1.865-7.573 1.632-12.185m65.08 83.578l.05-.081m-5.292 8.645l-5.201 8.497m-10.314 16.85l-2.668 4.36c-2.688 4.973-1.941 12.213 7.1 13.592 3.648.556 12.29 1.637 12.29 1.637l-.005 3.441c0 5.235-.976 9.481-2.788 14.384-1.337 3.624-2.352 4.784-2.352 4.784s.844 1.845 3.128 3.047c2.192 1.153 3.419 1.495 3.419 1.495s-1.227.902-2.279 2.054c-1.346 1.477-1.93 3.018-1.93 3.018s5.095 3.862 7.248 7.306c2.526 4.04 3.037 8.93 3.037 11.832l.302 9.619c0 11.536 8.74 20.659 19.095 20.659m-33.283-118.077l-5.168 8.441m15.611-25.503l-5.242 8.564m-10.368 16.94l-5.147 8.407m9.052-115.002c.085 4.074.879 7.686 2.057 10.817m0 0c1.319 3.506 3.106 6.415 4.88 8.722m-6.937-19.539c-.057-2.74.199-5.684.897-8.844a37.8 37.8 0 011.127-4.009m11.541 38.948s-3.288-2.21-6.629-6.556m-97.496 46.858a18.774 18.774 0 003.974-11.571c0-10.414-8.443-18.856-18.856-18.856-10.414 0-18.856 8.442-18.856 18.856 0 10.413 8.442 18.855 18.856 18.855 6.051 0 11.431-2.854 14.882-7.284z" fill="transparent" stroke="#0E559A" stroke-width="1.333" stroke-miterlimit="10" stroke-linecap="round" stroke-linejoin="round"/><path d="M609.454 118.506c.201-1.369.308-2.768.308-4.192 0-15.806-12.814-28.62-28.62-28.62-15.807 0-28.621 12.814-28.621 28.62 0 15.807 12.814 28.621 28.621 28.621 14.382 0 26.283-10.61 28.312-24.429z" fill="transparent" stroke="#0E559A" stroke-width="1.333" stroke-miterlimit="10" stroke-linecap="round" stroke-linejoin="round"/><path d="M619.5 113.228c-.577-20.696-17.523-37.3-38.358-37.3-21.2 0-38.385 17.187-38.385 38.386 0 19.875 15.104 36.222 34.46 38.188m44.291-11.963a47.871 47.871 0 007.062-17.954m-8.823-37.052a47.937 47.937 0 019.545 28.781c0 2.822-.256 5.582-.722 8.27" fill="transparent" stroke="#0E559A" stroke-width="1.333" stroke-miterlimit="10" stroke-linecap="round" stroke-linejoin="round"/><path d="M619.747 85.533c-8.78-11.757-22.803-19.37-38.605-19.37-26.593 0-48.151 21.559-48.151 48.151 0 26.593 21.558 48.151 48.151 48.151 16.917 0 31.782-8.73 40.366-21.926m-98.282-26.225c0 31.986 25.93 57.916 57.916 57.916m45.527-93.69c-10.604-13.477-27.048-22.14-45.527-22.14m45.527 22.14c7.751 9.851 12.389 22.268 12.389 35.774 0 4.157-.448 8.208-1.28 12.115m-1.344 5.133a57.798 57.798 0 01-9.383 18.032m21.765-34.756c.001-.174.006-.349.006-.524m-.006.524c-.127 16.65-6.277 31.857-16.363 43.582" fill="transparent" stroke="#0E559A" stroke-width="1.333" stroke-miterlimit="10" stroke-linecap="round" stroke-linejoin="round"/><path d="M632.453 158.42c-12.411 14.427-30.787 23.575-51.311 23.575-37.379 0-67.681-30.302-67.681-67.681s30.302-67.68 67.681-67.68c20.04 0 38.043 8.713 50.435 22.553m0 0c10.722 11.975 17.245 27.788 17.245 45.127m9.765.001c0 .101-.003.202-.004.304m-4.878 26.805a77.279 77.279 0 004.879-26.806m-150.578 25.235c10.553 30.224 39.312 51.907 73.136 51.907m56.633-24.645c6.873-7.37 12.335-16.073 15.93-25.69m60.114-12.954a18.772 18.772 0 0012.449 4.699c10.413 0 18.856-8.442 18.856-18.855 0-10.414-8.443-18.856-18.856-18.856-10.413 0-18.856 8.442-18.856 18.856 0 3.076.74 5.98 2.048 8.545" fill="transparent" stroke="#0E559A" stroke-width="1.333" stroke-miterlimit="10" stroke-linecap="round" stroke-linejoin="round"/><path d="M736.712 87.66a28.545 28.545 0 00-10.444-1.966c-15.807 0-28.621 12.814-28.621 28.62 0 1.264.091 2.506.25 3.727m28.371 24.894c15.806 0 28.621-12.814 28.621-28.621m-66.981-1.019c-.009.34-.026.678-.026 1.019 0 10.165 3.958 19.399 10.407 26.266" fill="transparent" stroke="#0E559A" stroke-width="1.333" stroke-miterlimit="10" stroke-linecap="round" stroke-linejoin="round"/><path d="M726.268 152.7c21.2 0 38.386-17.186 38.386-38.386 0-21.2-17.186-38.385-38.386-38.385-20.858 0-37.818 16.639-38.36 37.366m5.612-34.267c-9.47 8.793-15.403 21.344-15.403 35.286a48.4 48.4 0 00.771 8.545" fill="transparent" stroke="#0E559A" stroke-width="1.333" stroke-miterlimit="10" stroke-linecap="round" stroke-linejoin="round"/><path d="M774.418 114.315c0-26.593-21.557-48.151-48.15-48.151-12.651 0-24.155 4.885-32.748 12.864m-.473 70.116c8.639 8.248 20.332 13.321 33.221 13.321m-38.422-4.823c-7.645-6.786-13.481-15.564-16.696-25.52" fill="transparent" stroke="#0E559A" stroke-width="1.333" stroke-miterlimit="10" stroke-linecap="round" stroke-linejoin="round"/><path d="M781.784 130.866a57.932 57.932 0 002.399-16.552c0-31.985-25.93-57.915-57.915-57.915-14.368 0-27.504 5.244-37.627 13.907m-.795 87.336c10.222 9.075 23.677 14.588 38.422 14.588 5.784 0 11.37-.848 16.641-2.427m-60.23-3.719c-14.656-12.354-23.995-30.814-24.088-51.46m27.993-55.135c-16.962 12.299-27.997 32.272-27.997 54.826" fill="transparent" stroke="#0E559A" stroke-width="1.333" stroke-miterlimit="10" stroke-linecap="round" stroke-linejoin="round"/><path d="M793.679 108.237c-3.073-34.531-32.081-61.603-67.411-61.603-14.825 0-28.534 4.77-39.685 12.855m57.066 120.254c23.241-6.159 41.577-24.371 47.911-47.54m-132.973-17.888c0 .103.004.206.004.31m30.017-67.989c-15.951 8.897-28.435 23.264-34.903 40.569m23.827 87.286c-10.636-8.626-18.946-20.007-23.827-33.067" fill="transparent" stroke="#0E559A" stroke-width="1.333" stroke-miterlimit="10" stroke-linecap="round" stroke-linejoin="round"/><path d="M677.532 174.491c13.31 10.794 30.263 17.269 48.736 17.269 42.772 0 77.445-34.674 77.445-77.445 0-42.773-34.673-77.446-77.445-77.446-13.672 0-26.511 3.55-37.66 9.768m-39.779 68.19c-.001-.171-.007-.342-.007-.513m0 .001a77.27 77.27 0 014.883-27.11m34.203 26.09c-4.306 1.222-6.229 6.049-9.02 9.564" fill="transparent" stroke="#0E559A" stroke-width="1.333" stroke-miterlimit="10" stroke-linecap="round" stroke-linejoin="round"/><path d="M711.459 125.979a7.525 7.525 0 01-3.282.721c-5.335 0-7.528-4.752-10.28-8.659M726.293 113c-7.805 0-8.889 10.165-14.834 12.98m-13.562-7.939c-1.921-2.726-4.113-5.041-7.836-5.041-.782 0-1.493.109-2.153.295m-29.316 1.329l-.008-.006m-9.768.22l.014-.011m-52.806 11.059c1 .509 2.137.815 3.475.815 5.123 0 7.348-4.386 9.955-8.196m69.434 4.354c-1.724 2.172-3.78 3.841-6.94 3.841a7.79 7.79 0 01-2.333-.342m-20.799-11.52c-4.029 3.335-5.745 10.169-11.037 11.592m-28.325-7.924c2-2.923 4.224-5.506 8.156-5.506.68 0 1.304.085 1.89.228m18.279 13.202a7.888 7.888 0 01-2.055.27c-3.292 0-5.385-1.812-7.154-4.116M581.385 113c7.719 0 8.863 9.946 14.638 12.886m73.592.472c-5.192-1.616-6.874-8.542-11.024-11.734m-39.091-1.396c4.378 1.069 6.338 5.797 9.07 9.356m20.259-7.757c1.34-1.106 2.935-1.827 5.006-1.827 1.939 0 3.462.631 4.749 1.619m-25.375-57.617C619.456 44.5 601.194 36.87 581.142 36.87H471.464m107.725-8.19H386.913m161.286 17.954H347.457m119.471-9.765H365.29m194.239 176.504l-86.108-86.108m140.387 140.387l-43.501-43.501m-11.179.36l-49.678-49.678m98.358 98.358l-43.27-43.27m34.156 45.797L497.849 174.771m89.408 100.947l-83.92-83.919m72.381 83.919l-75.298-75.297m320.986 35.219l-54.828-54.828m95.627 95.627l-16.468-16.468m-35.871-24.331l-51.041-51.041m91.841 91.84l-32.623-32.623m21.083 32.623l-88.569-88.57m77.184 88.723l-86.14-86.139m21.903 85.986l-41.92-41.92m53.912 42.054l-47.983-47.983m59.708 47.849l-53.779-53.779m65.637 53.779l-59.708-59.708m-163.653 58.987h24.279M475.126 123.976a4.993 4.993 0 11-9.986 0 4.993 4.993 0 019.986 0zm213.482-77.34c5.258-15.496 20.416-26.511 44.488-26.215l4.41-.027h201.6V31.92l34.563 34.563h22.999M-1 267.652h150.394m172.136-26.359a4.08 4.08 0 11-8.162 0 4.08 4.08 0 018.162 0zm-9.908-26.172a4.08 4.08 0 11-8.16 0 4.08 4.08 0 018.16 0zm4.081-42.911a4.08 4.08 0 11-8.161 0 4.08 4.08 0 018.161 0zm36.796-73.044a4.08 4.08 0 11-8.162 0 4.08 4.08 0 018.162 0zm-19.881-44.111a4.08 4.08 0 11-8.161 0 4.08 4.08 0 018.161 0zM529.835 78.54a6.15 6.15 0 11-12.302 0 6.15 6.15 0 1112.302 0zm-15.159-1.104h-87.165m513.293-27.978l-171.259-.081m108.16-8.312h-75.103m77.679-8.31H780.056M128.062 20.394H71.875m37.003 15.051H45.572M71.34 20.394a5.697 5.697 0 11-11.395 0 5.697 5.697 0 0111.395 0zm113.746 7.526a4.029 4.029 0 11-8.058-.002 4.029 4.029 0 018.058.001zm-93.491 0a4.029 4.029 0 11-8.057-.001 4.029 4.029 0 018.057 0zm143.355 7.877a4.029 4.029 0 11-8.058-.001 4.029 4.029 0 018.058 0zM91.367 27.92h85.574m-29.696 7.525h79.327m-79.327 35.297V35.444m-4.008 18.654h32.386" fill="transparent" stroke="#0E559A" stroke-width="1.333" stroke-miterlimit="10" stroke-linecap="round" stroke-linejoin="round"/></symbol></svg>